<?xml version="1.0" encoding="UTF-8"?>
<svg xmlns="http://www.w3.org/2000/svg" width="660" height="490" viewBox="0 0 660 490">
  <g id="_背景" data-name="背景">
    <polyline id="base" points="0 0 660 0 660 490 0 490" fill="#dcdddd"/>
  </g>
  <g id="_男性用トイレ" data-name="男性用トイレ">
    <polyline points="386.47 126.96 404.84 126.96 404.84 37.16 386.47 37.16 386.47 126.96" fill="#54c3f1" stroke="#283331" stroke-miterlimit="10"/>
    <polyline points="378.82 410.63 378.82 434.1 394.13 434.1 394.13 410.63 378.82 410.63" fill="#54c3f1" stroke="#283331" stroke-miterlimit="10"/>
  </g>
  <g id="_女性用トイレ" data-name="女性用トイレ">
    <polyline points="368.81 142.52 386.47 142.52 386.47 37.16 368.81 37.16 368.81 142.52" fill="#f19899" stroke="#283331" stroke-miterlimit="10"/>
    <rect x="394.13" y="410.63" width="13.78" height="23.47" fill="#f19899" stroke="#283331" stroke-miterlimit="10"/>
  </g>
  <g id="_使用不可能教室等" data-name="使用不可能教室等">
    <rect x="305.14" y="65.99" width="63.67" height="76.53" fill="#929292" stroke="#283331" stroke-miterlimit="10"/>
    <polyline points="506.37 393.29 561.79 393.29 561.79 372.27 506.37 372.27 506.37 393.29" fill="#929292" stroke="#283331" stroke-miterlimit="10"/>
    <polyline points="561.79 393.29 616.58 393.29 616.58 372.27 561.79 372.27 561.79 393.29" fill="#929292" stroke="#283331" stroke-miterlimit="10"/>
    <polyline points="516 206.55 616.58 206.55 616.58 176.83 529.33 176.83 516 190.16 516 206.55" fill="#929292" stroke="#283331" stroke-miterlimit="10"/>
    <polyline points="209.64 393.29 401.02 393.29 401.02 320.74 209.64 320.74 209.64 393.29" fill="#929292" stroke="#283331" stroke-miterlimit="10"/>
    <polyline points="401.02 393.29 479.87 393.29 479.87 335.02 401.02 335.02 401.02 393.29" fill="#929292" stroke="#283331" stroke-miterlimit="10"/>
    <polyline points="209.64 411.65 209.64 434.1 264.03 434.1 264.03 411.65 209.64 411.65" fill="#929292" stroke="#283331" stroke-miterlimit="10"/>
    <polyline points="114.13 320.74 15.36 320.74 15.36 452.84 114.13 452.84 114.13 320.74" fill="#929292" stroke="#283331" stroke-miterlimit="10"/>
    <polyline points="407.9 410.63 616.58 410.63 616.58 434.1 407.9 434.1 407.9 410.63" fill="#929292" stroke="#283331" stroke-miterlimit="10"/>
  </g>
  <g id="_廊下" data-name="廊下">
    <polygon points="386.47 142.52 386.47 126.96 565.56 126.96 565.56 111.14 549 111.14 549 37.16 631.37 37.16 631.37 120.84 615.05 120.84 615.05 126.96 582.63 163.18 582.63 176.83 529.33 176.83 516 190.16 516 206.55 506.37 206.55 506.37 393.29 616.58 393.29 616.58 410.63 378.82 410.63 378.82 434.1 264.03 434.1 264.03 411.65 209.64 411.65 209.64 393.29 479.87 393.29 479.87 199.92 494.64 176.83 494.64 151.9 485.87 143.13 386.47 142.52" fill="#b5b5b6" stroke="#283331" stroke-miterlimit="10"/>
    <polygon points="55.69 163.18 55.69 145.02 114.13 145.02 114.13 126.96 241.47 126.96 241.47 142.52 485.87 143.13 490.08 147.34 474.74 163.18 241.47 163.18 241.47 176.83 114.13 176.83 114.13 163.18 55.69 163.18" fill="#b5b5b6" stroke="#283331" stroke-miterlimit="10"/>
    <polygon points="114.13 176.83 114.13 414.73 209.64 414.73 209.64 387.07 145.97 387.07 145.97 176.83 114.13 176.83" fill="#c9caca" stroke="#283331" stroke-miterlimit="10"/>
    <g id="_矢印" data-name="矢印">
      <path d="m607.47,151.64l-.44-5.53-1.91,2.24-11.19-9.55-1.27,1.49,11.19,9.55-1.91,2.24,5.53-.44Z" fill="#040000"/>
      <path d="m591.97,138.41l.44,5.53,1.91-2.24,11.19,9.55,1.27-1.49-11.19-9.55,1.91-2.24-5.53.44Z" fill="#040000"/>
    </g>
    <g id="_矢印-2" data-name="矢印">
      <path d="m413.13,152.71l4-3.84-2.94-.06.29-14.71-1.96-.04-.29,14.71-2.94-.06,3.84,4Z" fill="#040000"/>
      <path d="m413.53,132.33l-4,3.84,2.94.06-.29,14.71,1.96.04.29-14.71,2.94.06-3.84-4Z" fill="#040000"/>
    </g>
    <g id="_矢印-3" data-name="矢印">
      <path d="m483.86,165.35l3.84,4,.06-2.94,14.71.29.04-1.96-14.71-.29.06-2.94-4,3.84Z" fill="#040000"/>
      <path d="m504.23,165.76l-3.84-4-.06,2.94-14.71-.29-.04,1.96,14.71.29-.06,2.94,4-3.84Z" fill="#040000"/>
    </g>
    <g id="_矢印-4" data-name="矢印">
      <path d="m199.45,402.27l3.84,4,.06-2.94,14.71.29.04-1.96-14.71-.29.06-2.94-4,3.84Z" fill="#040000"/>
      <path d="m219.82,402.67l-3.84-4-.06,2.94-14.71-.29-.04,1.96,14.71.29-.06,2.94,4-3.84Z" fill="#040000"/>
    </g>
    <g id="_矢印-5" data-name="矢印">
      <path d="m273.51,423.92l-4,3.84,2.94.06-.29,14.71,1.96.04.29-14.71,2.94.06-3.84-4Z" fill="#040000"/>
      <path d="m273.1,444.29l4-3.84-2.94-.06.29-14.71-1.96-.04-.29,14.71-2.94-.06,3.84,4Z" fill="#040000"/>
    </g>
    <g id="_矢印-6" data-name="矢印">
      <path d="m363.21,423.05l-4,3.84,2.94.06-.29,14.71,1.96.04.29-14.71,2.94.06-3.84-4Z" fill="#040000"/>
      <path d="m362.8,443.43l4-3.84-2.94-.06.29-14.71-1.96-.04-.29,14.71-2.94-.06,3.84,4Z" fill="#040000"/>
    </g>
    <g id="_矢印-7" data-name="矢印">
      <path d="m607.47,402.14l3.84,4,.06-2.94,14.71.29.04-1.96-14.71-.29.06-2.94-4,3.84Z" fill="#040000"/>
      <path d="m627.84,402.55l-3.84-4-.06,2.94-14.71-.29-.04,1.96,14.71.29-.06,2.94,4-3.84Z" fill="#040000"/>
    </g>
  </g>
  <g id="_トイレマーク" data-name="トイレマーク">
    <g>
      <path d="m400.1,417.94c1.77,0,3.21-1.44,3.21-3.21s-1.44-3.21-3.21-3.21-3.21,1.44-3.21,3.21,1.44,3.21,3.21,3.21Z" fill="#fff"/>
      <path d="m388.15,417.94c1.77,0,3.21-1.44,3.21-3.21s-1.44-3.21-3.21-3.21-3.21,1.44-3.21,3.21,1.44,3.21,3.21,3.21Z" fill="#fff"/>
      <path d="m404.97,430.4l-4.4-10.36c-.08-.19-.26-.31-.47-.31s-.39.12-.47.31l-4.4,10.36c-.27.62-.2,1.34.17,1.91.37.57,1.01.91,1.69.91h6.02c.68,0,1.31-.34,1.69-.91.37-.57.44-1.28.17-1.91Z" fill="#fff"/>
      <path d="m391.16,419.73h-6.02c-.68,0-1.31.34-1.69.91-.37.57-.44,1.28-.17,1.91l4.4,10.36c.08.19.26.31.47.31s.39-.12.47-.31l4.4-10.36c.27-.62.2-1.34-.17-1.91-.37-.57-1.01-.91-1.69-.91Z" fill="#fff"/>
    </g>
    <g>
      <path d="m395.89,79.65c1.77,0,3.21-1.44,3.21-3.21s-1.44-3.21-3.21-3.21-3.21,1.44-3.21,3.21,1.44,3.21,3.21,3.21Z" fill="#fff"/>
      <path d="m398.9,81.43h-6.02c-.68,0-1.31.34-1.69.91-.37.57-.44,1.28-.17,1.91l4.4,10.36c.08.19.26.31.47.31s.39-.12.47-.31l4.4-10.36c.27-.62.2-1.34-.17-1.91-.37-.57-1.01-.91-1.69-.91Z" fill="#fff"/>
    </g>
    <g>
      <path d="m377.64,79.65c1.77,0,3.21-1.44,3.21-3.21s-1.44-3.21-3.21-3.21-3.21,1.44-3.21,3.21,1.44,3.21,3.21,3.21Z" fill="#fff"/>
      <path d="m382.51,92.1l-4.4-10.36c-.08-.19-.26-.31-.47-.31s-.39.12-.47.31l-4.4,10.36c-.27.62-.2,1.34.17,1.91.37.57,1.01.91,1.69.91h6.02c.68,0,1.31-.34,1.69-.91.37-.57.44-1.28.17-1.91Z" fill="#fff"/>
    </g>
  </g>
  <g id="_階段" data-name="階段">
    <g>
      <polygon points="549 55.59 562.27 50.39 562.27 37.43 549 37.43 549 55.59" fill="#5c5a5a"/>
      <polyline points="562.27 68.54 562.27 37.43 549 37.43 549 68.98" fill="none" stroke="#283331" stroke-miterlimit="10"/>
      <line x1="549" y1="55.59" x2="562.27" y2="55.59" fill="none" stroke="#283331" stroke-miterlimit="10" stroke-width=".25"/>
      <line x1="549" y1="57.97" x2="562.27" y2="57.97" fill="none" stroke="#283331" stroke-miterlimit="10" stroke-width=".25"/>
      <line x1="549" y1="60.34" x2="562.27" y2="60.34" fill="none" stroke="#283331" stroke-miterlimit="10" stroke-width=".25"/>
      <line x1="549" y1="62.71" x2="562.27" y2="62.71" fill="none" stroke="#283331" stroke-miterlimit="10" stroke-width=".25"/>
      <line x1="549" y1="65.09" x2="562.27" y2="65.09" fill="none" stroke="#283331" stroke-miterlimit="10" stroke-width=".25"/>
      <line x1="549" y1="67.46" x2="562.27" y2="67.46" fill="none" stroke="#283331" stroke-miterlimit="10" stroke-width=".25"/>
    </g>
    <g>
      <polygon points="133.08 432.89 146.34 427.69 146.34 414.73 133.08 414.73 133.08 432.89" fill="#5c5a5a"/>
      <polyline points="146.34 445.84 146.34 414.73 133.08 414.73 133.08 446.28" fill="none" stroke="#283331" stroke-miterlimit="10"/>
      <line x1="133.08" y1="432.89" x2="146.34" y2="432.89" fill="none" stroke="#283331" stroke-miterlimit="10" stroke-width=".25"/>
      <line x1="133.08" y1="435.27" x2="146.34" y2="435.27" fill="none" stroke="#283331" stroke-miterlimit="10" stroke-width=".25"/>
      <line x1="133.08" y1="437.64" x2="146.34" y2="437.64" fill="none" stroke="#283331" stroke-miterlimit="10" stroke-width=".25"/>
      <line x1="133.08" y1="440.01" x2="146.34" y2="440.01" fill="none" stroke="#283331" stroke-miterlimit="10" stroke-width=".25"/>
      <line x1="133.08" y1="442.38" x2="146.34" y2="442.38" fill="none" stroke="#283331" stroke-miterlimit="10" stroke-width=".25"/>
      <line x1="133.08" y1="444.76" x2="146.34" y2="444.76" fill="none" stroke="#283331" stroke-miterlimit="10" stroke-width=".25"/>
    </g>
    <g>
      <polygon points="159.5 154.15 164.7 167.42 177.66 167.42 177.66 154.15 159.5 154.15" fill="#5c5a5a"/>
      <polyline points="146.55 167.42 177.66 167.42 177.66 154.15 146.11 154.15" fill="none" stroke="#283331" stroke-miterlimit="10"/>
      <line x1="159.5" y1="154.15" x2="159.5" y2="167.42" fill="none" stroke="#283331" stroke-miterlimit="10" stroke-width=".25"/>
      <line x1="157.12" y1="154.15" x2="157.12" y2="167.42" fill="none" stroke="#283331" stroke-miterlimit="10" stroke-width=".25"/>
      <line x1="154.75" y1="154.15" x2="154.75" y2="167.42" fill="none" stroke="#283331" stroke-miterlimit="10" stroke-width=".25"/>
      <line x1="152.38" y1="154.15" x2="152.38" y2="167.42" fill="none" stroke="#283331" stroke-miterlimit="10" stroke-width=".25"/>
      <line x1="150.01" y1="154.15" x2="150.01" y2="167.42" fill="none" stroke="#283331" stroke-miterlimit="10" stroke-width=".25"/>
      <line x1="147.63" y1="154.15" x2="147.63" y2="167.42" fill="none" stroke="#283331" stroke-miterlimit="10" stroke-width=".25"/>
    </g>
    <g>
      <polygon points="644.64 408.25 631.37 413.45 631.37 426.41 644.64 426.41 644.64 408.25" fill="#5c5a5a"/>
      <polyline points="631.37 395.3 631.37 426.41 644.64 426.41 644.64 394.86" fill="none" stroke="#283331" stroke-miterlimit="10"/>
      <line x1="644.64" y1="408.25" x2="631.37" y2="408.25" fill="none" stroke="#283331" stroke-miterlimit="10" stroke-width=".25"/>
      <line x1="644.64" y1="405.87" x2="631.37" y2="405.87" fill="none" stroke="#283331" stroke-miterlimit="10" stroke-width=".25"/>
      <line x1="644.64" y1="403.5" x2="631.37" y2="403.5" fill="none" stroke="#283331" stroke-miterlimit="10" stroke-width=".25"/>
      <line x1="644.64" y1="401.13" x2="631.37" y2="401.13" fill="none" stroke="#283331" stroke-miterlimit="10" stroke-width=".25"/>
      <line x1="644.64" y1="398.76" x2="631.37" y2="398.76" fill="none" stroke="#283331" stroke-miterlimit="10" stroke-width=".25"/>
      <line x1="644.64" y1="396.38" x2="631.37" y2="396.38" fill="none" stroke="#283331" stroke-miterlimit="10" stroke-width=".25"/>
    </g>
    <g>
      <polygon points="333.62 424.21 326.68 421.41 321.57 426.55 326.46 431.41 333.62 424.21" fill="#5c5a5a"/>
      <polyline points="333.84 414.21 321.57 426.55 326.46 431.41 338.9 418.9" fill="none" stroke="#283331" stroke-miterlimit="10"/>
      <line x1="333.62" y1="424.21" x2="328.73" y2="419.35" fill="none" stroke="#283331" stroke-miterlimit="10" stroke-width=".25"/>
      <line x1="334.56" y1="423.27" x2="329.67" y2="418.4" fill="none" stroke="#283331" stroke-miterlimit="10" stroke-width=".25"/>
      <line x1="335.49" y1="422.32" x2="330.61" y2="417.46" fill="none" stroke="#283331" stroke-miterlimit="10" stroke-width=".25"/>
      <line x1="336.43" y1="421.38" x2="331.54" y2="416.52" fill="none" stroke="#283331" stroke-miterlimit="10" stroke-width=".25"/>
      <line x1="337.37" y1="420.44" x2="332.48" y2="415.58" fill="none" stroke="#283331" stroke-miterlimit="10" stroke-width=".25"/>
      <line x1="338.3" y1="419.5" x2="333.41" y2="414.64" fill="none" stroke="#283331" stroke-miterlimit="10" stroke-width=".25"/>
    </g>
    <g>
      <polygon points="479.87 316.86 466.61 322.07 466.61 335.02 479.87 335.02 479.87 316.86" fill="#5c5a5a"/>
      <polyline points="466.61 303.92 466.61 335.02 479.87 335.02 479.87 303.48" fill="none" stroke="#283331" stroke-miterlimit="10"/>
      <line x1="479.87" y1="316.86" x2="466.61" y2="316.86" fill="none" stroke="#283331" stroke-miterlimit="10" stroke-width=".25"/>
      <line x1="479.87" y1="314.49" x2="466.61" y2="314.49" fill="none" stroke="#283331" stroke-miterlimit="10" stroke-width=".25"/>
      <line x1="479.87" y1="312.12" x2="466.61" y2="312.12" fill="none" stroke="#283331" stroke-miterlimit="10" stroke-width=".25"/>
      <line x1="479.87" y1="309.75" x2="466.61" y2="309.75" fill="none" stroke="#283331" stroke-miterlimit="10" stroke-width=".25"/>
      <line x1="479.87" y1="307.37" x2="466.61" y2="307.37" fill="none" stroke="#283331" stroke-miterlimit="10" stroke-width=".25"/>
      <line x1="479.87" y1="305" x2="466.61" y2="305" fill="none" stroke="#283331" stroke-miterlimit="10" stroke-width=".25"/>
    </g>
  </g>
  <g id="MLOC-available">
    <rect id="4-6_room107" data-name="4-6_room107" x="241.47" y="163.18" width="82.31" height="56.12" fill="#a8d7ef" stroke="#283331" stroke-miterlimit="10"/>
    <rect id="4-6_room109" data-name="4-6_room109" x="177.8" y="176.83" width="63.67" height="68.45" fill="#a8d7ef" stroke="#283331" stroke-miterlimit="10"/>
    <rect id="4-6_room110" data-name="4-6_room110" x="404.84" y="37.16" width="144.16" height="89.8" fill="#929292" stroke="#283331" stroke-miterlimit="10"/>
    <rect id="4-6_room102" data-name="4-6_room102" x="55.69" y="67.33" width="58.44" height="79.04" fill="#aaddf7" stroke="#283331" stroke-miterlimit="10"/>
    <rect id="4-6_room101" data-name="4-6_room101" x="55.69" y="163.18" width="58.44" height="82.1" fill="#aaddf7" stroke="#283331" stroke-miterlimit="10"/>
    <rect id="4-6_room103" data-name="4-6_room103" x="114.13" y="50.43" width="63.67" height="76.53" fill="#aaddf7" stroke="#283331" stroke-miterlimit="10"/>
    <rect id="4-6_room104" data-name="4-6_room104" x="177.8" y="50.43" width="63.67" height="76.53" fill="#aaddf7" stroke="#283331" stroke-miterlimit="10"/>
    <rect id="4-6_room105" data-name="4-6_room105" x="241.47" y="65.99" width="63.67" height="76.53" fill="#aaddf7" stroke="#283331" stroke-miterlimit="10"/>
    <polyline id="4-6_room120" data-name="4-6_room120" points="506.37 206.55 616.58 206.55 616.58 372.27 506.37 372.27 506.37 206.55" fill="#929292" stroke="#283331" stroke-miterlimit="10"/>
  </g>
  <g id="MNOINT-words">
    <text transform="translate(407.9 50.43)" fill="#231815" font-family="HiraginoSans-W5-83pv-RKSJ-H, &apos;Hiragino Sans&apos;" font-size="12"><tspan x="0" y="0">110</tspan></text>
    <text transform="translate(229.73 364.16)" fill="#231815" font-family="HiraginoSans-W5-83pv-RKSJ-H, &apos;Hiragino Sans&apos;" font-size="15"><tspan x="0" y="0">学生サポートセンター</tspan></text>
    <text id="EV" transform="translate(549.02 124.22)" fill="#231815" font-family="HiraginoSans-W5-83pv-RKSJ-H, &apos;Hiragino Sans&apos;" font-size="12"><tspan x="0" y="0">EV</tspan></text>
    <text transform="translate(508.35 219.31)" fill="#231815" font-family="HiraginoSans-W5-83pv-RKSJ-H, &apos;Hiragino Sans&apos;" font-size="12"><tspan x="0" y="0">120</tspan></text>
    <text transform="translate(38.93 393.29)" fill="#231815" font-family="HiraginoSans-W5-83pv-RKSJ-H, &apos;Hiragino Sans&apos;" font-size="20"><tspan x="0" y="0">A</tspan><tspan x="15.68" y="0" letter-spacing=".25em">V</tspan><tspan x="35.82" y="0">棟</tspan></text>
    <text transform="translate(241.47 77.64)" fill="#231815" font-family="HiraginoSans-W5-83pv-RKSJ-H, &apos;Hiragino Sans&apos;" font-size="12"><tspan x="0" y="0">105</tspan></text>
    <text transform="translate(177.8 62.21)" fill="#231815" font-family="HiraginoSans-W5-83pv-RKSJ-H, &apos;Hiragino Sans&apos;" font-size="12"><tspan x="0" y="0">104</tspan></text>
    <text transform="translate(177.8 189.13)" fill="#231815" font-family="HiraginoSans-W5-83pv-RKSJ-H, &apos;Hiragino Sans&apos;" font-size="12"><tspan x="0" y="0">109</tspan></text>
    <text transform="translate(55.69 174.69)" fill="#231815" font-family="HiraginoSans-W5-83pv-RKSJ-H, &apos;Hiragino Sans&apos;" font-size="12"><tspan x="0" y="0">101</tspan></text>
    <text transform="translate(55.68 77.78)" fill="#231815" font-family="HiraginoSans-W5-83pv-RKSJ-H, &apos;Hiragino Sans&apos;" font-size="12"><tspan x="0" y="0">102</tspan></text>
    <text transform="translate(114.13 62.35)" fill="#231815" font-family="HiraginoSans-W5-83pv-RKSJ-H, &apos;Hiragino Sans&apos;" font-size="12"><tspan x="0" y="0">103</tspan></text>
    <text transform="translate(242.85 174.69)" fill="#231815" font-family="HiraginoSans-W5-83pv-RKSJ-H, &apos;Hiragino Sans&apos;" font-size="12"><tspan x="0" y="0">107</tspan></text>
    <text transform="translate(305.33 77.64)" fill="#231815" font-family="HiraginoSans-W5-83pv-RKSJ-H, &apos;Hiragino Sans&apos;" font-size="12"><tspan x="0" y="0">106</tspan></text>
    <text transform="translate(323.53 259.51)" fill="#231815" font-family="HiraginoSans-W5-83pv-RKSJ-H, &apos;Hiragino Sans&apos;" font-size="20"><tspan x="0" y="0">中庭</tspan></text>
    <text transform="translate(59.56 111.32)" fill="#231815" font-family="HiraginoSans-W6-83pv-RKSJ-H, &apos;Hiragino Sans&apos;" font-size="11"><tspan x="0" y="0">法学</tspan><tspan x="22" y="0" letter-spacing=".25em">科</tspan><tspan x="35.75" y="0">22</tspan></text>
    <text transform="translate(59.17 208.78)" fill="#231815" font-family="HiraginoSans-W6-83pv-RKSJ-H, &apos;Hiragino Sans&apos;" font-size="11"><tspan x="0" y="0">法学</tspan><tspan x="22" y="0" letter-spacing=".25em">科</tspan><tspan x="35.75" y="0">21</tspan></text>
    <text transform="translate(119.36 94.78)" fill="#231815" font-family="HiraginoSans-W6-83pv-RKSJ-H, &apos;Hiragino Sans&apos;" font-size="11"><tspan x="0" y="0">法学</tspan><tspan x="22" y="0" letter-spacing=".25em">科</tspan><tspan x="35.75" y="0">23</tspan></text>
    <text transform="translate(183.04 94.84)" fill="#231815" font-family="HiraginoSans-W6-83pv-RKSJ-H, &apos;Hiragino Sans&apos;" font-size="11"><tspan x="0" y="0">法学</tspan><tspan x="22" y="0" letter-spacing=".25em">科</tspan><tspan x="35.75" y="0">24</tspan></text>
    <text transform="translate(246.81 109.47)" fill="#231815" font-family="HiraginoSans-W6-83pv-RKSJ-H, &apos;Hiragino Sans&apos;" font-size="11"><tspan x="0" y="0">法学</tspan><tspan x="22" y="0" letter-spacing=".25em">科</tspan><tspan x="35.75" y="0">25</tspan></text>
    <text transform="translate(253.18 197.84)" fill="#231815" font-family="HiraginoSans-W6-83pv-RKSJ-H, &apos;Hiragino Sans&apos;" font-size="10"><tspan x="0" y="0">人文学</tspan><tspan x="30" y="0" letter-spacing=".25em">科</tspan><tspan x="42.5" y="0">14</tspan></text>
    <text transform="translate(181.48 216.48)" fill="#231815" font-family="HiraginoSans-W6-83pv-RKSJ-H, &apos;Hiragino Sans&apos;" font-size="10"><tspan x="0" y="0">人文学</tspan><tspan x="30" y="0" letter-spacing=".25em">科</tspan><tspan x="42.5" y="0">15</tspan></text>
  </g>
</svg>