<?xml version="1.0" encoding="UTF-8"?>
<svg xmlns="http://www.w3.org/2000/svg" width="660" height="490" viewBox="0 0 660 490">
  <g id="_背景" data-name="背景">
    <polyline id="base" points="0 0 660 0 660 490 0 490" fill="#dcdddd"/>
  </g>
  <g id="_男性用トイレ" data-name="男性用トイレ">
    <polyline points="386.47 126.96 404.84 126.96 404.84 37.16 386.47 37.16 386.47 126.96" fill="#54c3f1" stroke="#283331" stroke-miterlimit="10"/>
    <polyline points="378.82 410.63 378.82 434.1 394.13 434.1 394.13 410.63 378.82 410.63" fill="#54c3f1" stroke="#283331" stroke-miterlimit="10"/>
  </g>
  <g id="_女性用トイレ" data-name="女性用トイレ">
    <polyline points="368.81 142.52 386.47 142.52 386.47 37.16 368.81 37.16 368.81 142.52" fill="#f19899" stroke="#283331" stroke-miterlimit="10"/>
    <rect x="394.13" y="410.63" width="13.78" height="23.47" fill="#f19899" stroke="#283331" stroke-miterlimit="10"/>
  </g>
  <g id="_使用不可能教室等" data-name="使用不可能教室等">
    <rect x="305.14" y="65.99" width="63.67" height="76.53" fill="#929292" stroke="#283331" stroke-miterlimit="10"/>
    <polyline points="506.37 393.29 561.79 393.29 561.79 372.27 506.37 372.27 506.37 393.29" fill="#929292" stroke="#283331" stroke-miterlimit="10"/>
    <polyline points="561.79 393.29 616.58 393.29 616.58 372.27 561.79 372.27 561.79 393.29" fill="#929292" stroke="#283331" stroke-miterlimit="10"/>
    <polyline points="516 206.55 616.58 206.55 616.58 176.83 529.33 176.83 516 190.16 516 206.55" fill="#929292" stroke="#283331" stroke-miterlimit="10"/>
    <polyline points="209.64 393.29 401.02 393.29 401.02 320.74 209.64 320.74 209.64 393.29" fill="#929292" stroke="#283331" stroke-miterlimit="10"/>
    <polyline points="401.02 393.29 479.87 393.29 479.87 335.02 401.02 335.02 401.02 393.29" fill="#929292" stroke="#283331" stroke-miterlimit="10"/>
    <polyline points="209.64 411.65 209.64 434.1 264.03 434.1 264.03 411.65 209.64 411.65" fill="#929292" stroke="#283331" stroke-miterlimit="10"/>
    <polyline points="114.13 320.74 15.36 320.74 15.36 452.84 114.13 452.84 114.13 320.74" fill="#929292" stroke="#283331" stroke-miterlimit="10"/>
    <polyline points="407.9 410.63 616.58 410.63 616.58 434.1 407.9 434.1 407.9 410.63" fill="#929292" stroke="#283331" stroke-miterlimit="10"/>
  </g>
  <g id="_廊下" data-name="廊下">
    <polygon points="386.47 142.52 386.47 126.96 565.56 126.96 565.56 111.14 549 111.14 549 37.16 631.37 37.16 631.37 120.84 615.05 120.84 615.05 126.96 582.63 163.18 582.63 176.83 529.33 176.83 516 190.16 516 206.55 506.37 206.55 506.37 393.29 616.58 393.29 616.58 410.63 378.82 410.63 378.82 434.1 264.03 434.1 264.03 411.65 209.64 411.65 209.64 393.29 479.87 393.29 479.87 199.92 494.64 176.83 494.64 151.9 485.87 143.13 386.47 142.52" fill="#b5b5b6" stroke="#283331" stroke-miterlimit="10"/>
    <polygon points="55.69 163.18 55.69 145.02 114.13 145.02 114.13 126.96 241.47 126.96 241.47 142.52 485.87 143.13 490.08 147.34 474.74 163.18 241.47 163.18 241.47 176.83 114.13 176.83 114.13 163.18 55.69 163.18" fill="#b5b5b6" stroke="#283331" stroke-miterlimit="10"/>
    <polygon points="114.13 176.83 114.13 414.73 209.64 414.73 209.64 387.07 145.97 387.07 145.97 176.83 114.13 176.83" fill="#c9caca" stroke="#283331" stroke-miterlimit="10"/>
    <g id="_矢印" data-name="矢印">
      <path d="m607.47,151.64l-.44-5.53-1.91,2.24-11.19-9.55-1.27,1.49,11.19,9.55-1.91,2.24,5.53-.44Z" fill="#040000"/>
      <path d="m591.97,138.41l.44,5.53,1.91-2.24,11.19,9.55,1.27-1.49-11.19-9.55,1.91-2.24-5.53.44Z" fill="#040000"/>
    </g>
    <g id="_矢印-2" data-name="矢印">
      <path d="m413.13,152.71l4-3.84-2.94-.06.29-14.71-1.96-.04-.29,14.71-2.94-.06,3.84,4Z" fill="#040000"/>
      <path d="m413.53,132.33l-4,3.84,2.94.06-.29,14.71,1.96.04.29-14.71,2.94.06-3.84-4Z" fill="#040000"/>
    </g>
    <g id="_矢印-3" data-name="矢印">
      <path d="m483.86,165.35l3.84,4,.06-2.94,14.71.29.04-1.96-14.71-.29.06-2.94-4,3.84Z" fill="#040000"/>
      <path d="m504.23,165.76l-3.84-4-.06,2.94-14.71-.29-.04,1.96,14.71.29-.06,2.94,4-3.84Z" fill="#040000"/>
    </g>
    <g id="_矢印-4" data-name="矢印">
      <path d="m199.45,402.27l3.84,4,.06-2.94,14.71.29.04-1.96-14.71-.29.06-2.94-4,3.84Z" fill="#040000"/>
      <path d="m219.82,402.67l-3.84-4-.06,2.94-14.71-.29-.04,1.96,14.71.29-.06,2.94,4-3.84Z" fill="#040000"/>
    </g>
    <g id="_矢印-5" data-name="矢印">
      <path d="m273.51,423.92l-4,3.84,2.94.06-.29,14.71,1.96.04.29-14.71,2.94.06-3.84-4Z" fill="#040000"/>
      <path d="m273.1,444.29l4-3.84-2.94-.06.29-14.71-1.96-.04-.29,14.71-2.94-.06,3.84,4Z" fill="#040000"/>
    </g>
    <g id="_矢印-6" data-name="矢印">
      <path d="m363.21,423.05l-4,3.84,2.94.06-.29,14.71,1.96.04.29-14.71,2.94.06-3.84-4Z" fill="#040000"/>
      <path d="m362.8,443.43l4-3.84-2.94-.06.29-14.71-1.96-.04-.29,14.71-2.94-.06,3.84,4Z" fill="#040000"/>
    </g>
    <g id="_矢印-7" data-name="矢印">
      <path d="m607.47,402.14l3.84,4,.06-2.94,14.71.29.04-1.96-14.71-.29.06-2.94-4,3.84Z" fill="#040000"/>
      <path d="m627.84,402.55l-3.84-4-.06,2.94-14.71-.29-.04,1.96,14.71.29-.06,2.94,4-3.84Z" fill="#040000"/>
    </g>
  </g>
  <g id="_トイレマーク" data-name="トイレマーク">
    <g>
      <path d="m400.1,417.94c1.77,0,3.21-1.44,3.21-3.21s-1.44-3.21-3.21-3.21-3.21,1.44-3.21,3.21,1.44,3.21,3.21,3.21Z" fill="#fff"/>
      <path d="m388.15,417.94c1.77,0,3.21-1.44,3.21-3.21s-1.44-3.21-3.21-3.21-3.21,1.44-3.21,3.21,1.44,3.21,3.21,3.21Z" fill="#fff"/>
      <path d="m404.97,430.4l-4.4-10.36c-.08-.19-.26-.31-.47-.31s-.39.12-.47.31l-4.4,10.36c-.27.62-.2,1.34.17,1.91.37.57,1.01.91,1.69.91h6.02c.68,0,1.31-.34,1.69-.91.37-.57.44-1.28.17-1.91Z" fill="#fff"/>
      <path d="m391.16,419.73h-6.02c-.68,0-1.31.34-1.69.91-.37.57-.44,1.28-.17,1.91l4.4,10.36c.08.19.26.31.47.31s.39-.12.47-.31l4.4-10.36c.27-.62.2-1.34-.17-1.91-.37-.57-1.01-.91-1.69-.91Z" fill="#fff"/>
    </g>
    <g>
      <path d="m395.89,79.65c1.77,0,3.21-1.44,3.21-3.21s-1.44-3.21-3.21-3.21-3.21,1.44-3.21,3.21,1.44,3.21,3.21,3.21Z" fill="#fff"/>
      <path d="m398.9,81.43h-6.02c-.68,0-1.31.34-1.69.91-.37.57-.44,1.28-.17,1.91l4.4,10.36c.08.19.26.31.47.31s.39-.12.47-.31l4.4-10.36c.27-.62.2-1.34-.17-1.91-.37-.57-1.01-.91-1.69-.91Z" fill="#fff"/>
    </g>
    <g>
      <path d="m377.64,79.65c1.77,0,3.21-1.44,3.21-3.21s-1.44-3.21-3.21-3.21-3.21,1.44-3.21,3.21,1.44,3.21,3.21,3.21Z" fill="#fff"/>
      <path d="m382.51,92.1l-4.4-10.36c-.08-.19-.26-.31-.47-.31s-.39.12-.47.31l-4.4,10.36c-.27.62-.2,1.34.17,1.91.37.57,1.01.91,1.69.91h6.02c.68,0,1.31-.34,1.69-.91.37-.57.44-1.28.17-1.91Z" fill="#fff"/>
    </g>
  </g>
  <g id="_階段" data-name="階段">
    <g>
      <polygon points="549 55.59 562.27 50.39 562.27 37.43 549 37.43 549 55.59" fill="#5c5a5a"/>
      <polyline points="562.27 68.54 562.27 37.43 549 37.43 549 68.98" fill="none" stroke="#283331" stroke-miterlimit="10"/>
      <line x1="549" y1="55.59" x2="562.27" y2="55.59" fill="none" stroke="#283331" stroke-miterlimit="10" stroke-width=".25"/>
      <line x1="549" y1="57.97" x2="562.27" y2="57.97" fill="none" stroke="#283331" stroke-miterlimit="10" stroke-width=".25"/>
      <line x1="549" y1="60.34" x2="562.27" y2="60.34" fill="none" stroke="#283331" stroke-miterlimit="10" stroke-width=".25"/>
      <line x1="549" y1="62.71" x2="562.27" y2="62.71" fill="none" stroke="#283331" stroke-miterlimit="10" stroke-width=".25"/>
      <line x1="549" y1="65.09" x2="562.27" y2="65.09" fill="none" stroke="#283331" stroke-miterlimit="10" stroke-width=".25"/>
      <line x1="549" y1="67.46" x2="562.27" y2="67.46" fill="none" stroke="#283331" stroke-miterlimit="10" stroke-width=".25"/>
    </g>
    <g>
      <polygon points="133.08 432.89 146.34 427.69 146.34 414.73 133.08 414.73 133.08 432.89" fill="#5c5a5a"/>
      <polyline points="146.34 445.84 146.34 414.73 133.08 414.73 133.08 446.28" fill="none" stroke="#283331" stroke-miterlimit="10"/>
      <line x1="133.08" y1="432.89" x2="146.34" y2="432.89" fill="none" stroke="#283331" stroke-miterlimit="10" stroke-width=".25"/>
      <line x1="133.08" y1="435.27" x2="146.34" y2="435.27" fill="none" stroke="#283331" stroke-miterlimit="10" stroke-width=".25"/>
      <line x1="133.08" y1="437.64" x2="146.34" y2="437.64" fill="none" stroke="#283331" stroke-miterlimit="10" stroke-width=".25"/>
      <line x1="133.08" y1="440.01" x2="146.34" y2="440.01" fill="none" stroke="#283331" stroke-miterlimit="10" stroke-width=".25"/>
      <line x1="133.08" y1="442.38" x2="146.34" y2="442.38" fill="none" stroke="#283331" stroke-miterlimit="10" stroke-width=".25"/>
      <line x1="133.08" y1="444.76" x2="146.34" y2="444.76" fill="none" stroke="#283331" stroke-miterlimit="10" stroke-width=".25"/>
    </g>
    <g>
      <polygon points="159.5 154.15 164.7 167.42 177.66 167.42 177.66 154.15 159.5 154.15" fill="#5c5a5a"/>
      <polyline points="146.55 167.42 177.66 167.42 177.66 154.15 146.11 154.15" fill="none" stroke="#283331" stroke-miterlimit="10"/>
      <line x1="159.5" y1="154.15" x2="159.5" y2="167.42" fill="none" stroke="#283331" stroke-miterlimit="10" stroke-width=".25"/>
      <line x1="157.12" y1="154.15" x2="157.12" y2="167.42" fill="none" stroke="#283331" stroke-miterlimit="10" stroke-width=".25"/>
      <line x1="154.75" y1="154.15" x2="154.75" y2="167.42" fill="none" stroke="#283331" stroke-miterlimit="10" stroke-width=".25"/>
      <line x1="152.38" y1="154.15" x2="152.38" y2="167.42" fill="none" stroke="#283331" stroke-miterlimit="10" stroke-width=".25"/>
      <line x1="150.01" y1="154.15" x2="150.01" y2="167.42" fill="none" stroke="#283331" stroke-miterlimit="10" stroke-width=".25"/>
      <line x1="147.63" y1="154.15" x2="147.63" y2="167.42" fill="none" stroke="#283331" stroke-miterlimit="10" stroke-width=".25"/>
    </g>
    <g>
      <polygon points="644.64 408.25 631.37 413.45 631.37 426.41 644.64 426.41 644.64 408.25" fill="#5c5a5a"/>
      <polyline points="631.37 395.3 631.37 426.41 644.64 426.41 644.64 394.86" fill="none" stroke="#283331" stroke-miterlimit="10"/>
      <line x1="644.64" y1="408.25" x2="631.37" y2="408.25" fill="none" stroke="#283331" stroke-miterlimit="10" stroke-width=".25"/>
      <line x1="644.64" y1="405.87" x2="631.37" y2="405.87" fill="none" stroke="#283331" stroke-miterlimit="10" stroke-width=".25"/>
      <line x1="644.64" y1="403.5" x2="631.37" y2="403.5" fill="none" stroke="#283331" stroke-miterlimit="10" stroke-width=".25"/>
      <line x1="644.64" y1="401.13" x2="631.37" y2="401.13" fill="none" stroke="#283331" stroke-miterlimit="10" stroke-width=".25"/>
      <line x1="644.64" y1="398.76" x2="631.37" y2="398.76" fill="none" stroke="#283331" stroke-miterlimit="10" stroke-width=".25"/>
      <line x1="644.64" y1="396.38" x2="631.37" y2="396.38" fill="none" stroke="#283331" stroke-miterlimit="10" stroke-width=".25"/>
    </g>
    <g>
      <polygon points="333.62 424.21 326.68 421.41 321.57 426.55 326.46 431.41 333.62 424.21" fill="#5c5a5a"/>
      <polyline points="333.84 414.21 321.57 426.55 326.46 431.41 338.9 418.9" fill="none" stroke="#283331" stroke-miterlimit="10"/>
      <line x1="333.62" y1="424.21" x2="328.73" y2="419.35" fill="none" stroke="#283331" stroke-miterlimit="10" stroke-width=".25"/>
      <line x1="334.56" y1="423.27" x2="329.67" y2="418.4" fill="none" stroke="#283331" stroke-miterlimit="10" stroke-width=".25"/>
      <line x1="335.49" y1="422.32" x2="330.61" y2="417.46" fill="none" stroke="#283331" stroke-miterlimit="10" stroke-width=".25"/>
      <line x1="336.43" y1="421.38" x2="331.54" y2="416.52" fill="none" stroke="#283331" stroke-miterlimit="10" stroke-width=".25"/>
      <line x1="337.37" y1="420.44" x2="332.48" y2="415.58" fill="none" stroke="#283331" stroke-miterlimit="10" stroke-width=".25"/>
      <line x1="338.3" y1="419.5" x2="333.41" y2="414.64" fill="none" stroke="#283331" stroke-miterlimit="10" stroke-width=".25"/>
    </g>
    <g>
      <polygon points="479.87 316.86 466.61 322.07 466.61 335.02 479.87 335.02 479.87 316.86" fill="#5c5a5a"/>
      <polyline points="466.61 303.92 466.61 335.02 479.87 335.02 479.87 303.48" fill="none" stroke="#283331" stroke-miterlimit="10"/>
      <line x1="479.87" y1="316.86" x2="466.61" y2="316.86" fill="none" stroke="#283331" stroke-miterlimit="10" stroke-width=".25"/>
      <line x1="479.87" y1="314.49" x2="466.61" y2="314.49" fill="none" stroke="#283331" stroke-miterlimit="10" stroke-width=".25"/>
      <line x1="479.87" y1="312.12" x2="466.61" y2="312.12" fill="none" stroke="#283331" stroke-miterlimit="10" stroke-width=".25"/>
      <line x1="479.87" y1="309.75" x2="466.61" y2="309.75" fill="none" stroke="#283331" stroke-miterlimit="10" stroke-width=".25"/>
      <line x1="479.87" y1="307.37" x2="466.61" y2="307.37" fill="none" stroke="#283331" stroke-miterlimit="10" stroke-width=".25"/>
      <line x1="479.87" y1="305" x2="466.61" y2="305" fill="none" stroke="#283331" stroke-miterlimit="10" stroke-width=".25"/>
    </g>
  </g>
  <g id="MLOC-available">
    <rect id="_4-7-SD_room107" data-name="4-7-SD_room107" x="241.47" y="163.18" width="82.31" height="56.12" fill="#a8d7ef" stroke="#283331" stroke-miterlimit="10"/>
    <rect id="_4-7-SD_room109" data-name="4-7-SD_room109" x="177.8" y="176.83" width="63.67" height="68.45" fill="#a8d7ef" stroke="#283331" stroke-miterlimit="10"/>
    <rect id="_4-7-SD_room110" data-name="4-7-SD_room110" x="404.84" y="37.16" width="144.16" height="89.8" fill="#929292" stroke="#283331" stroke-miterlimit="10"/>
    <rect id="_4-7-SD_room102" data-name="4-7-SD_room102" x="55.69" y="67.33" width="58.44" height="79.04" fill="#aaddf7" stroke="#283331" stroke-miterlimit="10"/>
    <rect id="_4-7-SD_room101" data-name="4-7-SD_room101" x="55.69" y="163.18" width="58.44" height="82.1" fill="#aaddf7" stroke="#283331" stroke-miterlimit="10"/>
    <rect id="_4-7-SD_room103" data-name="4-7-SD_room103" x="114.13" y="50.43" width="63.67" height="76.53" fill="#aaddf7" stroke="#283331" stroke-miterlimit="10"/>
    <rect id="_4-7-SD_room104" data-name="4-7-SD_room104" x="177.8" y="50.43" width="63.67" height="76.53" fill="#aaddf7" stroke="#283331" stroke-miterlimit="10"/>
    <rect id="_4-7-SD_room105" data-name="4-7-SD_room105" x="241.47" y="65.99" width="63.67" height="76.53" fill="#aaddf7" stroke="#283331" stroke-miterlimit="10"/>
    <polyline id="_4-7-SD_room120" data-name="4-7-SD_room120" points="506.37 206.55 616.58 206.55 616.58 372.27 506.37 372.27 506.37 206.55" fill="#929292" stroke="#283331" stroke-miterlimit="10"/>
  </g>
  <g id="MNOINT-words">
    <text transform="translate(407.9 50.43)" fill="#231815" font-family="HiraginoSans-W5-83pv-RKSJ-H, &apos;Hiragino Sans&apos;" font-size="12"><tspan x="0" y="0">110</tspan></text>
    <text transform="translate(229.73 364.16)" fill="#231815" font-family="HiraginoSans-W5-83pv-RKSJ-H, &apos;Hiragino Sans&apos;" font-size="15"><tspan x="0" y="0">学生サポートセンター</tspan></text>
    <text id="EV" transform="translate(549.02 124.22)" fill="#231815" font-family="HiraginoSans-W5-83pv-RKSJ-H, &apos;Hiragino Sans&apos;" font-size="12"><tspan x="0" y="0">EV</tspan></text>
    <text transform="translate(508.35 219.31)" fill="#231815" font-family="HiraginoSans-W5-83pv-RKSJ-H, &apos;Hiragino Sans&apos;" font-size="12"><tspan x="0" y="0">120</tspan></text>
    <text transform="translate(38.93 393.29)" fill="#231815" font-family="HiraginoSans-W5-83pv-RKSJ-H, &apos;Hiragino Sans&apos;" font-size="20"><tspan x="0" y="0">A</tspan><tspan x="15.68" y="0" letter-spacing=".25em">V</tspan><tspan x="35.82" y="0">棟</tspan></text>
    <text transform="translate(241.47 77.64)" fill="#231815" font-family="HiraginoSans-W5-83pv-RKSJ-H, &apos;Hiragino Sans&apos;" font-size="12"><tspan x="0" y="0">105</tspan></text>
    <text transform="translate(177.8 62.21)" fill="#231815" font-family="HiraginoSans-W5-83pv-RKSJ-H, &apos;Hiragino Sans&apos;" font-size="12"><tspan x="0" y="0">104</tspan></text>
    <text transform="translate(177.8 189.13)" fill="#231815" font-family="HiraginoSans-W5-83pv-RKSJ-H, &apos;Hiragino Sans&apos;" font-size="12"><tspan x="0" y="0">109</tspan></text>
    <text transform="translate(55.69 174.69)" fill="#231815" font-family="HiraginoSans-W5-83pv-RKSJ-H, &apos;Hiragino Sans&apos;" font-size="12"><tspan x="0" y="0">101</tspan></text>
    <text transform="translate(55.68 77.78)" fill="#231815" font-family="HiraginoSans-W5-83pv-RKSJ-H, &apos;Hiragino Sans&apos;" font-size="12"><tspan x="0" y="0">102</tspan></text>
    <text transform="translate(114.13 62.35)" fill="#231815" font-family="HiraginoSans-W5-83pv-RKSJ-H, &apos;Hiragino Sans&apos;" font-size="12"><tspan x="0" y="0">103</tspan></text>
    <text transform="translate(242.85 174.69)" fill="#231815" font-family="HiraginoSans-W5-83pv-RKSJ-H, &apos;Hiragino Sans&apos;" font-size="12"><tspan x="0" y="0">107</tspan></text>
    <text transform="translate(305.33 77.64)" fill="#231815" font-family="HiraginoSans-W5-83pv-RKSJ-H, &apos;Hiragino Sans&apos;" font-size="12"><tspan x="0" y="0">106</tspan></text>
    <text transform="translate(323.53 259.51)" fill="#231815" font-family="HiraginoSans-W5-83pv-RKSJ-H, &apos;Hiragino Sans&apos;" font-size="20"><tspan x="0" y="0">中庭</tspan></text>
    <text transform="translate(60.42 107.25)" fill="#231815" font-family="HiraginoSans-W6-83pv-RKSJ-H, &apos;Hiragino Sans&apos;" font-size="10"><tspan x="0" y="0">情報科学科</tspan><tspan x="17.88" y="17.5">61</tspan></text>
    <text transform="translate(56.22 197.69)" fill="#231815" font-family="HiraginoSans-W6-83pv-RKSJ-H, &apos;Hiragino Sans&apos;" font-size="7"><tspan x="0" y="0">インダストリアル</tspan><tspan x="10.5" y="12.25">アート学科</tspan><tspan x="23.02" y="24.5">65</tspan></text>
    <text transform="translate(118.43 84.53)" fill="#231815" font-family="HiraginoSans-W6-83pv-RKSJ-H, &apos;Hiragino Sans&apos;" font-size="7"><tspan x="0" y="0">電子情報システム</tspan><tspan x="17.5" y="12.25">工学科</tspan><tspan x="23.02" y="24.5">67</tspan></text>
    <text transform="translate(181.56 84.1)" fill="#231815" font-family="HiraginoSans-W6-83pv-RKSJ-H, &apos;Hiragino Sans&apos;" font-size="7"><tspan x="0" y="0">電子情報システム</tspan><tspan x="17.5" y="12.25">工学科</tspan><tspan x="23.02" y="24.5">62</tspan></text>
    <g>
      <path d="m256.65,86.16c-.26.42-.37.59-.68.98.1.1.11.13.22.25.17-.23.24-.35.5-.77l.58.42q-.17.21-.56.72c-.22.27-.39.47-.64.72.24-.02.33-.02.58-.05-.05-.13-.07-.18-.14-.31l.5-.18c.2.42.29.63.47,1.26l-.56.18c-.04-.18-.06-.23-.09-.38-.16.02-.35.05-.58.07.18.12.2.13.42.33l-.3.29h.18c.48,0,.62,0,.84-.05v.84c-.24-.03-.53-.05-.84-.05h-.27l.62.39c-.31.41-.54.66-.87.96.23.32.44.5.56.5.14,0,.22-.22.3-.97.19.2.38.34.61.44-.09.58-.18.9-.33,1.13-.11.18-.27.26-.52.26-.4,0-.77-.26-1.22-.86-.58.41-1.03.65-1.75.9-.14-.3-.22-.44-.46-.71.72-.18,1.23-.39,1.84-.79-.18-.38-.28-.66-.41-1.23h-1.06c0,.13,0,.16-.02.26.26.3.47.45.89.67-.1.14-.15.22-.22.35q-.11.2-.17.3c-.26-.16-.47-.34-.66-.56-.21.7-.47,1.13-.99,1.66-.22-.26-.32-.34-.64-.58.63-.47.96-1.13,1.04-2.11-.3,0-.44.02-.6.03v-.81c.19.02.32.03.66.03h1.65c-.03-.23-.04-.3-.06-.45l-.45.16c-.02-.14-.02-.18-.03-.27-.21.03-.34.06-.56.09-.62.08-1.03.14-1.14.16l-.03-.25c-.12.23-.17.35-.23.56-.15-.24-.26-.46-.38-.74.02.22.03.7.03.98v2.3c0,.5,0,.78.04.98h-.87c.03-.22.05-.57.05-.98v-1.41c0-.36.02-.65.06-1.32-.24.84-.45,1.37-.7,1.79-.1-.37-.22-.66-.38-.88.22-.34.34-.6.6-1.27.08-.21.14-.4.33-1.08h-.19c-.2,0-.4.02-.54.03v-.86c.14.03.26.04.54.04h.27v-.66c0-.38,0-.63-.04-.84h.86c-.02.19-.03.41-.03.83v.67h.14c.17,0,.31,0,.41-.02-.06-.06-.09-.08-.18-.16l.46-.55.18.17c.25-.35.38-.61.51-.95l.66.33c-.26.48-.41.73-.7,1.12.08.1.11.14.19.25.22-.33.27-.42.42-.75l.57.38v-.38c0-.55-.02-.67-.06-.91h.88c-.04.15-.05.29-.05.54,0,.02,0,.13,0,.26v.25l.25-.34c.1.09.15.14.18.17.22-.29.36-.55.49-.87l.66.36Zm-4.4,1.93c-.2-.02-.29-.03-.46-.03h-.11c.12.3.25.5.49.78l-.02-.18c.06,0,.09,0,.12,0h.14c.27-.31.36-.42.5-.62-.24-.31-.41-.5-.66-.74v.78Zm1.91-.03c.11.25.15.34.21.53-.05-.67-.06-1.04-.06-1.4-.1.14-.12.18-.18.26-.3.45-.65.9-.91,1.18q.31-.02.58-.06c-.06-.13-.07-.18-.14-.34l.5-.16Zm.92-.85q0,.73.04,1.3h.11q.31-.33.51-.58c-.21-.28-.4-.49-.66-.72Zm.8,1.9c-.07,0-.12.02-.15.02q-.14.02-.34.04s-.09,0-.2.02c.02.18.02.21.06.5h.9c-.18-.18-.28-.24-.5-.34l.24-.23Zm-.5,1.32c.06.3.12.46.26.75.38-.35.49-.49.61-.75h-.86Z" fill="#231815"/>
      <path d="m260.39,89.44c-.02.06-.04.1-.05.12-.1.21-.12.23-.18.38-.12-.22-.31-.6-.42-.84.02.23.03.54.03,1.06v2.04c0,.42.02.74.05.98h-.9c.03-.25.05-.58.05-.98v-1.61s.02-.4.06-1.07c-.21.8-.42,1.3-.77,1.86-.1-.36-.21-.58-.39-.88.46-.66.84-1.62,1.01-2.5h-.23c-.19,0-.38.02-.54.04v-.85c.15.02.3.03.57.03h.29v-.63c0-.42,0-.62-.04-.82h.9c-.03.22-.04.44-.04.82v.63h.1c.22,0,.32,0,.48-.03v.84c-.15-.02-.28-.03-.46-.03h-.08c.16.43.37.78.74,1.18l-.1.14c.09,0,.19.02.31.02,0-.17,0-.3,0-.47,0-.39,0-.54-.04-.7h.78q-.03.19-.04,1.17h.36v-.59c0-.28,0-.42-.03-.58h.77c-.03.18-.04.34-.04.59v.58c.22,0,.3,0,.44-.03v.82c-.17-.02-.26-.02-.44-.02v.96c0,.3,0,.46.03.64h-.76c.02-.25.03-.39.03-.64v-.96h-.39c-.09,1.18-.28,1.81-.78,2.49-.18-.22-.37-.4-.62-.58.23-.26.37-.49.47-.81.14-.38.18-.6.22-1.1-.16,0-.23.02-.34.03v-.7Zm4.93-.73c-.07.14-.1.22-.21.51-.23.61-.51,1.17-.91,1.78.18.54.44,1.09.52,1.09.02,0,.06-.1.09-.21.04-.18.06-.47.07-.85.3.25.44.35.63.46-.06.61-.13.96-.24,1.2-.11.25-.3.4-.49.4-.4,0-.78-.44-1.14-1.34-.45.54-.78.84-1.49,1.34-.31-.38-.34-.41-.65-.65.82-.46,1.3-.87,1.85-1.6-.18-.78-.26-1.48-.34-2.99h-1.54c-.38,0-.64,0-.88.04v-.88c.24.02.5.04.87.04h1.52q0-.17-.02-.79c0-.18-.02-.33-.04-.48h.89c-.02.14-.03.24-.03.39,0,.16,0,.4.02.88h.88c-.25-.33-.48-.57-.81-.82l.5-.46c.34.24.55.44.85.79l-.54.49c.26,0,.38-.02.57-.05v.9c-.22-.03-.5-.05-.9-.05h-.54q0,.14,0,.48c0,.37.06,1.09.13,1.56.28-.58.47-1.14.52-1.55l.84.36Z" fill="#231815"/>
      <path d="m267.12,88.08c.82.33,1.44.64,2.13,1.09l-.5.9c-.64-.47-1.35-.86-2.17-1.18l.54-.82Zm-.36,3.58c.61,0,1.48-.2,2.31-.52.99-.38,1.67-.9,2.31-1.76.43-.58.68-1.06.93-1.77.33.34.45.45.83.71-.37.89-.7,1.44-1.2,2.02-1.02,1.17-2.37,1.88-4.34,2.27-.29.06-.4.08-.56.13l-.28-1.09Zm.98-5.52c.82.32,1.46.62,2.13,1.03l-.51.88c-.73-.49-1.44-.86-2.13-1.1l.52-.81Z" fill="#231815"/>
      <path d="m280.38,92.76c-.66-.82-1.58-1.71-2.45-2.37-.9,1.01-1.82,1.71-3.05,2.31-.22-.42-.32-.54-.65-.89.62-.24,1-.46,1.6-.88,1.21-.85,2.17-2.01,2.69-3.25l.09-.21q-.13,0-2.65.05c-.38,0-.6.02-.87.06l-.03-1.02c.22.04.38.05.7.05h.19l2.81-.04c.45,0,.51-.02.71-.09l.53.54c-.1.12-.17.23-.26.43-.37.86-.76,1.55-1.25,2.21.5.34.94.67,1.48,1.16q.2.18,1.17,1.11l-.77.83Z" fill="#231815"/>
      <path d="m286.33,89.23c-.04.92-.22,1.58-.56,2.15-.42.7-1.01,1.14-2.09,1.58-.2-.41-.3-.54-.65-.88.96-.3,1.56-.72,1.9-1.34.21-.37.33-.89.35-1.51h-1.95c-.54,0-.73,0-1.02.04v-.95c.3.05.48.06,1.03.06h4.68c.54,0,.73,0,1.03-.06v.95c-.29-.03-.47-.04-1.02-.04h-1.71Zm-3.21-2.93c.3.05.46.06,1.03.06h3.07c.58,0,.74,0,1.03-.06v.98c-.26-.03-.46-.04-1.02-.04h-3.1c-.56,0-.75,0-1.02.04v-.98Z" fill="#231815"/>
      <path d="m293.98,86.24c-.09.18-.1.19-.21.58-.61,2-1.07,3.33-1.58,4.56,1.26-.1,2.64-.26,3.33-.41-.09-.19-.18-.37-.38-.73-.35-.66-.5-.9-.76-1.27l.9-.35c.74,1.09,1.45,2.43,1.94,3.7l-.97.5q-.1-.33-.38-.99-.1.02-.29.06c-.81.17-2.13.34-4.53.57-.45.04-.57.06-.73.1l-.14-1.08h.21c.16,0,.35,0,.69-.02.42-1.01.74-1.91,1.16-3.22.38-1.18.53-1.74.58-2.21l1.16.22Z" fill="#231815"/>
      <path d="m263.55,101.34c-.44,0-.72.02-1.03.05v-.94c.28.03.55.05,1.04.05h4.3c.47,0,.73-.02,1.03-.05v.94c-.33-.03-.59-.05-1.02-.05h-1.76v4.28h2.14c.46,0,.77-.02,1.09-.06v.97c-.3-.04-.66-.06-1.09-.06h-5.1c-.42,0-.75.02-1.09.06v-.97c.33.04.62.06,1.1.06h2v-4.28h-1.62Z" fill="#231815"/>
      <path d="m271.11,104.95c-.42,0-.73.02-.98.05v-.89c.27.04.59.06.97.06h2.17v-.06c0-.16,0-.3-.02-.44h.34c.34-.18.61-.35.94-.65h-2.2c-.33,0-.54,0-.8.03v-.8c.24.03.46.04.81.04h2.65c.31,0,.46,0,.61-.03l.44.49q-.14.11-.29.24c-.57.49-.98.78-1.6,1.17h0s2.09,0,2.09,0c.39,0,.74-.02.98-.06v.89c-.23-.03-.58-.05-.99-.05h-2.08v1.4c0,.28-.02.39-.1.5-.14.2-.41.26-1.13.26-.1,0-.37,0-.78-.03-.09-.42-.13-.56-.26-.85.38.06.74.08.99.08.35,0,.41-.02.41-.18v-1.18h-2.17Zm.41-3.95c-.18-.35-.29-.51-.6-.9l.81-.24c.28.34.46.63.73,1.14h.85c-.14-.38-.26-.66-.49-1.01l.83-.23c.33.62.38.73.55,1.24h.68c.24-.32.52-.82.66-1.2l.86.24c-.18.34-.42.71-.6.96h.36c.54,0,.7,0,.98-.03-.02.2-.03.36-.03.66v.74c0,.22.02.42.04.61h-.87v-1.24h-5.21v1.24h-.87c.03-.18.04-.37.04-.62v-.74c0-.29,0-.46-.03-.66.36.03.41.03.94.03h.38Z" fill="#231815"/>
      <path d="m279.37,101.08c-.33.06-.46.08-.94.14-.08-.33-.14-.47-.3-.77,1.29-.14,2.25-.37,2.73-.68l.5.74s-.03,0-.13.06c-.22.09-.61.22-1.01.33v.98h.44c.27,0,.42,0,.59-.04v.86c-.18-.03-.36-.04-.61-.04h-.38c.22.46.56.84,1.1,1.25-.18.22-.3.45-.43.78-.39-.42-.55-.66-.75-1.1.02.2.02.55.04,1.04v1.57c0,.46,0,.68.05.98h-.94c.03-.3.05-.57.05-.98v-1.3c0-.18,0-.42.05-1.02-.26.74-.51,1.22-.97,1.8-.18-.42-.23-.52-.47-.83.37-.38.62-.75.9-1.3.16-.3.31-.67.38-.9h-.42c-.29,0-.47,0-.7.05v-.87c.23.04.41.05.72.05h.5v-.8Zm4.35-.34c0-.46,0-.68-.05-.93h.97c-.04.26-.05.48-.05.92v3.45c.46-.1.5-.12.75-.22l.07.94c-.22.02-.45.06-.76.14l-.06.02v1.19c0,.45,0,.69.05.94h-.97c.04-.27.05-.46.05-.95v-.99l-1.8.4c-.31.07-.58.14-.78.2l-.1-.93h.04c.22,0,.4-.04.71-.11l1.93-.43v-3.63Zm-1.95,1.51c.71.5,1,.74,1.51,1.24l-.5.71c-.63-.66-.93-.92-1.52-1.31l.51-.64Zm.27-2c.78.53,1.1.79,1.54,1.26l-.54.72c-.51-.58-.86-.88-1.51-1.32l.51-.66Z" fill="#231815"/>
      <path d="m272.1,115.79c-.21-.58-.5-.81-1.07-.81s-.98.28-1.26.83c-.2.42-.29.8-.33,1.42.43-.58.9-.8,1.71-.8s1.5.35,1.85.95c.19.31.29.73.29,1.2,0,1.26-.96,2.16-2.32,2.16-.64,0-1.23-.19-1.62-.53-.59-.51-.93-1.47-.93-2.68,0-.98.25-1.93.66-2.47.47-.64,1.11-.95,1.95-.95.69,0,1.25.21,1.64.61.21.22.33.4.5.82l-1.08.26Zm-2.49,2.79c0,.73.57,1.26,1.35,1.26.46,0,.87-.21,1.1-.56.12-.18.18-.45.18-.73,0-.79-.47-1.26-1.26-1.26s-1.37.54-1.37,1.28Z" fill="#231815"/>
      <path d="m274.7,116.82c-.25-.26-.39-.65-.39-1.06,0-1.02.86-1.67,2.23-1.67.97,0,1.68.31,2.02.87.14.22.22.51.22.8,0,.74-.42,1.29-1.15,1.5.36.05.6.15.86.38.38.3.56.72.56,1.25,0,1.19-.9,1.85-2.53,1.85-.93,0-1.57-.2-2.02-.64-.3-.29-.46-.72-.46-1.2,0-.56.22-1,.66-1.31.26-.18.46-.26.79-.32-.34-.09-.54-.21-.78-.44Zm3.22,1.98c0-.66-.52-1.06-1.38-1.06s-1.39.41-1.39,1.07.51,1.04,1.38,1.04,1.4-.38,1.4-1.05Zm-2.54-2.93c0,.58.45.95,1.18.95s1.14-.36,1.14-.94-.45-.93-1.16-.93-1.16.36-1.16.92Z" fill="#231815"/>
    </g>
    <text transform="translate(247.33 191.61)" fill="#231815" font-family="HiraginoSans-W6-83pv-RKSJ-H, &apos;Hiragino Sans&apos;" font-size="8"><tspan x="0" y="0">機械システム工学科</tspan><tspan x="30.3" y="14">63</tspan></text>
    <text transform="translate(181.43 206.93)" fill="#231815" font-family="HiraginoSans-W6-83pv-RKSJ-H, &apos;Hiragino Sans&apos;" font-size="7"><tspan x="0" y="0">航空宇宙システム</tspan><tspan x="17.5" y="12.25">工学科</tspan><tspan x="23.02" y="24.5">64</tspan></text>
  </g>
</svg>