<svg xmlns="http://www.w3.org/2000/svg" viewBox="0 0 660 490"><g id="背景"><polyline id="base" points="0 0 660 0 660 490 0 490" fill="#dcdddd"/></g><g id="男性用トイレ"><polyline points="385.66 126.18 404.02 126.18 404.02 36.39 385.66 36.39 385.66 126.18" fill="#54c3f1" stroke="#283331" stroke-miterlimit="10"/><polyline points="378 409.86 378 433.32 393.31 433.32 393.31 409.86 378 409.86" fill="#54c3f1" stroke="#283331" stroke-miterlimit="10"/></g><g id="女性用トイレ"><polyline points="368 141.74 385.66 141.74 385.66 36.39 368 36.39 368 141.74" fill="#f19899" stroke="#283331" stroke-miterlimit="10"/><rect x="393.31" y="409.85" width="13.78" height="23.47" fill="#f19899" stroke="#283331" stroke-miterlimit="10"/></g><g id="使用不可能教室等"><rect x="240.65" y="162.41" width="82.31" height="56.12" fill="#929292" stroke="#283331" stroke-miterlimit="10"/><rect x="304.32" y="65.21" width="63.67" height="76.53" fill="#929292" stroke="#283331" stroke-miterlimit="10"/><polyline points="505.55 392.51 560.97 392.51 560.97 371.49 505.55 371.49 505.55 392.51" fill="#929292" stroke="#283331" stroke-miterlimit="10"/><polyline points="560.97 392.51 615.76 392.51 615.76 371.49 560.97 371.49 560.97 392.51" fill="#929292" stroke="#283331" stroke-miterlimit="10"/><polyline points="515.18 205.77 615.76 205.77 615.76 176.05 528.51 176.05 515.18 189.38 515.18 205.77" fill="#929292" stroke="#283331" stroke-miterlimit="10"/><polyline points="208.82 392.51 400.2 392.51 400.2 319.96 208.82 319.96 208.82 392.51" fill="#929292" stroke="#283331" stroke-miterlimit="10"/><polyline points="400.2 392.51 479.05 392.51 479.05 334.25 400.2 334.25 400.2 392.51" fill="#929292" stroke="#283331" stroke-miterlimit="10"/><polyline points="208.82 410.88 208.82 433.32 263.21 433.32 263.21 410.88 208.82 410.88" fill="#929292" stroke="#283331" stroke-miterlimit="10"/><polyline points="113.31 319.96 14.54 319.96 14.54 452.06 113.31 452.06 113.31 319.96" fill="#929292" stroke="#283331" stroke-miterlimit="10"/><polyline points="407.08 409.86 615.76 409.86 615.76 433.32 407.08 433.32 407.08 409.86" fill="#929292" stroke="#283331" stroke-miterlimit="10"/></g><g id="廊下"><polygon points="385.66 141.74 385.66 126.18 564.74 126.18 564.74 110.36 548.18 110.36 548.18 36.39 630.55 36.39 630.55 120.06 614.23 120.06 614.23 126.18 581.81 162.41 581.81 176.05 528.51 176.05 515.18 189.38 515.18 205.77 505.55 205.77 505.55 392.51 615.76 392.51 615.76 409.86 378 409.86 378 433.32 263.21 433.32 263.21 410.88 208.82 410.88 208.82 392.51 479.05 392.51 479.05 199.14 493.82 176.05 493.82 151.12 485.05 142.35 385.66 141.74" fill="#b5b5b6" stroke="#283331" stroke-miterlimit="10"/><polygon points="54.87 162.41 54.87 144.25 113.31 144.25 113.31 126.18 240.65 126.18 240.65 141.74 485.05 142.35 489.26 146.56 473.92 162.41 240.65 162.41 240.65 176.05 113.31 176.05 113.31 162.41 54.87 162.41" fill="#b5b5b6" stroke="#283331" stroke-miterlimit="10"/><polygon points="113.31 176.05 113.31 413.95 208.82 413.95 208.82 386.29 145.15 386.29 145.15 176.05 113.31 176.05" fill="#c9caca" stroke="#283331" stroke-miterlimit="10"/><g id="矢印"><path d="M606.65,150.86l-.43-5.53-1.91,2.24L593.12,138l-1.28,1.49L603,149.06l-1.91,2.24Z" fill="#040000"/><path d="M591.15,137.63l.44,5.53,1.91-2.24,11.19,9.56L606,149l-11.19-9.55,1.92-2.24Z" fill="#040000"/></g><g id="矢印-2" data-name="矢印"><path d="M412.31,151.93l4-3.85-2.94-.05.29-14.71-2,0L411.41,148l-3-.06Z" fill="#040000"/><path d="M412.71,131.55l-4,3.85,3,.06-.3,14.7,2,0,.3-14.71,2.94.06Z" fill="#040000"/></g><g id="矢印-3" data-name="矢印"><path d="M483,164.58l3.84,4,.06-3,14.71.3,0-2-14.71-.3.06-2.94Z" fill="#040000"/><path d="M503.41,165l-3.84-4-.06,2.94-14.71-.29,0,2,14.71.29-.06,3Z" fill="#040000"/></g><g id="矢印-4" data-name="矢印"><path d="M198.63,401.49l3.84,4,.06-2.94,14.71.29,0-2-14.71-.29.06-2.95Z" fill="#040000"/><path d="M219,401.89l-3.85-4-.06,2.95-14.7-.3,0,2,14.7.3-.05,2.94Z" fill="#040000"/></g><g id="矢印-5" data-name="矢印"><path d="M272.69,423.14l-4,3.84,2.94.06-.29,14.71,2,0,.29-14.71,3,.06Z" fill="#040000"/><path d="M272.29,443.51l4-3.84-2.94-.06.29-14.71-2,0-.3,14.71-2.94-.06Z" fill="#040000"/></g><g id="矢印-6" data-name="矢印"><path d="M362.39,422.27l-4,3.85,2.94.06-.29,14.7,2,0,.29-14.7,2.94,0Z" fill="#040000"/><path d="M362,442.65l4-3.84-2.94-.06.3-14.71-2,0-.3,14.71-2.94-.06Z" fill="#040000"/></g><g id="矢印-7" data-name="矢印"><path d="M606.65,401.36l3.85,4,0-2.94,14.71.3,0-2-14.71-.29.06-2.94Z" fill="#040000"/><path d="M627,401.77l-3.85-4-.06,2.94-14.7-.29,0,2,14.7.29-.05,2.94Z" fill="#040000"/></g></g><g id="トイレマーク"><path d="M399.29,417.17a3.22,3.22,0,1,0-3.22-3.22A3.22,3.22,0,0,0,399.29,417.17Z" fill="#fff"/><path d="M387.33,417.17a3.22,3.22,0,1,0-3.21-3.22A3.21,3.21,0,0,0,387.33,417.17Z" fill="#fff"/><path d="M404.16,429.62l-4.41-10.36a.5.5,0,0,0-.93,0l-4.4,10.36a2,2,0,0,0,1.86,2.82h6a2,2,0,0,0,1.87-2.82Z" fill="#fff"/><path d="M390.34,419h-6a2,2,0,0,0-1.86,2.81l4.41,10.37a.5.5,0,0,0,.93,0l4.4-10.37a2,2,0,0,0-1.86-2.81Z" fill="#fff"/><path d="M395.07,78.87a3.22,3.22,0,1,0-3.21-3.22A3.22,3.22,0,0,0,395.07,78.87Z" fill="#fff"/><path d="M398.08,80.65h-6a2,2,0,0,0-1.87,2.81l4.41,10.37a.5.5,0,0,0,.93,0l4.4-10.37a2,2,0,0,0-1.86-2.81Z" fill="#fff"/><path d="M376.83,78.87a3.22,3.22,0,1,0-3.22-3.22A3.22,3.22,0,0,0,376.83,78.87Z" fill="#fff"/><path d="M381.7,91.32,377.29,81a.5.5,0,0,0-.93,0L372,91.32a2,2,0,0,0,1.86,2.82h6a2,2,0,0,0,1.87-2.82Z" fill="#fff"/></g><g id="階段"><polygon points="548.18 54.82 561.45 49.62 561.45 36.66 548.18 36.66 548.18 54.82" fill="#5c5a5a"/><polyline points="561.45 67.76 561.45 36.66 548.18 36.66 548.18 68.2" fill="none" stroke="#283331" stroke-miterlimit="10"/><line x1="548.19" y1="54.82" x2="561.45" y2="54.82" fill="none" stroke="#283331" stroke-miterlimit="10" stroke-width="0.25"/><line x1="548.19" y1="57.19" x2="561.45" y2="57.19" fill="none" stroke="#283331" stroke-miterlimit="10" stroke-width="0.25"/><line x1="548.19" y1="59.56" x2="561.45" y2="59.56" fill="none" stroke="#283331" stroke-miterlimit="10" stroke-width="0.25"/><line x1="548.19" y1="61.93" x2="561.45" y2="61.93" fill="none" stroke="#283331" stroke-miterlimit="10" stroke-width="0.25"/><line x1="548.19" y1="64.31" x2="561.45" y2="64.31" fill="none" stroke="#283331" stroke-miterlimit="10" stroke-width="0.25"/><line x1="548.19" y1="66.68" x2="561.45" y2="66.68" fill="none" stroke="#283331" stroke-miterlimit="10" stroke-width="0.25"/><polygon points="132.26 432.12 145.53 426.91 145.53 413.95 132.26 413.95 132.26 432.12" fill="#5c5a5a"/><polyline points="145.53 445.06 145.53 413.95 132.26 413.95 132.26 445.5" fill="none" stroke="#283331" stroke-miterlimit="10"/><line x1="132.26" y1="432.11" x2="145.53" y2="432.11" fill="none" stroke="#283331" stroke-miterlimit="10" stroke-width="0.25"/><line x1="132.26" y1="434.49" x2="145.53" y2="434.49" fill="none" stroke="#283331" stroke-miterlimit="10" stroke-width="0.25"/><line x1="132.26" y1="436.86" x2="145.53" y2="436.86" fill="none" stroke="#283331" stroke-miterlimit="10" stroke-width="0.25"/><line x1="132.26" y1="439.23" x2="145.53" y2="439.23" fill="none" stroke="#283331" stroke-miterlimit="10" stroke-width="0.25"/><line x1="132.26" y1="441.61" x2="145.53" y2="441.61" fill="none" stroke="#283331" stroke-miterlimit="10" stroke-width="0.25"/><line x1="132.26" y1="443.98" x2="145.53" y2="443.98" fill="none" stroke="#283331" stroke-miterlimit="10" stroke-width="0.25"/><polygon points="158.68 153.37 163.88 166.64 176.84 166.64 176.84 153.37 158.68 153.37" fill="#5c5a5a"/><polyline points="145.73 166.64 176.84 166.64 176.84 153.37 145.29 153.37" fill="none" stroke="#283331" stroke-miterlimit="10"/><line x1="158.68" y1="153.37" x2="158.68" y2="166.64" fill="none" stroke="#283331" stroke-miterlimit="10" stroke-width="0.25"/><line x1="156.31" y1="153.37" x2="156.31" y2="166.64" fill="none" stroke="#283331" stroke-miterlimit="10" stroke-width="0.25"/><line x1="153.93" y1="153.37" x2="153.93" y2="166.64" fill="none" stroke="#283331" stroke-miterlimit="10" stroke-width="0.25"/><line x1="151.56" y1="153.37" x2="151.56" y2="166.64" fill="none" stroke="#283331" stroke-miterlimit="10" stroke-width="0.25"/><line x1="149.19" y1="153.37" x2="149.19" y2="166.64" fill="none" stroke="#283331" stroke-miterlimit="10" stroke-width="0.25"/><line x1="146.81" y1="153.37" x2="146.81" y2="166.64" fill="none" stroke="#283331" stroke-miterlimit="10" stroke-width="0.25"/><polygon points="643.82 407.47 630.55 412.67 630.55 425.63 643.82 425.63 643.82 407.47" fill="#5c5a5a"/><polyline points="630.55 394.52 630.55 425.63 643.82 425.63 643.82 394.08" fill="none" stroke="#283331" stroke-miterlimit="10"/><line x1="643.82" y1="407.47" x2="630.55" y2="407.47" fill="none" stroke="#283331" stroke-miterlimit="10" stroke-width="0.25"/><line x1="643.82" y1="405.1" x2="630.55" y2="405.1" fill="none" stroke="#283331" stroke-miterlimit="10" stroke-width="0.25"/><line x1="643.82" y1="402.72" x2="630.55" y2="402.72" fill="none" stroke="#283331" stroke-miterlimit="10" stroke-width="0.25"/><line x1="643.82" y1="400.35" x2="630.55" y2="400.35" fill="none" stroke="#283331" stroke-miterlimit="10" stroke-width="0.25"/><line x1="643.82" y1="397.98" x2="630.55" y2="397.98" fill="none" stroke="#283331" stroke-miterlimit="10" stroke-width="0.25"/><line x1="643.82" y1="395.6" x2="630.55" y2="395.6" fill="none" stroke="#283331" stroke-miterlimit="10" stroke-width="0.25"/><polygon points="332.8 423.43 325.86 420.63 320.75 425.77 325.64 430.63 332.8 423.43" fill="#5c5a5a"/><polyline points="333.02 413.43 320.75 425.77 325.64 430.63 338.08 418.12" fill="none" stroke="#283331" stroke-miterlimit="10"/><line x1="332.8" y1="423.43" x2="327.92" y2="418.57" fill="none" stroke="#283331" stroke-miterlimit="10" stroke-width="0.25"/><line x1="333.74" y1="422.49" x2="328.85" y2="417.63" fill="none" stroke="#283331" stroke-miterlimit="10" stroke-width="0.25"/><line x1="334.68" y1="421.55" x2="329.79" y2="416.68" fill="none" stroke="#283331" stroke-miterlimit="10" stroke-width="0.25"/><line x1="335.61" y1="420.6" x2="330.72" y2="415.74" fill="none" stroke="#283331" stroke-miterlimit="10" stroke-width="0.25"/><line x1="336.55" y1="419.66" x2="331.66" y2="414.8" fill="none" stroke="#283331" stroke-miterlimit="10" stroke-width="0.25"/><line x1="337.48" y1="418.72" x2="332.59" y2="413.86" fill="none" stroke="#283331" stroke-miterlimit="10" stroke-width="0.25"/><polygon points="479.05 316.08 465.79 321.29 465.79 334.25 479.05 334.25 479.05 316.08" fill="#5c5a5a"/><polyline points="465.79 303.14 465.79 334.25 479.05 334.25 479.05 302.7" fill="none" stroke="#283331" stroke-miterlimit="10"/><line x1="479.05" y1="316.09" x2="465.79" y2="316.09" fill="none" stroke="#283331" stroke-miterlimit="10" stroke-width="0.25"/><line x1="479.05" y1="313.71" x2="465.79" y2="313.71" fill="none" stroke="#283331" stroke-miterlimit="10" stroke-width="0.25"/><line x1="479.05" y1="311.34" x2="465.79" y2="311.34" fill="none" stroke="#283331" stroke-miterlimit="10" stroke-width="0.25"/><line x1="479.05" y1="308.97" x2="465.79" y2="308.97" fill="none" stroke="#283331" stroke-miterlimit="10" stroke-width="0.25"/><line x1="479.05" y1="306.59" x2="465.79" y2="306.59" fill="none" stroke="#283331" stroke-miterlimit="10" stroke-width="0.25"/><line x1="479.05" y1="304.22" x2="465.79" y2="304.22" fill="none" stroke="#283331" stroke-miterlimit="10" stroke-width="0.25"/></g><g id="MLOC-available"><rect id="room109f" x="176.98" y="176.05" width="63.67" height="68.45" fill="#aaddf7" stroke="#283331" stroke-miterlimit="10"/><rect id="room110f" x="404.02" y="36.39" width="144.16" height="89.8" fill="#aaddf7" stroke="#283331" stroke-miterlimit="10"/><rect id="room102f" x="54.87" y="65.21" width="58.44" height="79.04" fill="#aedef8" stroke="#283331" stroke-miterlimit="10"/><rect id="room101f" x="54.87" y="162.41" width="58.44" height="82.1" fill="#aedef8" stroke="#283331" stroke-miterlimit="10"/><rect id="room103f" x="113.31" y="49.65" width="63.67" height="76.53" fill="#dc9e68" stroke="#283331" stroke-miterlimit="10"/><rect id="room104f" x="176.98" y="49.65" width="63.67" height="76.53" fill="#aaddf7" stroke="#283331" stroke-miterlimit="10"/><rect id="room105f" x="240.65" y="65.21" width="63.67" height="76.53" fill="#aaddf7" stroke="#283331" stroke-miterlimit="10"/><polyline id="room120f" points="505.55 205.77 615.76 205.77 615.76 371.49 505.55 371.49 505.55 205.77" fill="#aedef8" stroke="#283331" stroke-miterlimit="10"/></g><g id="MNOINT-words"><text transform="translate(407.08 49.65)" font-size="12" fill="#231815" font-family="HiraginoSans-W5-83pv-RKSJ-H, Hiragino Sans">110</text><text transform="translate(228.92 363.38)" font-size="15" fill="#231815" font-family="HiraginoSans-W5-83pv-RKSJ-H, Hiragino Sans">学生サポートセンター</text><text id="EV" transform="translate(548.2 123.44)" font-size="12" fill="#231815" font-family="HiraginoSans-W5-83pv-RKSJ-H, Hiragino Sans">EV</text><text transform="translate(507.53 218.53)" font-size="12" fill="#231815" font-family="HiraginoSans-W5-83pv-RKSJ-H, Hiragino Sans">120</text><text transform="translate(38.11 392.51)" font-size="20" fill="#231815" font-family="HiraginoSans-W5-83pv-RKSJ-H, Hiragino Sans">A<tspan x="15.68" y="0" letter-spacing="0.25em">V</tspan><tspan x="35.82" y="0">棟</tspan></text><text transform="translate(240.65 76.86)" font-size="12" fill="#231815" font-family="HiraginoSans-W5-83pv-RKSJ-H, Hiragino Sans">105</text><text transform="translate(176.98 61.43)" font-size="12" fill="#231815" font-family="HiraginoSans-W5-83pv-RKSJ-H, Hiragino Sans">104</text><text transform="translate(176.98 187.35)" font-size="12" fill="#231815" font-family="HiraginoSans-W5-83pv-RKSJ-H, Hiragino Sans">109</text><text transform="translate(54.87 173.91)" font-size="12" fill="#231815" font-family="HiraginoSans-W5-83pv-RKSJ-H, Hiragino Sans">101</text><text transform="translate(54.87 77)" font-size="12" fill="#231815" font-family="HiraginoSans-W5-83pv-RKSJ-H, Hiragino Sans">102</text><text transform="translate(113.31 61.57)" font-size="12" fill="#231815" font-family="HiraginoSans-W5-83pv-RKSJ-H, Hiragino Sans">103</text><text transform="translate(242.03 173.91)" font-size="12" fill="#231815" font-family="HiraginoSans-W5-83pv-RKSJ-H, Hiragino Sans">107</text><text transform="translate(304.51 76.86)" font-size="12" fill="#231815" font-family="HiraginoSans-W5-83pv-RKSJ-H, Hiragino Sans">106</text><text transform="translate(322.71 258.74)" font-size="20" fill="#231815" font-family="HiraginoSans-W5-83pv-RKSJ-H, Hiragino Sans">中庭</text><text transform="translate(62.93 206.77)" font-size="10" fill="#231815" font-family="HiraginoSans-W5-83pv-RKSJ-H, Hiragino Sans">das Lied</text><text transform="translate(55.34 97.19)" font-size="8" fill="#231815" font-family="HiraginoSans-W5-83pv-RKSJ-H, Hiragino Sans">ジャグリング<tspan x="0" y="13">サークル</tspan><tspan x="0" y="26">Team&quot;Lamp&quot;</tspan></text><text transform="translate(115.29 87.92)" font-size="10" fill="#231815" font-family="HiraginoSans-W5-83pv-RKSJ-H, Hiragino Sans">サークル紹介<tspan x="20" y="17.5">本部</tspan></text><text transform="translate(183.43 96.62)" font-size="10" fill="#231815" font-family="HiraginoSans-W5-83pv-RKSJ-H, Hiragino Sans">デモルーム</text><text transform="translate(247.32 109.19)" font-size="10" fill="#231815" font-family="HiraginoSans-W5-83pv-RKSJ-H, Hiragino Sans">デモルーム</text><text transform="translate(183.85 216.53)" font-size="10" fill="#231815" font-family="HiraginoSans-W5-83pv-RKSJ-H, Hiragino Sans">デモルーム</text><text transform="translate(441.1 79.48)" font-size="10" fill="#231815" font-family="HiraginoSans-W5-83pv-RKSJ-H, Hiragino Sans">児童文化研究会<tspan x="-15" y="17.5">生協学生委員会つむぎ</tspan></text><text transform="translate(535.66 271.23)" font-size="10" fill="#231815" font-family="HiraginoSans-W5-83pv-RKSJ-H, Hiragino Sans">学術探検会<tspan x="10" y="17.5">弓道部</tspan><tspan x="9.91" y="35">CORE</tspan><tspan x="-30" y="52.5">女子バスケットボール部</tspan></text></g></svg>