<svg xmlns="http://www.w3.org/2000/svg" viewBox="0 0 660 490"><g id="背景"><polyline id="base" points="0 0 660 0 660 490 0 490" fill="#dcdddd"/></g><g id="廊下"><g id="階段"><polyline points="341.79 448.33 333.43 423.54 343.86 420.02 352.1 444.47" fill="none" stroke="#283331" stroke-miterlimit="10"/><line x1="338.24" y1="437.81" x2="348.67" y2="434.29" fill="none" stroke="#283331" stroke-miterlimit="10" stroke-width="0.25"/><line x1="338.87" y1="439.68" x2="349.3" y2="436.16" fill="none" stroke="#283331" stroke-miterlimit="10" stroke-width="0.25"/><line x1="339.5" y1="441.54" x2="349.93" y2="438.02" fill="none" stroke="#283331" stroke-miterlimit="10" stroke-width="0.25"/><line x1="340.13" y1="443.4" x2="350.55" y2="439.89" fill="none" stroke="#283331" stroke-miterlimit="10" stroke-width="0.25"/><line x1="340.76" y1="445.27" x2="351.18" y2="441.75" fill="none" stroke="#283331" stroke-miterlimit="10" stroke-width="0.25"/><line x1="351.81" y1="443.62" x2="341.39" y2="447.13" fill="none" stroke="#283331" stroke-miterlimit="10" stroke-width="0.25"/><line x1="337.61" y1="435.93" x2="348.04" y2="432.42" fill="none" stroke="#283331" stroke-miterlimit="10" stroke-width="0.25"/><line x1="337.03" y1="434.21" x2="347.45" y2="430.69" fill="none" stroke="#283331" stroke-miterlimit="10" stroke-width="0.25"/><line x1="336.43" y1="432.43" x2="346.85" y2="428.91" fill="none" stroke="#283331" stroke-miterlimit="10" stroke-width="0.25"/><line x1="335.84" y1="430.67" x2="346.26" y2="427.16" fill="none" stroke="#283331" stroke-miterlimit="10" stroke-width="0.25"/><line x1="335.23" y1="428.87" x2="345.65" y2="425.36" fill="none" stroke="#283331" stroke-miterlimit="10" stroke-width="0.25"/><line x1="334.58" y1="426.93" x2="345" y2="423.42" fill="none" stroke="#283331" stroke-miterlimit="10" stroke-width="0.25"/><line x1="333.98" y1="425.16" x2="344.4" y2="421.64" fill="none" stroke="#283331" stroke-miterlimit="10" stroke-width="0.25"/></g><polyline points="388.08 143.35 388.08 127.8 550.65 127.8 566.15 127.8 566.15 112.3 550.65 112.3 550.65 38 643.03 38 643.03 411.82 584.29 411.82 584.29 451.11 392.19 451.11 392.19 423.42 324.98 423.42 324.98 451.11 237.33 451.11 237.33 395.5 324.98 395.5 324.98 412.79 392.38 412.79 392.38 395.54 621.09 395.54 621.09 137.22 507.14 137.22 507.14 143.35 388.08 143.35" fill="#b5b5b6" stroke="#283331" stroke-miterlimit="10"/><polyline points="57.29 164.02 57.29 145.86 115.73 145.86 115.73 127.8 243.08 127.8 243.08 143.35 507.14 143.35 507.14 395.5 237.33 395.5 237.33 425.61 115.73 425.61 115.73 164.02 57.29 164.02" fill="#b5b5b6" stroke="#283331" stroke-miterlimit="10"/><polyline points="490.04 329.56 490.04 164.02 357.63 164.02 243.08 164.02 243.08 177.67 179.41 177.67 149.09 177.67 149.09 372.9 237.33 372.9 237.33 329.56 476.51 329.56" fill="#dcdddd" stroke="#283331" stroke-miterlimit="10"/><g id="矢印"><path d="M424.79,152.43l4-3.85-2.94-.06.29-14.7-2,0-.29,14.7-2.94,0Z" fill="#040000"/><path d="M425.2,132.05l-4,3.84,2.94.06-.29,14.71,2,0L426.1,136l2.94.06Z" fill="#040000"/></g><g id="矢印-2" data-name="矢印"><path d="M314.8,405.69l4-3.85-2.94-.06.29-14.7-2,0-.3,14.71-2.94-.06Z" fill="#040000"/><path d="M315.2,385.31l-4,3.85,2.94,0-.29,14.71,2,0,.3-14.71,2.94.06Z" fill="#040000"/></g><g id="矢印-3" data-name="矢印"><path d="M227.18,414.79l3.85,4,.06-2.94,14.7.29,0-2-14.71-.29.06-2.95Z" fill="#040000"/><path d="M247.56,415.19l-3.85-4-.05,2.95-14.71-.3,0,2,14.71.3-.06,2.94Z" fill="#040000"/></g><polyline points="585.6 38 585.6 127.8 643.03 127.8 643.03 38 585.6 38" fill="#dcdddd" stroke="#283331" stroke-miterlimit="10"/><line x1="643.03" y1="38" x2="585.6" y2="127.8" fill="none" stroke="#283331" stroke-miterlimit="10" stroke-width="0.25"/><line x1="585.6" y1="38.49" x2="643.03" y2="127.8" fill="none" stroke="#283331" stroke-miterlimit="10" stroke-width="0.25"/></g><g id="男性用トイレ"><polyline points="388.08 127.8 406.45 127.8 406.45 38 388.08 38 388.08 127.8" fill="#54c3f1" stroke="#283331" stroke-miterlimit="10"/></g><g id="女性用トイレ"><polyline points="370.42 143.35 388.08 143.35 388.08 38 370.42 38 370.42 143.35" fill="#f19899" stroke="#283331" stroke-miterlimit="10"/><polygon points="621.09 411.9 584.29 411.82 584.29 451.11 621.09 451.11 621.09 411.9" fill="#f19899" stroke="#283331" stroke-miterlimit="10"/></g><g id="使用不可能教室等"><rect x="243.08" y="66.82" width="63.67" height="76.53" fill="#929292" stroke="#283331" stroke-miterlimit="10"/><rect x="179.41" y="51.27" width="63.67" height="76.53" fill="#929292" stroke="#283331" stroke-miterlimit="10"/><rect x="115.74" y="51.27" width="63.67" height="76.53" fill="#929292" stroke="#283331" stroke-miterlimit="10"/><rect x="57.29" y="164.02" width="58.44" height="82.1" fill="#929292" stroke="#283331" stroke-miterlimit="10"/><rect x="57.29" y="66.82" width="58.44" height="79.04" fill="#929292" stroke="#283331" stroke-miterlimit="10"/><rect x="179.41" y="177.67" width="63.67" height="68.45" fill="#929292" stroke="#283331" stroke-miterlimit="10"/><rect x="306.75" y="66.82" width="63.67" height="76.53" fill="#929292" stroke="#283331" stroke-miterlimit="10"/><rect x="243.08" y="164.02" width="81.9" height="74.19" fill="#929292" stroke="#283331" stroke-miterlimit="10"/><rect x="324.98" y="164.02" width="32.65" height="74.19" fill="#929292" stroke="#283331" stroke-miterlimit="10"/><polyline points="115.73 293.77 16.97 293.77 16.97 452 115.73 452 115.73 293.77" fill="#929292" stroke="#283331" stroke-miterlimit="10"/><rect x="507.14" y="137.22" width="113.95" height="10.11" fill="#929292" stroke="#283331" stroke-miterlimit="10"/></g><g id="階段-2" data-name="階段"><polygon points="160.96 155.17 166.16 168.43 179.12 168.43 179.12 155.17 160.96 155.17" fill="#5c5a5a"/><polyline points="148.01 168.43 179.12 168.43 179.12 155.17 147.57 155.17" fill="none" stroke="#283331" stroke-miterlimit="10"/><line x1="160.96" y1="155.17" x2="160.96" y2="168.43" fill="none" stroke="#283331" stroke-miterlimit="10" stroke-width="0.25"/><line x1="158.58" y1="155.17" x2="158.58" y2="168.43" fill="none" stroke="#283331" stroke-miterlimit="10" stroke-width="0.25"/><line x1="156.21" y1="155.17" x2="156.21" y2="168.43" fill="none" stroke="#283331" stroke-miterlimit="10" stroke-width="0.25"/><line x1="153.84" y1="155.17" x2="153.84" y2="168.43" fill="none" stroke="#283331" stroke-miterlimit="10" stroke-width="0.25"/><line x1="151.47" y1="155.17" x2="151.47" y2="168.43" fill="none" stroke="#283331" stroke-miterlimit="10" stroke-width="0.25"/><line x1="149.09" y1="155.17" x2="149.09" y2="168.43" fill="none" stroke="#283331" stroke-miterlimit="10" stroke-width="0.25"/><polygon points="643.03 423 632.03 427.32 632.03 438.07 643.03 438.07 643.03 423" fill="#5c5a5a"/><polyline points="632.03 412.27 632.03 438.07 643.03 438.07 643.03 411.9" fill="none" stroke="#283331" stroke-miterlimit="10"/><line x1="643.03" y1="423" x2="632.03" y2="423" fill="none" stroke="#283331" stroke-miterlimit="10" stroke-width="0.25"/><line x1="643.03" y1="421.04" x2="632.03" y2="421.04" fill="none" stroke="#283331" stroke-miterlimit="10" stroke-width="0.25"/><line x1="643.03" y1="419.07" x2="632.03" y2="419.07" fill="none" stroke="#283331" stroke-miterlimit="10" stroke-width="0.25"/><line x1="643.03" y1="417.1" x2="632.03" y2="417.1" fill="none" stroke="#283331" stroke-miterlimit="10" stroke-width="0.25"/><line x1="643.03" y1="415.13" x2="632.03" y2="415.13" fill="none" stroke="#283331" stroke-miterlimit="10" stroke-width="0.25"/><line x1="632.03" y1="413.17" x2="643.03" y2="413.17" fill="none" stroke="#283331" stroke-miterlimit="10" stroke-width="0.25"/><polyline points="632.1 411.9 632.1 438.07 621.09 438.07 621.09 412.27" fill="none" stroke="#283331" stroke-miterlimit="10"/><line x1="632.1" y1="423" x2="621.09" y2="423" fill="none" stroke="#283331" stroke-miterlimit="10" stroke-width="0.25"/><line x1="632.1" y1="421.04" x2="621.09" y2="421.04" fill="none" stroke="#283331" stroke-miterlimit="10" stroke-width="0.25"/><line x1="632.1" y1="419.07" x2="621.09" y2="419.07" fill="none" stroke="#283331" stroke-miterlimit="10" stroke-width="0.25"/><line x1="632.1" y1="417.1" x2="621.09" y2="417.1" fill="none" stroke="#283331" stroke-miterlimit="10" stroke-width="0.25"/><line x1="632.1" y1="415.13" x2="621.09" y2="415.13" fill="none" stroke="#283331" stroke-miterlimit="10" stroke-width="0.25"/><line x1="621.09" y1="413.17" x2="632.1" y2="413.17" fill="none" stroke="#283331" stroke-miterlimit="10" stroke-width="0.25"/><line x1="632.1" y1="424.98" x2="621.09" y2="424.98" fill="none" stroke="#283331" stroke-miterlimit="10" stroke-width="0.25"/><line x1="632.1" y1="426.81" x2="621.09" y2="426.81" fill="none" stroke="#283331" stroke-miterlimit="10" stroke-width="0.25"/><line x1="632.1" y1="428.68" x2="621.09" y2="428.68" fill="none" stroke="#283331" stroke-miterlimit="10" stroke-width="0.25"/><line x1="632.1" y1="430.54" x2="621.09" y2="430.54" fill="none" stroke="#283331" stroke-miterlimit="10" stroke-width="0.25"/><line x1="632.1" y1="432.44" x2="621.09" y2="432.44" fill="none" stroke="#283331" stroke-miterlimit="10" stroke-width="0.25"/><line x1="632.1" y1="434.48" x2="621.09" y2="434.48" fill="none" stroke="#283331" stroke-miterlimit="10" stroke-width="0.25"/><line x1="632.1" y1="436.36" x2="621.09" y2="436.36" fill="none" stroke="#283331" stroke-miterlimit="10" stroke-width="0.25"/><polyline points="136.57 452 136.57 425.84 147.57 425.84 147.57 451.63" fill="none" stroke="#283331" stroke-miterlimit="10"/><line x1="136.57" y1="440.9" x2="147.57" y2="440.9" fill="none" stroke="#283331" stroke-miterlimit="10" stroke-width="0.25"/><line x1="136.57" y1="442.87" x2="147.57" y2="442.87" fill="none" stroke="#283331" stroke-miterlimit="10" stroke-width="0.25"/><line x1="136.57" y1="444.83" x2="147.57" y2="444.83" fill="none" stroke="#283331" stroke-miterlimit="10" stroke-width="0.25"/><line x1="136.57" y1="446.8" x2="147.57" y2="446.8" fill="none" stroke="#283331" stroke-miterlimit="10" stroke-width="0.25"/><line x1="136.57" y1="448.77" x2="147.57" y2="448.77" fill="none" stroke="#283331" stroke-miterlimit="10" stroke-width="0.25"/><line x1="147.57" y1="450.74" x2="136.57" y2="450.74" fill="none" stroke="#283331" stroke-miterlimit="10" stroke-width="0.25"/><line x1="136.57" y1="438.92" x2="147.57" y2="438.92" fill="none" stroke="#283331" stroke-miterlimit="10" stroke-width="0.25"/><line x1="136.57" y1="437.1" x2="147.57" y2="437.1" fill="none" stroke="#283331" stroke-miterlimit="10" stroke-width="0.25"/><line x1="136.57" y1="435.22" x2="147.57" y2="435.22" fill="none" stroke="#283331" stroke-miterlimit="10" stroke-width="0.25"/><line x1="136.57" y1="433.37" x2="147.57" y2="433.37" fill="none" stroke="#283331" stroke-miterlimit="10" stroke-width="0.25"/><line x1="136.57" y1="431.47" x2="147.57" y2="431.47" fill="none" stroke="#283331" stroke-miterlimit="10" stroke-width="0.25"/><line x1="136.57" y1="429.42" x2="147.57" y2="429.42" fill="none" stroke="#283331" stroke-miterlimit="10" stroke-width="0.25"/><line x1="136.57" y1="427.54" x2="147.57" y2="427.54" fill="none" stroke="#283331" stroke-miterlimit="10" stroke-width="0.25"/><polyline points="147.68 141.7 179.01 141.7 179.01 154.88 148.12 154.88" fill="none" stroke="#283331" stroke-miterlimit="10"/><line x1="160.97" y1="141.7" x2="160.97" y2="154.88" fill="none" stroke="#283331" stroke-miterlimit="10" stroke-width="0.25"/><line x1="158.62" y1="141.7" x2="158.62" y2="154.88" fill="none" stroke="#283331" stroke-miterlimit="10" stroke-width="0.25"/><line x1="156.26" y1="141.7" x2="156.26" y2="154.88" fill="none" stroke="#283331" stroke-miterlimit="10" stroke-width="0.25"/><line x1="153.9" y1="141.7" x2="153.9" y2="154.88" fill="none" stroke="#283331" stroke-miterlimit="10" stroke-width="0.25"/><line x1="151.55" y1="141.7" x2="151.55" y2="154.88" fill="none" stroke="#283331" stroke-miterlimit="10" stroke-width="0.25"/><line x1="149.19" y1="154.88" x2="149.19" y2="141.7" fill="none" stroke="#283331" stroke-miterlimit="10" stroke-width="0.25"/><line x1="163.34" y1="141.7" x2="163.34" y2="154.88" fill="none" stroke="#283331" stroke-miterlimit="10" stroke-width="0.25"/><line x1="165.53" y1="141.7" x2="165.53" y2="154.88" fill="none" stroke="#283331" stroke-miterlimit="10" stroke-width="0.25"/><line x1="167.77" y1="141.7" x2="167.77" y2="154.88" fill="none" stroke="#283331" stroke-miterlimit="10" stroke-width="0.25"/><line x1="169.99" y1="141.7" x2="169.99" y2="154.88" fill="none" stroke="#283331" stroke-miterlimit="10" stroke-width="0.25"/><line x1="172.27" y1="141.7" x2="172.27" y2="154.88" fill="none" stroke="#283331" stroke-miterlimit="10" stroke-width="0.25"/><line x1="174.72" y1="141.7" x2="174.72" y2="154.88" fill="none" stroke="#283331" stroke-miterlimit="10" stroke-width="0.25"/><line x1="176.97" y1="141.7" x2="176.97" y2="154.88" fill="none" stroke="#283331" stroke-miterlimit="10" stroke-width="0.25"/><polyline points="476.87 330.2 476.87 298.87 490.04 298.87 490.04 329.76" fill="none" stroke="#283331" stroke-miterlimit="10"/><line x1="476.87" y1="316.9" x2="490.04" y2="316.9" fill="none" stroke="#283331" stroke-miterlimit="10" stroke-width="0.25"/><line x1="476.87" y1="319.26" x2="490.04" y2="319.26" fill="none" stroke="#283331" stroke-miterlimit="10" stroke-width="0.25"/><line x1="476.87" y1="321.62" x2="490.04" y2="321.62" fill="none" stroke="#283331" stroke-miterlimit="10" stroke-width="0.25"/><line x1="476.87" y1="323.97" x2="490.04" y2="323.97" fill="none" stroke="#283331" stroke-miterlimit="10" stroke-width="0.25"/><line x1="476.87" y1="326.33" x2="490.04" y2="326.33" fill="none" stroke="#283331" stroke-miterlimit="10" stroke-width="0.25"/><line x1="490.04" y1="328.69" x2="476.87" y2="328.69" fill="none" stroke="#283331" stroke-miterlimit="10" stroke-width="0.25"/><line x1="476.87" y1="314.53" x2="490.04" y2="314.53" fill="none" stroke="#283331" stroke-miterlimit="10" stroke-width="0.25"/><line x1="476.87" y1="312.35" x2="490.04" y2="312.35" fill="none" stroke="#283331" stroke-miterlimit="10" stroke-width="0.25"/><line x1="476.87" y1="310.1" x2="490.04" y2="310.1" fill="none" stroke="#283331" stroke-miterlimit="10" stroke-width="0.25"/><line x1="476.87" y1="307.88" x2="490.04" y2="307.88" fill="none" stroke="#283331" stroke-miterlimit="10" stroke-width="0.25"/><line x1="476.87" y1="305.61" x2="490.04" y2="305.61" fill="none" stroke="#283331" stroke-miterlimit="10" stroke-width="0.25"/><line x1="476.87" y1="303.16" x2="490.04" y2="303.16" fill="none" stroke="#283331" stroke-miterlimit="10" stroke-width="0.25"/><line x1="476.87" y1="300.91" x2="490.04" y2="300.91" fill="none" stroke="#283331" stroke-miterlimit="10" stroke-width="0.25"/><polygon points="550.65 61.94 568.13 55.09 568.13 38.02 550.65 38.02 550.65 61.94" fill="#5c5a5a"/><polyline points="568.13 78.99 568.13 38.02 550.65 38.02 550.65 79.57" fill="none" stroke="#283331" stroke-miterlimit="10"/><line x1="550.65" y1="61.94" x2="568.12" y2="61.94" fill="none" stroke="#283331" stroke-miterlimit="10" stroke-width="0.25"/><line x1="550.65" y1="65.06" x2="568.12" y2="65.06" fill="none" stroke="#283331" stroke-miterlimit="10" stroke-width="0.25"/><line x1="550.65" y1="68.19" x2="568.12" y2="68.19" fill="none" stroke="#283331" stroke-miterlimit="10" stroke-width="0.25"/><line x1="550.65" y1="71.31" x2="568.12" y2="71.31" fill="none" stroke="#283331" stroke-miterlimit="10" stroke-width="0.25"/><line x1="550.65" y1="74.44" x2="568.12" y2="74.44" fill="none" stroke="#283331" stroke-miterlimit="10" stroke-width="0.25"/><line x1="550.65" y1="77.56" x2="568.12" y2="77.56" fill="none" stroke="#283331" stroke-miterlimit="10" stroke-width="0.25"/><polyline points="568.13 79.55 568.13 38 585.6 38 585.6 78.97" fill="none" stroke="#283331" stroke-miterlimit="10"/><line x1="568.12" y1="61.92" x2="585.6" y2="61.92" fill="none" stroke="#283331" stroke-miterlimit="10" stroke-width="0.25"/><line x1="568.12" y1="65.04" x2="585.6" y2="65.04" fill="none" stroke="#283331" stroke-miterlimit="10" stroke-width="0.25"/><line x1="568.12" y1="68.17" x2="585.6" y2="68.17" fill="none" stroke="#283331" stroke-miterlimit="10" stroke-width="0.25"/><line x1="568.12" y1="71.29" x2="585.6" y2="71.29" fill="none" stroke="#283331" stroke-miterlimit="10" stroke-width="0.25"/><line x1="568.12" y1="74.42" x2="585.6" y2="74.42" fill="none" stroke="#283331" stroke-miterlimit="10" stroke-width="0.25"/><line x1="585.6" y1="77.54" x2="568.12" y2="77.54" fill="none" stroke="#283331" stroke-miterlimit="10" stroke-width="0.25"/><line x1="568.12" y1="58.77" x2="585.6" y2="58.77" fill="none" stroke="#283331" stroke-miterlimit="10" stroke-width="0.25"/><line x1="568.12" y1="55.88" x2="585.6" y2="55.88" fill="none" stroke="#283331" stroke-miterlimit="10" stroke-width="0.25"/><line x1="568.12" y1="52.9" x2="585.6" y2="52.9" fill="none" stroke="#283331" stroke-miterlimit="10" stroke-width="0.25"/><line x1="568.12" y1="49.96" x2="585.6" y2="49.96" fill="none" stroke="#283331" stroke-miterlimit="10" stroke-width="0.25"/><line x1="568.12" y1="46.94" x2="585.6" y2="46.94" fill="none" stroke="#283331" stroke-miterlimit="10" stroke-width="0.25"/><line x1="568.12" y1="43.69" x2="585.6" y2="43.69" fill="none" stroke="#283331" stroke-miterlimit="10" stroke-width="0.25"/><line x1="568.12" y1="40.71" x2="585.6" y2="40.71" fill="none" stroke="#283331" stroke-miterlimit="10" stroke-width="0.25"/></g><g id="トイレマーク"><g id="男女"><path d="M397.46,78.47a3.21,3.21,0,1,0-3.22-3.21A3.21,3.21,0,0,0,397.46,78.47Z" fill="#fff"/><path d="M400.46,80.26h-6a2,2,0,0,0-1.86,2.81L397,93.44a.51.51,0,0,0,.93,0l4.41-10.37a2,2,0,0,0-1.87-2.81Z" fill="#fff"/></g><g id="男女-2" data-name="男女"><path d="M602.69,426.11a3.21,3.21,0,1,0-3.21-3.21A3.21,3.21,0,0,0,602.69,426.11Z" fill="#fff"/><path d="M607.56,438.57l-4.4-10.37a.52.52,0,0,0-.47-.3.51.51,0,0,0-.46.3l-4.41,10.37a2,2,0,0,0,1.86,2.81h6a2,2,0,0,0,1.86-2.81Z" fill="#fff"/></g><g id="男女-3" data-name="男女"><path d="M378.76,78.58a3.21,3.21,0,1,0-3.21-3.21A3.21,3.21,0,0,0,378.76,78.58Z" fill="#fff"/><path d="M383.63,91l-4.41-10.36a.5.5,0,0,0-.93,0L373.89,91a2,2,0,0,0,1.86,2.82h6A2,2,0,0,0,383.63,91Z" fill="#fff"/></g></g><g id="MLOC-available"><rect id="room210f" x="406.49" y="38" width="144.16" height="89.8" fill="#aaddf7" stroke="#283331" stroke-miterlimit="10"/><rect id="room220f" x="507.14" y="147.33" width="113.95" height="74.79" fill="#aaddf7" stroke="#283331" stroke-miterlimit="10"/><rect id="room230f" x="507.14" y="221.63" width="113.95" height="99.6" fill="#aaddf7" stroke="#283331" stroke-miterlimit="10"/><rect id="room240f" x="507.14" y="320.75" width="113.95" height="74.79" fill="#aaddf7" stroke="#283331" stroke-miterlimit="10"/></g><g id="MNOINT-word"><text transform="translate(551.08 124.8)" font-size="12" fill="#231815" font-family="KozGoPr6N-Regular-83pv-RKSJ-H, Kozuka Gothic Pr6N">EV</text><text transform="translate(57.29 78.47)" font-size="12" fill="#231815" font-family="KozGoPr6N-Regular-83pv-RKSJ-H, Kozuka Gothic Pr6N">202</text><text transform="translate(41.45 378.82)" font-size="20" fill="#231815" font-family="KozGoPr6N-Regular-83pv-RKSJ-H, Kozuka Gothic Pr6N">A<tspan x="13.12" y="0" letter-spacing="0.25em">V</tspan><tspan x="30" y="0">棟</tspan></text><text transform="translate(418.99 430.39)" font-size="20" fill="#231815" font-family="KozGoPr6N-Regular-83pv-RKSJ-H, Kozuka Gothic Pr6N">ロッカールーム</text><text transform="translate(118.25 62.28)" font-size="12" fill="#231815" font-family="KozGoPr6N-Regular-83pv-RKSJ-H, Kozuka Gothic Pr6N">203</text><text transform="translate(181.6 62.43)" font-size="12" fill="#231815" font-family="KozGoPr6N-Regular-83pv-RKSJ-H, Kozuka Gothic Pr6N">204</text><text transform="translate(245.83 78.47)" font-size="12" fill="#231815" font-family="KozGoPr6N-Regular-83pv-RKSJ-H, Kozuka Gothic Pr6N">205</text><text transform="translate(307.75 78.62)" font-size="12" fill="#231815" font-family="KozGoPr6N-Regular-83pv-RKSJ-H, Kozuka Gothic Pr6N">206</text><text transform="translate(327.13 175.14)" font-size="12" fill="#231815" font-family="KozGoPr6N-Regular-83pv-RKSJ-H, Kozuka Gothic Pr6N">207</text><text transform="translate(244.08 175.28)" font-size="12" fill="#231815" font-family="KozGoPr6N-Regular-83pv-RKSJ-H, Kozuka Gothic Pr6N">208</text><text transform="translate(181.19 188.75)" font-size="12" fill="#231815" font-family="KozGoPr6N-Regular-83pv-RKSJ-H, Kozuka Gothic Pr6N">209</text><text transform="translate(60.01 175.14)" font-size="12" fill="#231815" font-family="KozGoPr6N-Regular-83pv-RKSJ-H, Kozuka Gothic Pr6N">201</text><text transform="translate(407.47 49.07)" font-size="12" fill="#231815" font-family="KozGoPr6N-Regular-83pv-RKSJ-H, Kozuka Gothic Pr6N">210</text><text transform="translate(508.14 158.72)" font-size="12" fill="#231815" font-family="KozGoPr6N-Regular-83pv-RKSJ-H, Kozuka Gothic Pr6N">220</text><text transform="translate(508.68 233.04)" font-size="12" fill="#231815" font-family="KozGoPr6N-Regular-83pv-RKSJ-H, Kozuka Gothic Pr6N">230</text><text transform="translate(509.27 332.71)" font-size="12" fill="#231815" font-family="KozGoPr6N-Regular-83pv-RKSJ-H, Kozuka Gothic Pr6N">240</text><text transform="translate(451.87 78.76)" font-size="10" fill="#231815" font-family="HiraginoSans-W5-83pv-RKSJ-H, Hiragino Sans">硬式庭球部<tspan x="-10" y="17.5">バドミントン部</tspan></text><text transform="translate(544.12 179.6)" font-size="10" fill="#231815" font-family="HiraginoSans-W5-83pv-RKSJ-H, Hiragino Sans">劇団時計<tspan x="5.42" y="17.5">Dolce</tspan></text><text transform="translate(542.2 251.47)" font-size="10" fill="#231815" font-family="HiraginoSans-W5-83pv-RKSJ-H, Hiragino Sans">skyhand<tspan x="6.92" y="17.5">星泳会</tspan><tspan x="-13.02" y="35" letter-spacing="0.25em">B</tspan><tspan x="-3.15" y="35">類サッカー部</tspan><tspan x="-33.02" y="52.5" letter-spacing="0.25em">B</tspan><tspan x="-23.15" y="52.5">類バスケットボール部</tspan></text><text transform="translate(553.82 354.42)" font-size="10" fill="#231815" font-family="HiraginoSans-W5-83pv-RKSJ-H, Hiragino Sans">ESS<tspan x="-4.37" y="17.5">J-Boy</tspan></text></g></svg>