<?xml version="1.0" encoding="UTF-8"?>
<svg xmlns="http://www.w3.org/2000/svg" viewBox="0 0 720 320">
  <g id="_景" data-name="背景">
    <polyline id="base" points="0 0 720 0 720 320 0 320" fill="#dcdddd"/>
  </g>
  <g id="_下" data-name="廊下">
    <polyline points="173.93 197.41 149.84 197.41 149.84 136.22 118.25 136.22 118.25 176.82 101.33 176.82 101.33 49.87 639.32 49.93 639.32 82.15 571.46 82.15 571.46 281.16 549.61 281.16 549.22 82.15 456.79 82.15 213.53 82.15 213.53 109.81 204.1 109.81 204.1 136.55 173.93 136.55 173.93 197.41" fill="#b5b5b6" stroke="#273331" stroke-miterlimit="10" stroke-width=".91"/>
    <rect x="173.93" y="109.83" width="30.13" height="26.72" fill="#b5b5b6" stroke="#273331" stroke-miterlimit="10" stroke-width=".91"/>
    <g id="_印" data-name="矢印">
      <path d="M629.91,68.05l3.55,3.61,.05-2.66,13.59,.26,.04-1.77-13.59-.26,.05-2.66-3.7,3.47Z" fill="#040000"/>
      <path d="M648.73,68.41l-3.55-3.61-.05,2.66-13.59-.26-.04,1.77,13.59,.26-.05,2.66,3.7-3.47Z" fill="#040000"/>
    </g>
    <g id="_印-2" data-name="矢印">
      <path d="M356.78,38.84l-3.7,3.47,2.72,.05-.27,13.29,1.81,.04,.27-13.29,2.72,.05-3.55-3.61Z" fill="#040000"/>
      <path d="M356.4,57.26l3.7-3.47-2.72-.05,.27-13.29-1.81-.04-.27,13.29-2.72-.05,3.55,3.61Z" fill="#040000"/>
    </g>
    <g id="_印-3" data-name="矢印">
      <path d="M165.44,39.62l-3.7,3.47,2.72,.05-.27,13.29,1.81,.04,.27-13.29,2.72,.05-3.55-3.61Z" fill="#040000"/>
      <path d="M165.07,58.04l3.7-3.47-2.72-.05,.27-13.29-1.81-.04-.27,13.29-2.72-.05,3.55,3.61Z" fill="#040000"/>
    </g>
  </g>
  <g id="_椅子用トイレ" data-name="車椅子用トイレ">
    <polyline points="118.25 156.76 149.84 156.76 149.84 136.22 118.25 136.22 118.25 156.76" fill="#7cc05a" stroke="#283331" stroke-miterlimit="10" stroke-width=".91"/>
    <rect x="532.38" y="133.89" width="16.92" height="16.09" fill="#7cc05a" stroke="#283331" stroke-miterlimit="10" stroke-width=".91"/>
    <g>
      <path d="M542.36,137.31c.78-.19,1.25-.97,1.05-1.73-.2-.76-.99-1.22-1.77-1.03-.78,.2-1.25,.97-1.05,1.73,.2,.76,.99,1.22,1.77,1.03Z" fill="#fff"/>
      <path d="M543.71,140.98l-.12,1.23c.2,.13,.38,.27,.54,.43,.61,.6,.98,1.41,.98,2.32,0,.91-.38,1.73-.98,2.32-.61,.6-1.45,.96-2.38,.96-.93,0-1.77-.37-2.38-.96-.43-.42-.74-.96-.89-1.56l-.66,1.42c.78,1.33,2.24,2.23,3.92,2.23,2.5,0,4.52-1.98,4.52-4.42,0-1.76-1.05-3.27-2.57-3.98Z" fill="#fff"/>
      <path d="M540.78,144.69c1.28-.01,1.88-.54,2.01-1.75l.37-3.79c.06-.64-.33-1.2-.99-1.26-.42-.04-.87,.17-1.13,.44l-1.82,1.75-1.91,.16c-.31,.03-.54,.28-.54,.58v.03c0,.32,.26,.58,.59,.58h2.25l1.02-.74-.17,1.85-2.49,.18c-.72,.03-1.04,.31-1.31,.95l-1.17,3.16c-.18,.39,0,.84,.39,1.02,.4,.17,.86,0,1.04-.39l1.32-2.77h2.54Z" fill="#fff"/>
    </g>
    <g>
      <path d="M135.78,142.38c.78-.19,1.25-.97,1.05-1.73-.2-.76-.99-1.22-1.77-1.03-.78,.2-1.25,.97-1.05,1.73,.2,.76,.99,1.22,1.77,1.03Z" fill="#fff"/>
      <path d="M137.13,146.05l-.12,1.23c.2,.13,.38,.27,.54,.43,.61,.6,.98,1.41,.98,2.32,0,.91-.38,1.73-.98,2.32-.61,.6-1.45,.96-2.38,.96-.93,0-1.77-.37-2.38-.96-.43-.42-.74-.96-.89-1.56l-.66,1.42c.78,1.33,2.24,2.23,3.92,2.23,2.5,0,4.52-1.98,4.52-4.42,0-1.76-1.05-3.27-2.57-3.98Z" fill="#fff"/>
      <path d="M134.2,149.76c1.28-.01,1.88-.54,2.01-1.75l.37-3.79c.06-.64-.33-1.2-.99-1.26-.42-.04-.87,.17-1.13,.44l-1.82,1.75-1.91,.16c-.31,.03-.54,.28-.54,.58v.03c0,.32,.26,.58,.59,.58h2.25l1.02-.74-.17,1.85-2.49,.18c-.72,.03-1.04,.31-1.31,.95l-1.17,3.16c-.18,.39,0,.84,.39,1.02,.4,.17,.86,0,1.04-.39l1.32-2.77h2.54Z" fill="#fff"/>
    </g>
  </g>
  <g id="_子トイレ" data-name="女子トイレ">
    <rect x="118.25" y="156.76" width="31.59" height="20.06" fill="#f19899" stroke="#283331" stroke-miterlimit="10" stroke-width=".91"/>
    <rect x="492.55" y="149.98" width="56.75" height="47.43" fill="#f19899" stroke="#283331" stroke-miterlimit="10" stroke-width=".91"/>
  </g>
  <g id="_子トイレ-2" data-name="男子トイレ">
    <rect x="101.33" y="176.82" width="48.51" height="20.6" fill="#54c3f1" stroke="#283331" stroke-miterlimit="10" stroke-width=".91"/>
    <polygon points="549.22 82.15 492.55 82.15 492.55 149.98 532.38 149.98 532.38 133.89 549.31 133.89 549.22 82.15" fill="#54c3f1" stroke="#283331" stroke-miterlimit="10" stroke-width=".91"/>
  </g>
  <g id="_イレマーク" data-name="トイレマーク">
    <g id="_女" data-name="男女">
      <path d="M139.62,169.59c1.64,0,2.97-1.3,2.97-2.9s-1.33-2.9-2.97-2.9-2.97,1.3-2.97,2.9,1.33,2.9,2.97,2.9Z" fill="#fff"/>
      <path d="M128.57,169.59c1.64,0,2.97-1.3,2.97-2.9s-1.33-2.9-2.97-2.9-2.97,1.3-2.97,2.9,1.33,2.9,2.97,2.9Z" fill="#fff"/>
      <path d="M144.12,180.85l-4.07-9.37c-.07-.17-.24-.28-.43-.28s-.36,.11-.43,.28l-4.07,9.37c-.25,.56-.18,1.21,.16,1.72,.35,.51,.93,.82,1.56,.82h5.56c.63,0,1.21-.31,1.56-.82,.35-.51,.41-1.16,.16-1.72Z" fill="#fff"/>
      <path d="M131.35,171.2h-5.56c-.63,0-1.21,.31-1.56,.82-.35,.51-.41,1.16-.16,1.72l4.07,9.37c.07,.17,.24,.28,.43,.28s.36-.11,.43-.28l4.07-9.37c.25-.56,.18-1.21-.16-1.72-.35-.51-.93-.82-1.56-.82Z" fill="#fff"/>
    </g>
    <g id="_女-2" data-name="男女">
      <path d="M521.33,112.07c1.64,0,2.97-1.3,2.97-2.9s-1.33-2.9-2.97-2.9-2.97,1.3-2.97,2.9,1.33,2.9,2.97,2.9Z" fill="#fff"/>
      <path d="M524.11,113.68h-5.56c-.63,0-1.21,.31-1.56,.82-.35,.51-.41,1.16-.16,1.72l4.07,9.37c.07,.17,.24,.28,.43,.28s.36-.11,.43-.28l4.07-9.37c.25-.56,.18-1.21-.16-1.72-.35-.51-.93-.82-1.56-.82Z" fill="#fff"/>
    </g>
    <g id="_女-3" data-name="男女">
      <path d="M521.33,169.7c1.64,0,2.97-1.3,2.97-2.9s-1.33-2.9-2.97-2.9-2.97,1.3-2.97,2.9,1.33,2.9,2.97,2.9Z" fill="#fff"/>
      <path d="M525.83,180.96l-4.07-9.37c-.07-.17-.24-.28-.43-.28s-.36,.11-.43,.28l-4.07,9.37c-.25,.56-.18,1.21,.16,1.72,.35,.51,.93,.82,1.56,.82h5.56c.63,0,1.21-.31,1.56-.82,.35-.51,.41-1.16,.16-1.72Z" fill="#fff"/>
    </g>
  </g>
  <g id="_用不可能部屋" data-name="使用不可能部屋">
    <polygon points="173.93 136.55 204.1 136.55 204.1 109.81 213.53 109.81 213.53 82.15 456.79 82.15 456.79 197.41 173.93 197.41 173.93 136.55" fill="#929292" stroke="#273331" stroke-miterlimit="10" stroke-width=".91"/>
    <rect x="37.69" y="49.87" width="63.64" height="147.54" fill="#929292" stroke="#273331" stroke-miterlimit="10" stroke-width=".91"/>
    <rect x="456.79" y="245.15" width="31.7" height="36.01" fill="#929292" stroke="#273331" stroke-miterlimit="10" stroke-width=".91"/>
    <rect x="624.37" y="216.23" width="57.94" height="64.93" fill="#929292" stroke="#273331" stroke-miterlimit="10" stroke-width=".91"/>
  </g>
  <g id="_段" data-name="階段">
    <g>
      <line x1="492.55" y1="125.87" x2="474.59" y2="125.87" fill="none" stroke="#283331" stroke-miterlimit="10" stroke-width=".23"/>
      <line x1="492.55" y1="129.63" x2="474.59" y2="129.63" fill="none" stroke="#283331" stroke-miterlimit="10" stroke-width=".23"/>
      <line x1="492.55" y1="132.81" x2="474.59" y2="132.81" fill="none" stroke="#283331" stroke-miterlimit="10" stroke-width=".23"/>
      <line x1="492.55" y1="136.22" x2="474.59" y2="136.22" fill="none" stroke="#283331" stroke-miterlimit="10" stroke-width=".23"/>
      <line x1="492.55" y1="139.57" x2="474.59" y2="139.57" fill="none" stroke="#283331" stroke-miterlimit="10" stroke-width=".23"/>
      <line x1="492.55" y1="142.9" x2="474.59" y2="142.9" fill="none" stroke="#283331" stroke-miterlimit="10" stroke-width=".23"/>
      <line x1="492.55" y1="146.49" x2="474.59" y2="146.49" fill="none" stroke="#283331" stroke-miterlimit="10" stroke-width=".23"/>
      <line x1="492.55" y1="150.25" x2="474.59" y2="150.25" fill="none" stroke="#283331" stroke-miterlimit="10" stroke-width=".23"/>
      <line x1="492.55" y1="154.45" x2="474.59" y2="154.45" fill="none" stroke="#283331" stroke-miterlimit="10" stroke-width=".23"/>
      <line x1="492.55" y1="158.01" x2="474.59" y2="158.01" fill="none" stroke="#283331" stroke-miterlimit="10" stroke-width=".23"/>
      <polygon points="492.55 156.76 474.59 168.4 474.59 197.41 492.55 197.41 492.55 156.76" fill="#5c5a5a"/>
      <polyline points="474.59 124.23 474.59 197.41 492.55 197.41 492.55 123.19" fill="none" stroke="#283331" stroke-miterlimit="10" stroke-width=".91"/>
    </g>
    <g>
      <line x1="173.93" y1="147.97" x2="161.52" y2="147.97" fill="none" stroke="#283331" stroke-miterlimit="10" stroke-width=".23"/>
      <line x1="173.93" y1="150.57" x2="161.52" y2="150.57" fill="none" stroke="#283331" stroke-miterlimit="10" stroke-width=".23"/>
      <line x1="173.93" y1="152.77" x2="161.52" y2="152.77" fill="none" stroke="#283331" stroke-miterlimit="10" stroke-width=".23"/>
      <line x1="173.93" y1="155.13" x2="161.52" y2="155.13" fill="none" stroke="#283331" stroke-miterlimit="10" stroke-width=".23"/>
      <line x1="173.93" y1="157.44" x2="161.52" y2="157.44" fill="none" stroke="#283331" stroke-miterlimit="10" stroke-width=".23"/>
      <line x1="173.93" y1="159.74" x2="161.52" y2="159.74" fill="none" stroke="#283331" stroke-miterlimit="10" stroke-width=".23"/>
      <line x1="173.93" y1="162.22" x2="161.52" y2="162.22" fill="none" stroke="#283331" stroke-miterlimit="10" stroke-width=".23"/>
      <line x1="173.93" y1="164.82" x2="161.52" y2="164.82" fill="none" stroke="#283331" stroke-miterlimit="10" stroke-width=".23"/>
      <line x1="173.93" y1="167.72" x2="161.52" y2="167.72" fill="none" stroke="#283331" stroke-miterlimit="10" stroke-width=".23"/>
      <line x1="173.93" y1="170.18" x2="161.52" y2="170.18" fill="none" stroke="#283331" stroke-miterlimit="10" stroke-width=".23"/>
      <polygon points="173.93 169.32 161.52 177.37 161.52 197.41 173.93 197.41 173.93 169.32" fill="#5c5a5a"/>
      <polyline points="161.52 146.84 161.52 197.41 173.93 197.41 173.93 146.12" fill="none" stroke="#283331" stroke-miterlimit="10" stroke-width=".91"/>
    </g>
  </g>
  <g id="MLOC-available">
    <rect id="studio101f" x="571.46" y="82.15" width="110.85" height="134.08" fill="#a8d7ef" stroke="#273331" stroke-miterlimit="10" stroke-width=".91"/>
    <rect id="music106f" x="456.79" y="197.41" width="92.52" height="47.73" fill="#a8d7ef" stroke="#273331" stroke-miterlimit="10" stroke-width=".91"/>
    <rect id="music104f" x="488.49" y="245.15" width="60.82" height="36.01" fill="#a8d7ef" stroke="#273331" stroke-miterlimit="10" stroke-width=".91"/>
    <rect id="music103f" x="571.46" y="216.23" width="52.91" height="64.93" fill="#a8d7ef" stroke="#273331" stroke-miterlimit="10" stroke-width=".91"/>
  </g>
  <g id="MNOINT-word">
    <text transform="translate(41.74 131.42) scale(1.02 1)" fill="#231815" font-family="KozGoPr6N-Regular-83pv-RKSJ-H, Kozuka Gothic Pr6N" font-size="18.07"><tspan x="0" y="0">医務室</tspan></text>
    <text transform="translate(254.86 146.12) scale(1.02 1)" fill="#231815" font-family="KozGoPr6N-Regular-83pv-RKSJ-H, Kozuka Gothic Pr6N" font-size="18.07"><tspan x="0" y="0">キャリア支援課</tspan></text>
    <text transform="translate(573.73 92.51) scale(1.02 1)" fill="#231815" font-family="KozGoPr6N-Regular-83pv-RKSJ-H, Kozuka Gothic Pr6N" font-size="10.84"><tspan x="0" y="0">101</tspan></text>
    <text transform="translate(572.39 226.59) scale(1.02 1)" fill="#231815" font-family="KozGoPr6N-Regular-83pv-RKSJ-H, Kozuka Gothic Pr6N" font-size="10.84"><tspan x="0" y="0">103</tspan></text>
    <text transform="translate(457.71 207.95) scale(1.02 1)" fill="#231815" font-family="KozGoPr6N-Regular-83pv-RKSJ-H, Kozuka Gothic Pr6N" font-size="10.84"><tspan x="0" y="0">106</tspan></text>
    <text transform="translate(488.49 255.66) scale(1.02 1)" fill="#231815" font-family="KozGoPr6N-Regular-83pv-RKSJ-H, Kozuka Gothic Pr6N" font-size="10.84"><tspan x="0" y="0">104</tspan></text>
    <text transform="translate(179.53 130.87) scale(1.02 1)" fill="#231815" font-family="KozGoPr6N-Regular-83pv-RKSJ-H, Kozuka Gothic Pr6N" font-size="18.07"><tspan x="0" y="0">EV</tspan></text>
    <text transform="translate(599.17 147.71) scale(1.02 1)" fill="#231815" font-family="HiraginoSans-W5-83pv-RKSJ-H, Hiragino Sans" font-size="9.04"><tspan x="0" y="0">競技ダンス部</tspan></text>
    <text transform="translate(576.96 251.54) scale(1.02 1)" fill="#231815" font-family="HiraginoSans-W5-83pv-RKSJ-H, Hiragino Sans" font-size="9.04"><tspan x="0" y="0">Revolver</tspan></text>
    <text transform="translate(474.76 226.72) scale(1.02 1)" fill="#231815" font-family="HiraginoSans-W5-83pv-RKSJ-H, Hiragino Sans" font-size="9.04"><tspan x="0" y="0">unplugged</tspan></text>
    <text transform="translate(491.18 266.46) scale(1.02 1)" fill="#231815" font-family="HiraginoSans-W5-83pv-RKSJ-H, Hiragino Sans" font-size="9.04"><tspan x="0" y="0">アイリッシュ</tspan><tspan x="4.52" y="10.84">音楽研究会</tspan></text>
  </g>
</svg>