<?xml version="1.0" encoding="UTF-8"?>
<svg xmlns="http://www.w3.org/2000/svg" viewBox="0 0 720 320">
  <g id="_景" data-name="背景">
    <polyline id="base" points="0 0 720 0 720 320 0 320" fill="#dcdddd"/>
  </g>
  <g id="_下" data-name="廊下">
    <polyline points="171.81 197.85 147.44 197.85 147.44 135.94 115.49 135.94 115.49 177.02 98.38 177.02 98.38 48.59 642.51 48.64 642.51 81.24 573.87 81.24 573.87 282.57 551.78 282.57 551.38 81.24 457.89 81.24 211.86 81.24 211.86 109.23 202.32 109.23 202.32 136.28 171.81 136.28 171.81 197.85" fill="#b5b5b6" stroke="#273331" stroke-miterlimit="10" stroke-width=".92"/>
    <rect x="171.81" y="109.25" width="30.47" height="27.03" fill="#b5b5b6" stroke="#273331" stroke-miterlimit="10" stroke-width=".92"/>
    <g id="_印" data-name="矢印">
      <path d="M632.99,66.97l3.59,3.66,.05-2.69,13.75,.27,.04-1.79-13.75-.27,.05-2.69-3.74,3.51Z" fill="#040000"/>
      <path d="M652.03,67.34l-3.59-3.66-.05,2.69-13.75-.27-.04,1.79,13.75,.27-.05,2.69,3.74-3.51Z" fill="#040000"/>
    </g>
    <g id="_印-2" data-name="矢印">
      <path d="M356.74,37.43l-3.74,3.51,2.75,.05-.27,13.45,1.83,.04,.27-13.45,2.75,.05-3.59-3.66Z" fill="#040000"/>
      <path d="M356.36,56.05l3.74-3.51-2.75-.05,.27-13.45-1.83-.04-.27,13.45-2.75-.05,3.59,3.66Z" fill="#040000"/>
    </g>
    <g id="_印-3" data-name="矢印">
      <path d="M163.22,38.21l-3.74,3.51,2.75,.05-.27,13.45,1.83,.04,.27-13.45,2.75,.05-3.59-3.66Z" fill="#040000"/>
      <path d="M162.84,56.84l3.74-3.51-2.75-.05,.27-13.45-1.83-.04-.27,13.45-2.75-.05,3.59,3.66Z" fill="#040000"/>
    </g>
  </g>
  <g id="_椅子用トイレ" data-name="車椅子用トイレ">
    <polyline points="115.49 156.72 147.44 156.72 147.44 135.94 115.49 135.94 115.49 156.72" fill="#7cc05a" stroke="#283331" stroke-miterlimit="10" stroke-width=".92"/>
    <rect x="534.35" y="133.59" width="17.12" height="16.28" fill="#7cc05a" stroke="#283331" stroke-miterlimit="10" stroke-width=".92"/>
    <g>
      <path d="M544.44,137.04c.79-.2,1.26-.98,1.06-1.76-.2-.77-1-1.24-1.79-1.04-.79,.2-1.26,.98-1.06,1.75,.2,.77,1,1.24,1.79,1.04Z" fill="#fff"/>
      <path d="M545.81,140.75l-.12,1.24c.2,.13,.38,.27,.55,.43,.62,.6,.99,1.43,1,2.35,0,.92-.38,1.75-1,2.35-.62,.6-1.46,.97-2.4,.97-.94,0-1.79-.37-2.4-.97-.44-.43-.75-.97-.9-1.58l-.67,1.44c.79,1.35,2.27,2.26,3.97,2.26,2.52,0,4.57-2,4.57-4.47,0-1.78-1.06-3.31-2.6-4.03Z" fill="#fff"/>
      <path d="M542.84,144.51c1.29-.01,1.9-.54,2.03-1.77l.37-3.84c.06-.65-.34-1.21-1-1.27-.42-.04-.88,.17-1.15,.45l-1.84,1.77-1.93,.16c-.31,.03-.55,.28-.55,.58v.04c0,.32,.27,.58,.6,.58h2.27l1.03-.75-.17,1.87-2.52,.18c-.73,.03-1.05,.31-1.33,.96l-1.19,3.19c-.18,.39,0,.85,.4,1.03,.4,.18,.87,0,1.05-.39l1.34-2.8h2.57Z" fill="#fff"/>
    </g>
    <g>
      <path d="M133.23,142.17c.79-.2,1.26-.98,1.06-1.76-.2-.77-1-1.24-1.79-1.04-.79,.2-1.26,.98-1.06,1.75,.2,.77,1,1.24,1.79,1.04Z" fill="#fff"/>
      <path d="M134.59,145.89l-.12,1.24c.2,.13,.38,.27,.55,.43,.62,.6,.99,1.43,1,2.35,0,.92-.38,1.75-1,2.35-.62,.6-1.46,.97-2.4,.97-.94,0-1.79-.37-2.4-.97-.44-.43-.75-.97-.9-1.58l-.67,1.44c.79,1.35,2.27,2.26,3.97,2.26,2.52,0,4.57-2,4.57-4.47,0-1.78-1.06-3.31-2.6-4.03Z" fill="#fff"/>
      <path d="M131.62,149.64c1.29-.01,1.9-.54,2.03-1.77l.37-3.84c.06-.65-.34-1.21-1-1.27-.42-.04-.88,.17-1.15,.45l-1.84,1.77-1.93,.16c-.31,.03-.55,.28-.55,.58v.04c0,.32,.27,.58,.6,.58h2.27l1.03-.75-.17,1.87-2.52,.18c-.73,.03-1.05,.31-1.33,.96l-1.19,3.19c-.18,.39,0,.85,.4,1.03,.4,.18,.87,0,1.05-.39l1.34-2.8h2.57Z" fill="#fff"/>
    </g>
  </g>
  <g id="_子トイレ" data-name="女子トイレ">
    <rect x="115.49" y="156.72" width="31.95" height="20.29" fill="#f19899" stroke="#283331" stroke-miterlimit="10" stroke-width=".92"/>
    <rect x="494.07" y="149.87" width="57.4" height="47.99" fill="#f19899" stroke="#283331" stroke-miterlimit="10" stroke-width=".92"/>
  </g>
  <g id="_子トイレ-2" data-name="男子トイレ">
    <rect x="98.38" y="177.02" width="49.06" height="20.84" fill="#54c3f1" stroke="#283331" stroke-miterlimit="10" stroke-width=".92"/>
    <polygon points="551.38 81.24 494.07 81.24 494.07 149.87 534.35 149.87 534.35 133.59 551.47 133.59 551.38 81.24" fill="#54c3f1" stroke="#283331" stroke-miterlimit="10" stroke-width=".92"/>
  </g>
  <g id="_イレマーク" data-name="トイレマーク">
    <g id="_女" data-name="男女">
      <path d="M137.1,169.7c1.66,0,3-1.31,3-2.94s-1.34-2.94-3-2.94-3,1.31-3,2.94,1.34,2.94,3,2.94Z" fill="#fff"/>
      <path d="M125.93,169.7c1.66,0,3-1.31,3-2.94s-1.34-2.94-3-2.94-3,1.31-3,2.94,1.34,2.94,3,2.94Z" fill="#fff"/>
      <path d="M141.65,181.09l-4.12-9.48c-.07-.17-.25-.28-.44-.28s-.36,.11-.43,.28l-4.12,9.48c-.25,.57-.19,1.23,.16,1.74,.35,.52,.94,.83,1.58,.83h5.62c.63,0,1.23-.31,1.58-.83,.35-.52,.41-1.17,.16-1.74Z" fill="#fff"/>
      <path d="M128.74,171.33h-5.62c-.63,0-1.23,.31-1.58,.83-.35,.52-.41,1.17-.16,1.74l4.12,9.48c.07,.17,.25,.28,.44,.28s.36-.11,.43-.28l4.12-9.48c.25-.57,.19-1.23-.16-1.74-.35-.52-.94-.83-1.58-.83Z" fill="#fff"/>
    </g>
    <g id="_女-2" data-name="男女">
      <path d="M523.17,111.51c1.66,0,3-1.31,3-2.94s-1.34-2.94-3-2.94-3,1.31-3,2.94,1.34,2.94,3,2.94Z" fill="#fff"/>
      <path d="M525.98,113.14h-5.62c-.63,0-1.23,.31-1.58,.83-.35,.52-.41,1.17-.16,1.74l4.12,9.48c.07,.17,.25,.28,.44,.28s.36-.11,.43-.28l4.12-9.48c.25-.57,.19-1.23-.16-1.74-.35-.52-.94-.83-1.58-.83Z" fill="#fff"/>
    </g>
    <g id="_女-3" data-name="男女">
      <path d="M523.17,169.81c1.66,0,3-1.31,3-2.94s-1.34-2.94-3-2.94-3,1.31-3,2.94,1.34,2.94,3,2.94Z" fill="#fff"/>
      <path d="M527.72,181.2l-4.12-9.48c-.07-.17-.25-.28-.44-.28s-.36,.11-.43,.28l-4.12,9.48c-.25,.57-.19,1.23,.16,1.74,.35,.52,.94,.83,1.58,.83h5.62c.63,0,1.23-.31,1.58-.83,.35-.52,.41-1.17,.16-1.74Z" fill="#fff"/>
    </g>
  </g>
  <g id="_用不可能部屋" data-name="使用不可能部屋">
    <polygon points="171.81 136.28 202.32 136.28 202.32 109.23 211.86 109.23 211.86 81.24 457.89 81.24 457.89 197.85 171.81 197.85 171.81 136.28" fill="#929292" stroke="#273331" stroke-miterlimit="10" stroke-width=".92"/>
    <rect x="34.01" y="48.59" width="64.37" height="149.27" fill="#929292" stroke="#273331" stroke-miterlimit="10" stroke-width=".92"/>
    <rect x="457.89" y="246.14" width="32.06" height="36.43" fill="#929292" stroke="#273331" stroke-miterlimit="10" stroke-width=".92"/>
    <rect x="627.39" y="216.88" width="58.6" height="65.69" fill="#929292" stroke="#273331" stroke-miterlimit="10" stroke-width=".92"/>
  </g>
  <g id="_段" data-name="階段">
    <g>
      <line x1="494.07" y1="125.47" x2="475.9" y2="125.47" fill="none" stroke="#283331" stroke-miterlimit="10" stroke-width=".23"/>
      <line x1="494.07" y1="129.28" x2="475.9" y2="129.28" fill="none" stroke="#283331" stroke-miterlimit="10" stroke-width=".23"/>
      <line x1="494.07" y1="132.49" x2="475.9" y2="132.49" fill="none" stroke="#283331" stroke-miterlimit="10" stroke-width=".23"/>
      <line x1="494.07" y1="135.94" x2="475.9" y2="135.94" fill="none" stroke="#283331" stroke-miterlimit="10" stroke-width=".23"/>
      <line x1="494.07" y1="139.33" x2="475.9" y2="139.33" fill="none" stroke="#283331" stroke-miterlimit="10" stroke-width=".23"/>
      <line x1="494.07" y1="142.7" x2="475.9" y2="142.7" fill="none" stroke="#283331" stroke-miterlimit="10" stroke-width=".23"/>
      <line x1="494.07" y1="146.33" x2="475.9" y2="146.33" fill="none" stroke="#283331" stroke-miterlimit="10" stroke-width=".23"/>
      <line x1="494.07" y1="150.14" x2="475.9" y2="150.14" fill="none" stroke="#283331" stroke-miterlimit="10" stroke-width=".23"/>
      <line x1="494.07" y1="154.39" x2="475.9" y2="154.39" fill="none" stroke="#283331" stroke-miterlimit="10" stroke-width=".23"/>
      <line x1="494.07" y1="157.98" x2="475.9" y2="157.98" fill="none" stroke="#283331" stroke-miterlimit="10" stroke-width=".23"/>
      <polygon points="494.07 156.72 475.9 168.5 475.9 197.85 494.07 197.85 494.07 156.72" fill="#5c5a5a"/>
      <polyline points="475.9 123.82 475.9 197.85 494.07 197.85 494.07 122.76" fill="none" stroke="#283331" stroke-miterlimit="10" stroke-width=".92"/>
    </g>
    <g>
      <line x1="171.81" y1="147.83" x2="159.25" y2="147.83" fill="none" stroke="#283331" stroke-miterlimit="10" stroke-width=".23"/>
      <line x1="171.81" y1="150.46" x2="159.25" y2="150.46" fill="none" stroke="#283331" stroke-miterlimit="10" stroke-width=".23"/>
      <line x1="171.81" y1="152.68" x2="159.25" y2="152.68" fill="none" stroke="#283331" stroke-miterlimit="10" stroke-width=".23"/>
      <line x1="171.81" y1="155.07" x2="159.25" y2="155.07" fill="none" stroke="#283331" stroke-miterlimit="10" stroke-width=".23"/>
      <line x1="171.81" y1="157.41" x2="159.25" y2="157.41" fill="none" stroke="#283331" stroke-miterlimit="10" stroke-width=".23"/>
      <line x1="171.81" y1="159.74" x2="159.25" y2="159.74" fill="none" stroke="#283331" stroke-miterlimit="10" stroke-width=".23"/>
      <line x1="171.81" y1="162.25" x2="159.25" y2="162.25" fill="none" stroke="#283331" stroke-miterlimit="10" stroke-width=".23"/>
      <line x1="171.81" y1="164.88" x2="159.25" y2="164.88" fill="none" stroke="#283331" stroke-miterlimit="10" stroke-width=".23"/>
      <line x1="171.81" y1="167.81" x2="159.25" y2="167.81" fill="none" stroke="#283331" stroke-miterlimit="10" stroke-width=".23"/>
      <line x1="171.81" y1="170.3" x2="159.25" y2="170.3" fill="none" stroke="#283331" stroke-miterlimit="10" stroke-width=".23"/>
      <polygon points="171.81 169.43 159.25 177.57 159.25 197.85 171.81 197.85 171.81 169.43" fill="#5c5a5a"/>
      <polyline points="159.25 146.69 159.25 197.85 171.81 197.85 171.81 145.96" fill="none" stroke="#283331" stroke-miterlimit="10" stroke-width=".92"/>
    </g>
  </g>
  <g id="MLOC-available">
    <rect id="studio101s" x="573.87" y="81.24" width="112.12" height="135.65" fill="#a8d7ef" stroke="#273331" stroke-miterlimit="10" stroke-width=".92"/>
    <rect id="music106s" x="457.89" y="197.85" width="93.57" height="48.29" fill="#a8d7ef" stroke="#273331" stroke-miterlimit="10" stroke-width=".92"/>
    <rect id="music104s" x="489.95" y="246.14" width="61.51" height="36.43" fill="#a8d7ef" stroke="#273331" stroke-miterlimit="10" stroke-width=".92"/>
    <rect id="music103s" x="573.87" y="216.88" width="53.52" height="65.69" fill="#a8d7ef" stroke="#273331" stroke-miterlimit="10" stroke-width=".92"/>
  </g>
  <g id="MNOINT-word">
    <text transform="translate(38.11 131.08) scale(1.02 1)" fill="#231815" font-family="KozGoPr6N-Regular-83pv-RKSJ-H, Kozuka Gothic Pr6N" font-size="18.29"><tspan x="0" y="0">医務室</tspan></text>
    <text transform="translate(253.66 145.96) scale(1.02 1)" fill="#231815" font-family="KozGoPr6N-Regular-83pv-RKSJ-H, Kozuka Gothic Pr6N" font-size="18.29"><tspan x="0" y="0">キャリア支援課</tspan></text>
    <text transform="translate(576.17 91.72) scale(1.02 1)" fill="#231815" font-family="KozGoPr6N-Regular-83pv-RKSJ-H, Kozuka Gothic Pr6N" font-size="10.97"><tspan x="0" y="0">101</tspan></text>
    <text transform="translate(574.81 227.37) scale(1.02 1)" fill="#231815" font-family="KozGoPr6N-Regular-83pv-RKSJ-H, Kozuka Gothic Pr6N" font-size="10.97"><tspan x="0" y="0">103</tspan></text>
    <text transform="translate(458.83 208.51) scale(1.02 1)" fill="#231815" font-family="KozGoPr6N-Regular-83pv-RKSJ-H, Kozuka Gothic Pr6N" font-size="10.97"><tspan x="0" y="0">106</tspan></text>
    <text transform="translate(489.95 256.78) scale(1.02 1)" fill="#231815" font-family="KozGoPr6N-Regular-83pv-RKSJ-H, Kozuka Gothic Pr6N" font-size="10.97"><tspan x="0" y="0">104</tspan></text>
    <text transform="translate(177.47 130.53) scale(1.02 1)" fill="#231815" font-family="KozGoPr6N-Regular-83pv-RKSJ-H, Kozuka Gothic Pr6N" font-size="18.29"><tspan x="0" y="0">EV</tspan></text>
    <text transform="translate(601.9 149.06) scale(1.02 1)" fill="#231815" font-family="HiraginoSans-W5-83pv-RKSJ-H, Hiragino Sans" font-size="9.14"><tspan x="0" y="0">古典ギター部</tspan></text>
    <text transform="translate(485.99 227.5) scale(1.02 1)" fill="#231815" font-family="HiraginoSans-W5-83pv-RKSJ-H, Hiragino Sans" font-size="9.14"><tspan x="0" y="0">管弦楽団</tspan></text>
    <text transform="translate(502.02 270.46) scale(1.02 1)" fill="#231815" font-family="HiraginoSans-W5-83pv-RKSJ-H, Hiragino Sans" font-size="9.14"><tspan x="0" y="0">管弦楽団</tspan></text>
    <text transform="translate(583.77 252.61) scale(1.02 1)" fill="#231815" font-family="HiraginoSans-W5-83pv-RKSJ-H, Hiragino Sans" font-size="9.14"><tspan x="0" y="0">管弦楽団</tspan></text>
  </g>
</svg>