<?xml version="1.0" encoding="UTF-8"?>
<svg xmlns="http://www.w3.org/2000/svg" viewBox="0 0 720 320">
  <g id="_景" data-name="背景">
    <polyline id="base" points="0 320 720 320 720 0 0 0" fill="#dcdddd"/>
  </g>
  <g id="_用不可能部屋" data-name="使用不可能部屋">
    <rect x="47.2" y="83.32" width="103.06" height="171.7" fill="#929292" stroke="#273331" stroke-miterlimit="10"/>
  </g>
  <g id="_下" data-name="廊下">
    <polygon points="150.26 83.32 150.26 178.93 189.97 178.93 189.97 255.01 221.2 255.01 221.2 178.93 605.93 178.93 605.93 255.01 672.8 255.01 672.8 128.53 605.93 128.53 605.93 140.89 200.69 140.89 200.69 83.32 150.26 83.32" fill="#b5b5b6" stroke="#273331" stroke-miterlimit="10"/>
  </g>
  <g id="_子トイレ" data-name="男子トイレ">
    <rect x="150.26" y="178.93" width="39.71" height="76.08" fill="#54c3f1" stroke="#283331" stroke-miterlimit="10"/>
    <g id="_" data-name="男">
      <path d="M170.12,215.19c1.77,0,3.21-1.44,3.21-3.21s-1.44-3.21-3.21-3.21-3.21,1.44-3.21,3.21,1.44,3.21,3.21,3.21Z" fill="#fff"/>
      <path d="M173.13,216.97h-6.02c-.68,0-1.31,.34-1.69,.91-.37,.57-.44,1.28-.17,1.91l4.4,10.36c.08,.19,.26,.31,.47,.31s.39-.12,.47-.31l4.4-10.36c.27-.62,.2-1.34-.17-1.91-.37-.57-1.01-.91-1.69-.91Z" fill="#fff"/>
    </g>
  </g>
  <g id="MLOC-stairs">
    <g id="stairs_7west">
      <polyline points="189.97 200.3 221.2 200.3 221.2 216.07 189.97 216.07" fill="none" stroke="#283331" stroke-miterlimit="10" stroke-width=".25"/>
      <line x1="221.2" y1="203.18" x2="189.97" y2="203.18" fill="none" stroke="#283331" stroke-miterlimit="10" stroke-width=".25"/>
      <line x1="221.2" y1="205.61" x2="189.97" y2="205.61" fill="none" stroke="#283331" stroke-miterlimit="10" stroke-width=".25"/>
      <line x1="221.2" y1="208.22" x2="189.97" y2="208.22" fill="none" stroke="#283331" stroke-miterlimit="10" stroke-width=".25"/>
      <line x1="221.2" y1="210.78" x2="189.97" y2="210.78" fill="none" stroke="#283331" stroke-miterlimit="10" stroke-width=".25"/>
      <line x1="221.2" y1="213.32" x2="189.97" y2="213.32" fill="none" stroke="#283331" stroke-miterlimit="10" stroke-width=".25"/>
      <line x1="221.2" y1="218.95" x2="189.97" y2="218.95" fill="none" stroke="#283331" stroke-miterlimit="10" stroke-width=".25"/>
      <line x1="221.2" y1="222.16" x2="189.97" y2="222.16" fill="none" stroke="#283331" stroke-miterlimit="10" stroke-width=".25"/>
      <line x1="221.2" y1="224.88" x2="189.97" y2="224.88" fill="none" stroke="#283331" stroke-miterlimit="10" stroke-width=".25"/>
      <line x1="221.2" y1="255.01" x2="189.97" y2="255.01" fill="none" stroke="#273331" stroke-miterlimit="10"/>
      <line x1="221.2" y1="227.66" x2="189.97" y2="227.66" fill="none" stroke="#283331" stroke-miterlimit="10" stroke-width=".25"/>
      <line x1="221.2" y1="230.94" x2="189.97" y2="230.94" fill="none" stroke="#283331" stroke-miterlimit="10" stroke-width=".25"/>
      <polygon points="205.59 221.48 221.2 215.36 221.2 200.11 205.59 200.11 205.59 221.48" fill="#5c5a5a"/>
      <line x1="189.97" y1="200.3" x2="189.97" y2="255.01" fill="none" stroke="#273331" stroke-miterlimit="10"/>
      <polyline points="205.59 222.16 205.59 200.14 205.59 233.81" fill="none" stroke="#273331" stroke-miterlimit="10"/>
    </g>
    <g id="stairs_7east">
      <polyline points="605.93 186.97 644.87 186.97 644.87 206.64 605.93 206.64" fill="none" stroke="#283331" stroke-miterlimit="10" stroke-width=".25"/>
      <line x1="644.87" y1="190.56" x2="605.93" y2="190.56" fill="none" stroke="#283331" stroke-miterlimit="10" stroke-width=".25"/>
      <line x1="644.87" y1="193.59" x2="605.93" y2="193.59" fill="none" stroke="#283331" stroke-miterlimit="10" stroke-width=".25"/>
      <line x1="644.87" y1="196.84" x2="605.93" y2="196.84" fill="none" stroke="#283331" stroke-miterlimit="10" stroke-width=".25"/>
      <line x1="644.87" y1="200.04" x2="605.93" y2="200.04" fill="none" stroke="#283331" stroke-miterlimit="10" stroke-width=".25"/>
      <line x1="644.87" y1="203.21" x2="605.93" y2="203.21" fill="none" stroke="#283331" stroke-miterlimit="10" stroke-width=".25"/>
      <line x1="644.87" y1="210.22" x2="605.93" y2="210.22" fill="none" stroke="#283331" stroke-miterlimit="10" stroke-width=".25"/>
      <line x1="644.87" y1="214.23" x2="605.93" y2="214.23" fill="none" stroke="#283331" stroke-miterlimit="10" stroke-width=".25"/>
      <line x1="644.87" y1="217.62" x2="605.93" y2="217.62" fill="none" stroke="#283331" stroke-miterlimit="10" stroke-width=".25"/>
      <line x1="644.87" y1="255.19" x2="605.93" y2="255.19" fill="none" stroke="#273331" stroke-miterlimit="10"/>
      <line x1="644.87" y1="221.08" x2="605.93" y2="221.08" fill="none" stroke="#283331" stroke-miterlimit="10" stroke-width=".25"/>
      <line x1="644.87" y1="225.17" x2="605.93" y2="225.17" fill="none" stroke="#283331" stroke-miterlimit="10" stroke-width=".25"/>
      <polygon points="625.4 213.38 644.87 205.75 644.87 186.73 625.4 186.73 625.4 213.38" fill="#5c5a5a"/>
      <line x1="605.93" y1="255.19" x2="605.93" y2="186.97" fill="#b5b5b6" stroke="#273331" stroke-miterlimit="10"/>
      <polyline points="625.4 214.23 625.4 186.77 625.4 228.75" fill="none" stroke="#273331" stroke-miterlimit="10"/>
      <line x1="644.87" y1="186.97" x2="644.87" y2="255.19" fill="#b5b5b6" stroke="#273331" stroke-miterlimit="10"/>
    </g>
  </g>
  <g id="EV">
    <rect x="221.2" y="178.93" width="32.61" height="29.57" fill="#b5b5b6" stroke="#273331" stroke-miterlimit="10"/>
  </g>
  <g id="_子トイレ-2" data-name="女子トイレ">
    <polyline points="253.81 178.93 268.12 178.93 268.12 255.01 221.2 255.01 221.2 208.5 253.81 208.5 253.81 178.93" fill="#e79395" stroke="#273331" stroke-miterlimit="10"/>
    <g id="_-2" data-name="女">
      <path d="M244.66,220.74c1.77,0,3.21-1.44,3.21-3.21s-1.44-3.21-3.21-3.21-3.21,1.44-3.21,3.21,1.44,3.21,3.21,3.21Z" fill="#fff"/>
      <path d="M249.53,233.2l-4.4-10.36c-.08-.19-.26-.31-.47-.31s-.39,.12-.47,.31l-4.4,10.36c-.27,.62-.2,1.34,.17,1.91,.37,.57,1.01,.91,1.69,.91h6.02c.68,0,1.31-.34,1.69-.91,.37-.57,.44-1.28,.17-1.91Z" fill="#fff"/>
    </g>
  </g>
  <g id="_イレマーク" data-name="トイレマーク"/>
  <g id="MLOC-available">
    <rect id="room229s" x="268.12" y="64.81" width="37.54" height="76.08" fill="#a8d7ef" stroke="#273331" stroke-miterlimit="10"/>
    <rect id="room228s" x="305.65" y="64.81" width="37.54" height="76.08" fill="#a8d7ef" stroke="#273331" stroke-miterlimit="10"/>
    <rect id="room227s" x="343.19" y="64.81" width="37.54" height="76.08" fill="#a8d7ef" stroke="#273331" stroke-miterlimit="10"/>
    <rect id="room226s" x="380.72" y="64.81" width="37.54" height="76.08" fill="#a8d7ef" stroke="#273331" stroke-miterlimit="10"/>
    <rect id="room225s" x="418.26" y="64.81" width="37.54" height="76.08" fill="#a8d7ef" stroke="#273331" stroke-miterlimit="10"/>
    <rect id="room224s" x="455.79" y="64.81" width="37.54" height="76.08" fill="#a8d7ef" stroke="#273331" stroke-miterlimit="10"/>
    <rect id="room223s" x="493.33" y="64.81" width="37.54" height="76.08" fill="#a8d7ef" stroke="#273331" stroke-miterlimit="10"/>
    <rect id="room222s" x="530.86" y="64.81" width="37.54" height="76.08" fill="#a8d7ef" stroke="#273331" stroke-miterlimit="10"/>
    <rect id="room221s" x="568.4" y="64.81" width="37.54" height="76.08" fill="#a8d7ef" stroke="#273331" stroke-miterlimit="10"/>
    <rect id="room7-230s" x="200.69" y="64.81" width="67.43" height="76.08" fill="#a8d7ef" stroke="#273331" stroke-miterlimit="10"/>
    <rect id="room218s" x="268.12" y="178.93" width="75.07" height="76.08" fill="#a8d7ef" stroke="#273331" stroke-miterlimit="10"/>
    <rect id="room216s" x="343.19" y="178.93" width="75.07" height="76.08" fill="#a8d7ef" stroke="#273331" stroke-miterlimit="10"/>
    <rect id="wa212s" x="530.86" y="178.93" width="37.54" height="76.08" fill="#a8d7ef" stroke="#273331" stroke-miterlimit="10"/>
    <rect id="wa211s" x="568.4" y="178.93" width="37.54" height="76.08" fill="#a8d7ef" stroke="#273331" stroke-miterlimit="10"/>
    <rect id="wa213s" x="474.56" y="178.93" width="56.3" height="76.08" fill="#a8d7ef" stroke="#273331" stroke-miterlimit="10"/>
    <rect id="wa215s" x="418.26" y="178.93" width="56.3" height="76.08" fill="#a8d7ef" stroke="#273331" stroke-miterlimit="10"/>
  </g>
  <g id="MNOINT-word">
    <text transform="translate(226.26 202.3)" fill="#231815" font-family="KozGoPr6N-Regular-83pv-RKSJ-H, Kozuka Gothic Pr6N" font-size="20"><tspan x="0" y="0">EV</tspan></text>
    <text transform="translate(48.88 171.88)" fill="#231815" font-family="KozGoPr6N-Regular-83pv-RKSJ-H, Kozuka Gothic Pr6N" font-size="20"><tspan x="0" y="0">学生相談室</tspan></text>
    <text transform="translate(201.69 77.02)" fill="#231815" font-family="KozGoPr6N-Regular-83pv-RKSJ-H, Kozuka Gothic Pr6N" font-size="12"><tspan x="0" y="0">230</tspan></text>
    <text transform="translate(270.33 77.02)" fill="#231815" font-family="KozGoPr6N-Regular-83pv-RKSJ-H, Kozuka Gothic Pr6N" font-size="12"><tspan x="0" y="0">229</tspan></text>
    <text transform="translate(307.58 77.24)" fill="#231815" font-family="KozGoPr6N-Regular-83pv-RKSJ-H, Kozuka Gothic Pr6N" font-size="12"><tspan x="0" y="0">228</tspan></text>
    <text transform="translate(345.06 77.02)" fill="#231815" font-family="KozGoPr6N-Regular-83pv-RKSJ-H, Kozuka Gothic Pr6N" font-size="12"><tspan x="0" y="0">227</tspan></text>
    <text transform="translate(383.48 77.02)" fill="#231815" font-family="KozGoPr6N-Regular-83pv-RKSJ-H, Kozuka Gothic Pr6N" font-size="12"><tspan x="0" y="0">226</tspan></text>
    <text transform="translate(421.34 77.02)" fill="#231815" font-family="KozGoPr6N-Regular-83pv-RKSJ-H, Kozuka Gothic Pr6N" font-size="12"><tspan x="0" y="0">225</tspan></text>
    <text transform="translate(457.82 77.13)" fill="#231815" font-family="KozGoPr6N-Regular-83pv-RKSJ-H, Kozuka Gothic Pr6N" font-size="12"><tspan x="0" y="0">224</tspan></text>
    <text transform="translate(495.29 76.91)" fill="#231815" font-family="KozGoPr6N-Regular-83pv-RKSJ-H, Kozuka Gothic Pr6N" font-size="12"><tspan x="0" y="0">223</tspan></text>
    <text transform="translate(533.71 76.91)" fill="#231815" font-family="KozGoPr6N-Regular-83pv-RKSJ-H, Kozuka Gothic Pr6N" font-size="12"><tspan x="0" y="0">222</tspan></text>
    <text transform="translate(571.57 76.91)" fill="#231815" font-family="KozGoPr6N-Regular-83pv-RKSJ-H, Kozuka Gothic Pr6N" font-size="12"><tspan x="0" y="0">221</tspan></text>
    <text transform="translate(270.92 190.56)" fill="#231815" font-family="KozGoPr6N-Regular-83pv-RKSJ-H, Kozuka Gothic Pr6N" font-size="12"><tspan x="0" y="0">218</tspan></text>
    <text transform="translate(345.65 191)" fill="#231815" font-family="KozGoPr6N-Regular-83pv-RKSJ-H, Kozuka Gothic Pr6N" font-size="12"><tspan x="0" y="0">216</tspan></text>
    <text transform="translate(420.13 190.71)" fill="#231815" font-family="KozGoPr6N-Regular-83pv-RKSJ-H, Kozuka Gothic Pr6N" font-size="12"><tspan x="0" y="0">215</tspan></text>
    <text transform="translate(475.56 190.15)" fill="#231815" font-family="KozGoPr6N-Regular-83pv-RKSJ-H, Kozuka Gothic Pr6N" font-size="12"><tspan x="0" y="0">213</tspan></text>
    <text transform="translate(531.86 190.15)" fill="#231815" font-family="KozGoPr6N-Regular-83pv-RKSJ-H, Kozuka Gothic Pr6N" font-size="12"><tspan x="0" y="0">212</tspan></text>
    <text transform="translate(570.17 190.15)" fill="#231815" font-family="KozGoPr6N-Regular-83pv-RKSJ-H, Kozuka Gothic Pr6N" font-size="12"><tspan x="0" y="0">211</tspan></text>
    <text transform="translate(572.17 221.48)" fill="#231815" font-family="HiraginoSans-W5-83pv-RKSJ-H, Hiragino Sans" font-size="10"><tspan x="0" y="0">書道部</tspan></text>
    <text transform="translate(534.63 221.08)" fill="#231815" font-family="HiraginoSans-W5-83pv-RKSJ-H, Hiragino Sans" font-size="10"><tspan x="0" y="0">書道部</tspan></text>
    <text transform="translate(487.71 221.08)" fill="#231815" font-family="HiraginoSans-W5-83pv-RKSJ-H, Hiragino Sans" font-size="10"><tspan x="0" y="0">囲碁部</tspan></text>
    <text transform="translate(431.41 221.08)" fill="#231815" font-family="HiraginoSans-W5-83pv-RKSJ-H, Hiragino Sans" font-size="10"><tspan x="0" y="0">囲碁部</tspan></text>
    <text transform="translate(360.72 221.08)" fill="#231815" font-family="HiraginoSans-W5-83pv-RKSJ-H, Hiragino Sans" font-size="10"><tspan x="0" y="0">管弦楽団</tspan></text>
    <text transform="translate(291.71 221.08)" fill="#231815" font-family="HiraginoSans-W5-83pv-RKSJ-H, Hiragino Sans" font-size="10"><tspan x="0" y="0">A</tspan><tspan x="7.84" y="0" letter-spacing=".25em">R</tspan><tspan x="17.88" y="0">会</tspan></text>
    <text transform="translate(221.99 107.05)" fill="#231815" font-family="HiraginoSans-W5-83pv-RKSJ-H, Hiragino Sans" font-size="10"><tspan x="0" y="0">Cap⁵­­­</tspan></text>
    <text transform="translate(495.1 101.74)" fill="#231815" font-family="HiraginoSans-W5-83pv-RKSJ-H, Hiragino Sans" font-size="8.5"><tspan x="0" y="0">司法問題</tspan><tspan x="4.25" y="12">研究会</tspan></text>
    <text transform="translate(532.68 101.74)" fill="#231815" font-family="HiraginoSans-W5-83pv-RKSJ-H, Hiragino Sans" font-size="8"><tspan x="0" y="0">Formula</tspan><tspan x="7.12" y="12">TMU</tspan></text>
    <text transform="translate(569.49 103.29)" fill="#231815" font-family="HiraginoSans-W5-83pv-RKSJ-H, Hiragino Sans" font-size="9"><tspan x="0" y="0">鳥人間部</tspan><tspan x="4.5" y="11">T-MIT</tspan></text>
    <text transform="translate(461.65 106.37)" fill="#231815" font-family="HiraginoSans-W5-83pv-RKSJ-H, Hiragino Sans" font-size="9"><tspan x="0" y="0">文藝部</tspan></text>
    <text transform="translate(419.06 102.74)" fill="#231815" font-family="HiraginoSans-W5-83pv-RKSJ-H, Hiragino Sans" font-size="9"><tspan x="0" y="0">美術工芸</tspan><tspan x="4.5" y="9">研究会</tspan></text>
    <text transform="translate(382.66 106.26)" fill="#231815" font-family="HiraginoSans-W5-83pv-RKSJ-H, Hiragino Sans" font-size="7"><tspan x="0" y="0">TMU-SFC</tspan></text>
    <text transform="translate(348.46 102.37)" fill="#231815" font-family="HiraginoSans-W5-83pv-RKSJ-H, Hiragino Sans" font-size="9"><tspan x="0" y="0">マンガ</tspan><tspan x="0" y="9">研究会</tspan></text>
    <text transform="translate(306.42 106.26)" fill="#231815" font-family="HiraginoSans-W5-83pv-RKSJ-H, Hiragino Sans" font-size="9"><tspan x="0" y="0">ヨット部</tspan></text>
    <text transform="translate(273.39 100.1)" fill="#231815" font-family="HiraginoSans-W5-83pv-RKSJ-H, Hiragino Sans" font-size="9"><tspan x="0" y="0">大学祭</tspan><tspan x="4.5" y="9">実行</tspan><tspan x="0" y="18">委員会</tspan></text>
  </g>
</svg>