<?xml version="1.0" encoding="UTF-8"?>
<svg xmlns="http://www.w3.org/2000/svg" viewBox="0 0 720 320">
  <g id="_景" data-name="背景">
    <polyline id="base" points="0 320 720 320 720 0 0 0" fill="#dcdddd"/>
  </g>
  <g id="_用不可能部屋" data-name="使用不可能部屋">
    <rect x="45.24" y="83.17" width="103.06" height="171.7" fill="#929292" stroke="#273331" stroke-miterlimit="10"/>
    <rect id="room225f" x="416.3" y="64.67" width="37.54" height="76.08" fill="#929292" stroke="#273331" stroke-miterlimit="10"/>
  </g>
  <g id="_下" data-name="廊下">
    <polygon points="148.31 83.17 148.31 178.79 188.02 178.79 188.02 254.87 219.25 254.87 219.25 178.79 603.98 178.79 603.98 254.87 670.84 254.87 670.84 128.38 603.98 128.38 603.98 140.75 198.73 140.75 198.73 83.17 148.31 83.17" fill="#b5b5b6" stroke="#273331" stroke-miterlimit="10"/>
  </g>
  <g id="_子トイレ" data-name="男子トイレ">
    <rect x="148.31" y="178.79" width="39.71" height="76.08" fill="#54c3f1" stroke="#283331" stroke-miterlimit="10"/>
    <g id="_" data-name="男">
      <path d="M168.16,215.05c1.77,0,3.21-1.44,3.21-3.21s-1.44-3.21-3.21-3.21-3.21,1.44-3.21,3.21,1.44,3.21,3.21,3.21Z" fill="#fff"/>
      <path d="M171.17,216.83h-6.02c-.68,0-1.31,.34-1.69,.91-.37,.57-.44,1.28-.17,1.91l4.4,10.36c.08,.19,.26,.31,.47,.31s.39-.12,.47-.31l4.4-10.36c.27-.62,.2-1.34-.17-1.91-.37-.57-1.01-.91-1.69-.91Z" fill="#fff"/>
    </g>
  </g>
  <g id="_段" data-name="階段">
    <g>
      <polyline points="188.02 200.16 219.25 200.16 219.24 215.93 188.02 215.93" fill="none" stroke="#283331" stroke-miterlimit="10" stroke-width=".25"/>
      <line x1="219.24" y1="203.04" x2="188.02" y2="203.04" fill="none" stroke="#283331" stroke-miterlimit="10" stroke-width=".25"/>
      <line x1="219.24" y1="205.46" x2="188.02" y2="205.46" fill="none" stroke="#283331" stroke-miterlimit="10" stroke-width=".25"/>
      <line x1="219.24" y1="208.07" x2="188.02" y2="208.07" fill="none" stroke="#283331" stroke-miterlimit="10" stroke-width=".25"/>
      <line x1="219.24" y1="210.64" x2="188.02" y2="210.64" fill="none" stroke="#283331" stroke-miterlimit="10" stroke-width=".25"/>
      <line x1="219.24" y1="213.18" x2="188.02" y2="213.18" fill="none" stroke="#283331" stroke-miterlimit="10" stroke-width=".25"/>
      <line x1="219.25" y1="218.8" x2="188.02" y2="218.8" fill="none" stroke="#283331" stroke-miterlimit="10" stroke-width=".25"/>
      <line x1="219.25" y1="222.02" x2="188.02" y2="222.02" fill="none" stroke="#283331" stroke-miterlimit="10" stroke-width=".25"/>
      <line x1="219.25" y1="224.73" x2="188.02" y2="224.73" fill="none" stroke="#283331" stroke-miterlimit="10" stroke-width=".25"/>
      <line x1="219.25" y1="254.87" x2="188.02" y2="254.87" fill="none" stroke="#273331" stroke-miterlimit="10"/>
      <line x1="219.25" y1="227.51" x2="188.02" y2="227.51" fill="none" stroke="#283331" stroke-miterlimit="10" stroke-width=".25"/>
      <line x1="219.25" y1="230.79" x2="188.02" y2="230.79" fill="none" stroke="#283331" stroke-miterlimit="10" stroke-width=".25"/>
      <polygon points="203.63 221.34 219.25 215.22 219.25 199.96 203.63 199.96 203.63 221.34" fill="#5c5a5a"/>
      <line x1="188.02" y1="200.16" x2="188.02" y2="254.87" fill="none" stroke="#273331" stroke-miterlimit="10"/>
      <polyline points="203.63 222.02 203.63 199.99 203.63 233.67" fill="none" stroke="#273331" stroke-miterlimit="10"/>
    </g>
    <g>
      <polyline points="603.98 186.83 642.91 186.83 642.91 206.49 603.98 206.49" fill="none" stroke="#283331" stroke-miterlimit="10" stroke-width=".25"/>
      <line x1="642.91" y1="190.42" x2="603.98" y2="190.42" fill="none" stroke="#283331" stroke-miterlimit="10" stroke-width=".25"/>
      <line x1="642.91" y1="193.45" x2="603.98" y2="193.45" fill="none" stroke="#283331" stroke-miterlimit="10" stroke-width=".25"/>
      <line x1="642.91" y1="196.7" x2="603.98" y2="196.7" fill="none" stroke="#283331" stroke-miterlimit="10" stroke-width=".25"/>
      <line x1="642.91" y1="199.9" x2="603.98" y2="199.9" fill="none" stroke="#283331" stroke-miterlimit="10" stroke-width=".25"/>
      <line x1="642.91" y1="203.07" x2="603.98" y2="203.07" fill="none" stroke="#283331" stroke-miterlimit="10" stroke-width=".25"/>
      <line x1="642.91" y1="210.08" x2="603.98" y2="210.08" fill="none" stroke="#283331" stroke-miterlimit="10" stroke-width=".25"/>
      <line x1="642.91" y1="214.08" x2="603.98" y2="214.08" fill="none" stroke="#283331" stroke-miterlimit="10" stroke-width=".25"/>
      <line x1="642.91" y1="217.47" x2="603.98" y2="217.47" fill="none" stroke="#283331" stroke-miterlimit="10" stroke-width=".25"/>
      <line x1="642.91" y1="255.04" x2="603.98" y2="255.04" fill="none" stroke="#273331" stroke-miterlimit="10"/>
      <line x1="642.91" y1="220.94" x2="603.98" y2="220.94" fill="none" stroke="#283331" stroke-miterlimit="10" stroke-width=".25"/>
      <line x1="642.91" y1="225.03" x2="603.98" y2="225.03" fill="none" stroke="#283331" stroke-miterlimit="10" stroke-width=".25"/>
      <polygon points="623.45 213.24 642.91 205.61 642.91 186.59 623.45 186.59 623.45 213.24" fill="#5c5a5a"/>
      <line x1="603.98" y1="255.04" x2="603.98" y2="186.83" fill="#b5b5b6" stroke="#273331" stroke-miterlimit="10"/>
      <polyline points="623.45 214.08 623.45 186.63 623.45 228.61" fill="none" stroke="#273331" stroke-miterlimit="10"/>
      <line x1="642.91" y1="186.83" x2="642.91" y2="255.04" fill="#b5b5b6" stroke="#273331" stroke-miterlimit="10"/>
    </g>
  </g>
  <g id="EV">
    <rect x="219.25" y="178.79" width="32.61" height="29.57" fill="#b5b5b6" stroke="#273331" stroke-miterlimit="10"/>
  </g>
  <g id="_子トイレ-2" data-name="女子トイレ">
    <polyline points="251.85 178.79 266.16 178.79 266.16 254.87 219.25 254.87 219.25 208.36 251.85 208.36 251.85 178.79" fill="#e79395" stroke="#273331" stroke-miterlimit="10"/>
    <g id="_-2" data-name="女">
      <path d="M242.7,220.6c1.77,0,3.21-1.44,3.21-3.21s-1.44-3.21-3.21-3.21-3.21,1.44-3.21,3.21,1.44,3.21,3.21,3.21Z" fill="#fff"/>
      <path d="M247.57,233.06l-4.4-10.36c-.08-.19-.26-.31-.47-.31s-.39,.12-.47,.31l-4.4,10.36c-.27,.62-.2,1.34,.17,1.91,.37,.57,1.01,.91,1.69,.91h6.02c.68,0,1.31-.34,1.69-.91,.37-.57,.44-1.28,.17-1.91Z" fill="#fff"/>
    </g>
  </g>
  <g id="_イレマーク" data-name="トイレマーク"/>
  <g id="MLOC-available">
    <rect id="room229f" x="266.16" y="64.67" width="37.54" height="76.08" fill="#a8d7ef" stroke="#273331" stroke-miterlimit="10"/>
    <rect id="room228f" x="303.7" y="64.67" width="37.54" height="76.08" fill="#a8d7ef" stroke="#273331" stroke-miterlimit="10"/>
    <rect id="room227f" x="341.23" y="64.67" width="37.54" height="76.08" fill="#a8d7ef" stroke="#273331" stroke-miterlimit="10"/>
    <rect id="room226f" x="378.77" y="64.67" width="37.54" height="76.08" fill="#a8d7ef" stroke="#273331" stroke-miterlimit="10"/>
    <rect id="room224f" x="453.84" y="64.67" width="37.54" height="76.08" fill="#a8d7ef" stroke="#273331" stroke-miterlimit="10"/>
    <rect id="room223f" x="491.37" y="64.67" width="37.54" height="76.08" fill="#a8d7ef" stroke="#273331" stroke-miterlimit="10"/>
    <rect id="room222f" x="528.91" y="64.67" width="37.54" height="76.08" fill="#a8d7ef" stroke="#273331" stroke-miterlimit="10"/>
    <rect id="room221f" x="566.44" y="64.67" width="37.54" height="76.08" fill="#a8d7ef" stroke="#273331" stroke-miterlimit="10"/>
    <rect id="room7-230f" x="198.73" y="64.67" width="67.43" height="76.08" fill="#a8d7ef" stroke="#273331" stroke-miterlimit="10"/>
    <rect id="room218f" x="266.16" y="178.79" width="75.07" height="76.08" fill="#a8d7ef" stroke="#273331" stroke-miterlimit="10"/>
    <rect id="room216f" x="341.23" y="178.79" width="75.07" height="76.08" fill="#a8d7ef" stroke="#273331" stroke-miterlimit="10"/>
    <rect id="wa212f" x="528.91" y="178.79" width="37.54" height="76.08" fill="#a8d7ef" stroke="#273331" stroke-miterlimit="10"/>
    <rect id="wa211f" x="566.44" y="178.79" width="37.54" height="76.08" fill="#a8d7ef" stroke="#273331" stroke-miterlimit="10"/>
    <rect id="wa213f" x="472.61" y="178.79" width="56.3" height="76.08" fill="#a8d7ef" stroke="#273331" stroke-miterlimit="10"/>
    <rect id="wa215f" x="416.3" y="178.79" width="56.3" height="76.08" fill="#a8d7ef" stroke="#273331" stroke-miterlimit="10"/>
  </g>
  <g id="MNOINT-word">
    <text transform="translate(224.31 202.16)" fill="#231815" font-family="KozGoPr6N-Regular-83pv-RKSJ-H, Kozuka Gothic Pr6N" font-size="20"><tspan x="0" y="0">EV</tspan></text>
    <text transform="translate(46.93 171.74)" fill="#231815" font-family="KozGoPr6N-Regular-83pv-RKSJ-H, Kozuka Gothic Pr6N" font-size="20"><tspan x="0" y="0">学生相談室</tspan></text>
    <text transform="translate(199.73 76.88)" fill="#231815" font-family="KozGoPr6N-Regular-83pv-RKSJ-H, Kozuka Gothic Pr6N" font-size="12"><tspan x="0" y="0">230</tspan></text>
    <text transform="translate(268.37 76.88)" fill="#231815" font-family="KozGoPr6N-Regular-83pv-RKSJ-H, Kozuka Gothic Pr6N" font-size="12"><tspan x="0" y="0">229</tspan></text>
    <text transform="translate(305.63 77.1)" fill="#231815" font-family="KozGoPr6N-Regular-83pv-RKSJ-H, Kozuka Gothic Pr6N" font-size="12"><tspan x="0" y="0">228</tspan></text>
    <text transform="translate(343.1 76.88)" fill="#231815" font-family="KozGoPr6N-Regular-83pv-RKSJ-H, Kozuka Gothic Pr6N" font-size="12"><tspan x="0" y="0">227</tspan></text>
    <text transform="translate(381.52 76.88)" fill="#231815" font-family="KozGoPr6N-Regular-83pv-RKSJ-H, Kozuka Gothic Pr6N" font-size="12"><tspan x="0" y="0">226</tspan></text>
    <text transform="translate(419.39 76.88)" fill="#231815" font-family="KozGoPr6N-Regular-83pv-RKSJ-H, Kozuka Gothic Pr6N" font-size="12"><tspan x="0" y="0">225</tspan></text>
    <text transform="translate(455.86 76.99)" fill="#231815" font-family="KozGoPr6N-Regular-83pv-RKSJ-H, Kozuka Gothic Pr6N" font-size="12"><tspan x="0" y="0">224</tspan></text>
    <text transform="translate(493.33 76.77)" fill="#231815" font-family="KozGoPr6N-Regular-83pv-RKSJ-H, Kozuka Gothic Pr6N" font-size="12"><tspan x="0" y="0">223</tspan></text>
    <text transform="translate(531.75 76.77)" fill="#231815" font-family="KozGoPr6N-Regular-83pv-RKSJ-H, Kozuka Gothic Pr6N" font-size="12"><tspan x="0" y="0">222</tspan></text>
    <text transform="translate(569.62 76.77)" fill="#231815" font-family="KozGoPr6N-Regular-83pv-RKSJ-H, Kozuka Gothic Pr6N" font-size="12"><tspan x="0" y="0">221</tspan></text>
    <text transform="translate(268.96 190.42)" fill="#231815" font-family="KozGoPr6N-Regular-83pv-RKSJ-H, Kozuka Gothic Pr6N" font-size="12"><tspan x="0" y="0">218</tspan></text>
    <text transform="translate(343.69 190.86)" fill="#231815" font-family="KozGoPr6N-Regular-83pv-RKSJ-H, Kozuka Gothic Pr6N" font-size="12"><tspan x="0" y="0">216</tspan></text>
    <text transform="translate(418.18 190.56)" fill="#231815" font-family="KozGoPr6N-Regular-83pv-RKSJ-H, Kozuka Gothic Pr6N" font-size="12"><tspan x="0" y="0">215</tspan></text>
    <text transform="translate(473.61 190)" fill="#231815" font-family="KozGoPr6N-Regular-83pv-RKSJ-H, Kozuka Gothic Pr6N" font-size="12"><tspan x="0" y="0">213</tspan></text>
    <text transform="translate(529.91 190)" fill="#231815" font-family="KozGoPr6N-Regular-83pv-RKSJ-H, Kozuka Gothic Pr6N" font-size="12"><tspan x="0" y="0">212</tspan></text>
    <text transform="translate(568.21 190)" fill="#231815" font-family="KozGoPr6N-Regular-83pv-RKSJ-H, Kozuka Gothic Pr6N" font-size="12"><tspan x="0" y="0">211</tspan></text>
    <text transform="translate(538.04 213.6)" fill="#231815" font-family="HiraginoSans-W5-83pv-RKSJ-H, Hiragino Sans" font-size="10"><tspan x="0" y="0">茶道</tspan><tspan x="-5" y="14">研究会</tspan></text>
    <text transform="translate(485.76 220.94)" fill="#231815" font-family="HiraginoSans-W5-83pv-RKSJ-H, Hiragino Sans" font-size="10"><tspan x="0" y="0">将棋部</tspan></text>
    <text transform="translate(429.76 220.6)" fill="#231815" font-family="HiraginoSans-W5-83pv-RKSJ-H, Hiragino Sans" font-size="10"><tspan x="0" y="0">将棋部</tspan></text>
    <text transform="translate(363.77 220.94)" fill="#231815" font-family="HiraginoSans-W5-83pv-RKSJ-H, Hiragino Sans" font-size="10"><tspan x="0" y="0">写真部</tspan></text>
    <text transform="translate(267.7 215.94)" fill="#231815" font-family="HiraginoSans-W5-83pv-RKSJ-H, Hiragino Sans" font-size="9"><tspan x="0" y="0">人力飛行機研究会</tspan><tspan x="19.85" y="12">MaPPL</tspan></text>
    <text transform="translate(202.55 104.45)" fill="#231815" font-family="HiraginoSans-W5-83pv-RKSJ-H, Hiragino Sans" font-size="10"><tspan x="0" y="0">環境サークル</tspan><tspan x="12.94" y="12">nature</tspan></text>
    <text transform="translate(380.03 100.49)" fill="#231815" font-family="HiraginoSans-W5-83pv-RKSJ-H, Hiragino Sans" font-size="7"><tspan x="0" y="0">いきもの！</tspan><tspan x="3.5" y="9">サークル</tspan><tspan x="10.5" y="18">東京</tspan></text>
    <text transform="translate(568.71 100.43)" fill="#231815" font-family="HiraginoSans-W5-83pv-RKSJ-H, Hiragino Sans" font-size="8"><tspan x="0" y="0">Closeup</tspan><tspan x="4.35" y="10">Magic</tspan><tspan x="4.9" y="20">Circle</tspan></text>
    <text transform="translate(532.68 111.28)" fill="#231815" font-family="HiraginoSans-W5-83pv-RKSJ-H, Hiragino Sans" font-size="10"><tspan x="0" y="0">美術部</tspan></text>
    <text transform="translate(454.64 105.69)" fill="#231815" font-family="HiraginoSans-W5-83pv-RKSJ-H, Hiragino Sans" font-size="9"><tspan x="0" y="0">キャプス</tspan><tspan x="14.9" y="12">5</tspan></text>
    <text transform="translate(496.64 101.28)" fill="#231815" font-family="HiraginoSans-W5-83pv-RKSJ-H, Hiragino Sans" font-size="9"><tspan x="0" y="0">ボード</tspan><tspan x="0" y="10">ゲーム</tspan><tspan x="0" y="20">研究会</tspan></text>
    <text transform="translate(344 105.69)" fill="#231815" font-family="HiraginoSans-W5-83pv-RKSJ-H, Hiragino Sans" font-size="8"><tspan x="0" y="0">推理小説</tspan><tspan x="4" y="9">研究会</tspan></text>
    <text transform="translate(310.46 105.71)" fill="#231815" font-family="HiraginoSans-W5-83pv-RKSJ-H, Hiragino Sans" font-size="6"><tspan x="0" y="0">ワンダー</tspan><tspan x="-6" y="9">フォーゲル部</tspan></text>
    <text transform="translate(267.43 110.43)" fill="#231815" font-family="HiraginoSans-W5-83pv-RKSJ-H, Hiragino Sans" font-size="7"><tspan x="0" y="0">鉄道研究会</tspan></text>
    <text transform="translate(575.53 213.08)" fill="#231815" font-family="HiraginoSans-W5-83pv-RKSJ-H, Hiragino Sans" font-size="10"><tspan x="0" y="0">茶道</tspan><tspan x="-5" y="14">研究会</tspan></text>
  </g>
</svg>