<?xml version="1.0" encoding="UTF-8"?>
<svg xmlns="http://www.w3.org/2000/svg" viewBox="0 0 660 490">
  <g id="base">
    <polyline id="base-2" data-name="base" points="0 0 660 0 660 490 0 490" fill="#dcdddd"/>
  </g>
  <g id="library">
    <polyline points="4.09 317.44 18.92 302.43 18.92 18.64 4.09 18.64" fill="#929292" stroke="#231815" stroke-miterlimit="10" stroke-width=".92"/>
  </g>
  <g id="base_map">
    <g>
      <polyline points="3.53 327.7 24.83 312.03 24.83 94.85 59.98 94.85 59.98 19.23 525.9 19.23 525.9 65.18 656.92 65.18 656.92 149.1 521.94 149.1 521.94 262.9 636.12 262.9 636.12 299.41 592.46 299.3 592.46 316.54 633.35 316.54 633.54 354.3 384.88 354.3 384.94 418.68 128.16 418.68 128.28 404.04 98.29 404.04 98.29 421.78 14.64 471.36 3.53 471.36" fill="#b5b5b6" stroke="#273331" stroke-miterlimit="10" stroke-width=".92"/>
      <rect x="653.83" y="65.69" width="3.54" height="82.9" fill="#b5b5b6"/>
    </g>
  </g>
  <g id="MLOC-avilable">
    <polyline id="seikyo_spaces" points="470.36 65.18 112.81 65.18 112.81 362.51 324.79 362.51 324.79 317.06 395.02 317.06 394.97 292.42 384.17 292.42 384.17 264.85 470.36 264.66 470.36 113.16 398.91 113" fill="#d6d2e8" stroke="#231815" stroke-miterlimit="10" stroke-width="1.83"/>
    <polygon id="danwas" points="470.04 264.37 470.04 180.68 366.73 180.68 366.73 264.37 387.94 264.37 470.04 264.37" fill="#aedef8" stroke="#231815" stroke-miterlimit="10" stroke-width=".92"/>
    <polygon id="shisakus" points="140.76 469.59 198.7 469.59 198.7 418.71 140.76 418.71 140.76 429.15 140.76 469.59" fill="#aedef8" stroke="#273331" stroke-miterlimit="10" stroke-width=".92"/>
  </g>
  <g id="unavailable">
    <rect x="236.85" y="418.67" width="38.15" height="50.88" fill="#929292" stroke="#283331" stroke-miterlimit="10" stroke-width=".92"/>
    <rect x="275" y="418.67" width="38.15" height="50.88" fill="#929292" stroke="#283331" stroke-miterlimit="10" stroke-width=".92"/>
    <rect x="198.7" y="418.74" width="38.15" height="50.88" fill="#929292" stroke="#283331" stroke-miterlimit="10" stroke-width=".92"/>
    <rect x="313.15" y="418.67" width="38.15" height="50.88" fill="#929292" stroke="#283331" stroke-miterlimit="10" stroke-width=".92"/>
    <rect x="601.45" y="353.76" width="31.97" height="50.88" fill="#929292" stroke="#283331" stroke-miterlimit="10" stroke-width=".92"/>
    <rect x="571.18" y="353.76" width="30.27" height="50.88" fill="#929292" stroke="#283331" stroke-miterlimit="10" stroke-width=".92"/>
    <rect x="550.51" y="353.76" width="20.67" height="50.88" fill="#929292" stroke="#283331" stroke-miterlimit="10" stroke-width=".92"/>
    <rect x="529.31" y="353.76" width="21.2" height="50.88" fill="#929292" stroke="#283331" stroke-miterlimit="10" stroke-width=".92"/>
    <rect x="508.24" y="353.76" width="21.12" height="50.88" fill="#929292" stroke="#283331" stroke-miterlimit="10" stroke-width=".92"/>
    <rect x="487.57" y="353.76" width="20.67" height="50.88" fill="#929292" stroke="#283331" stroke-miterlimit="10" stroke-width=".92"/>
    <rect x="466.9" y="353.76" width="20.67" height="50.88" fill="#929292" stroke="#283331" stroke-miterlimit="10" stroke-width=".92"/>
    <rect x="446.49" y="353.76" width="20.67" height="50.88" fill="#929292" stroke="#283331" stroke-miterlimit="10" stroke-width=".92"/>
    <rect x="415.69" y="353.76" width="30.8" height="50.88" fill="#929292" stroke="#283331" stroke-miterlimit="10" stroke-width=".92"/>
    <rect x="384.88" y="353.76" width="30.8" height="50.88" fill="#929292" stroke="#283331" stroke-miterlimit="10" stroke-width=".92"/>
    <rect x="603.89" y="193.64" width="32.2" height="69.58" fill="#929292" stroke="#283331" stroke-miterlimit="10" stroke-width=".92"/>
    <rect x="558.14" y="193.64" width="45.75" height="69.58" fill="#929292" stroke="#283331" stroke-miterlimit="10" stroke-width=".92"/>
    <rect x="521.95" y="193.64" width="36.19" height="69.58" fill="#929292" stroke="#283331" stroke-miterlimit="10" stroke-width=".92"/>
  </g>
  <g id="stairs">
    <path d="M2.6,344.28l8.41,4.95v-3.71h31.53v-2.47H11.01v-3.71l-8.41,4.95Z" fill="#040000"/>
    <g id="stair_to_park">
      <polygon points="417.46 65.65 400.86 113 468.54 113 468.54 65.65 417.46 65.65" fill="#ebebec" stroke="#231815" stroke-miterlimit="10" stroke-width=".92"/>
      <line x1="408" y1="92.82" x2="408" y2="113" fill="none" stroke="#231815" stroke-miterlimit="10" stroke-width=".92"/>
      <line x1="404.47" y1="113" x2="404.47" y2="102.91" fill="none" stroke="#231815" stroke-miterlimit="10" stroke-width=".92"/>
      <line x1="411.53" y1="113" x2="411.53" y2="83.69" fill="none" stroke="#231815" stroke-miterlimit="10" stroke-width=".92"/>
      <line x1="418.72" y1="65.65" x2="418.72" y2="113" fill="none" stroke="#231815" stroke-miterlimit="10" stroke-width=".92"/>
      <line x1="415.25" y1="113" x2="415.25" y2="71.95" fill="none" stroke="#231815" stroke-miterlimit="10" stroke-width=".92"/>
      <line x1="422.3" y1="113" x2="422.3" y2="65.65" fill="none" stroke="#231815" stroke-miterlimit="10" stroke-width=".92"/>
      <line x1="426.11" y1="65.65" x2="426.11" y2="113" fill="none" stroke="#231815" stroke-miterlimit="10" stroke-width=".92"/>
      <line x1="429.7" y1="113" x2="429.7" y2="65.65" fill="none" stroke="#231815" stroke-miterlimit="10" stroke-width=".92"/>
      <line x1="454.34" y1="65.65" x2="454.34" y2="113" fill="none" stroke="#231815" stroke-miterlimit="10" stroke-width=".92"/>
      <line x1="457.9" y1="113" x2="457.9" y2="65.65" fill="none" stroke="#231815" stroke-miterlimit="10" stroke-width=".92"/>
      <line x1="461.46" y1="65.65" x2="461.46" y2="113" fill="none" stroke="#231815" stroke-miterlimit="10" stroke-width=".92"/>
      <line x1="465.03" y1="113" x2="465.03" y2="65.65" fill="none" stroke="#231815" stroke-miterlimit="10" stroke-width=".92"/>
      <line x1="440.08" y1="65.65" x2="440.08" y2="113" fill="none" stroke="#231815" stroke-miterlimit="10" stroke-width=".92"/>
      <line x1="443.64" y1="113" x2="443.64" y2="65.65" fill="none" stroke="#231815" stroke-miterlimit="10" stroke-width=".92"/>
      <line x1="447.21" y1="65.65" x2="447.21" y2="113" fill="none" stroke="#231815" stroke-miterlimit="10" stroke-width=".92"/>
      <line x1="450.77" y1="113" x2="450.77" y2="65.65" fill="none" stroke="#231815" stroke-miterlimit="10" stroke-width=".92"/>
    </g>
    <g id="spiral_stair_cir">
      <path d="M465.72,316.33h23.43c5.12,0,9.27-4.2,9.27-9.38v-2.14c0-6.42-5.14-11.63-11.49-11.63h-11.14l2.88,11.17h-12.95" fill="#fff" stroke="#231815" stroke-miterlimit="10" stroke-width=".92"/>
      <line x1="478.42" y1="292.98" x2="478.42" y2="303.21" fill="#fff" stroke="#231815" stroke-miterlimit="10" stroke-width=".92"/>
      <line x1="480.82" y1="293.18" x2="480.82" y2="304.57" fill="#fff" stroke="#231815" stroke-miterlimit="10" stroke-width=".92"/>
      <line x1="483.11" y1="293.18" x2="483.11" y2="304.35" fill="#fff" stroke="#231815" stroke-miterlimit="10" stroke-width=".92"/>
      <line x1="480.82" y1="293.18" x2="480.82" y2="304.57" fill="#fff" stroke="#231815" stroke-miterlimit="10" stroke-width=".92"/>
      <line x1="483.11" y1="293.18" x2="483.11" y2="304.35" fill="#fff" stroke="#231815" stroke-miterlimit="10" stroke-width=".92"/>
      <line x1="485.41" y1="293.18" x2="485.41" y2="304.57" fill="#fff" stroke="#231815" stroke-miterlimit="10" stroke-width=".92"/>
      <line x1="487.7" y1="293.18" x2="487.7" y2="304.35" fill="#fff" stroke="#231815" stroke-miterlimit="10" stroke-width=".92"/>
      <line x1="482.07" y1="304.75" x2="482.07" y2="316.14" fill="#fff" stroke="#231815" stroke-miterlimit="10" stroke-width=".92"/>
      <line x1="484.25" y1="304.75" x2="484.25" y2="315.92" fill="#fff" stroke="#231815" stroke-miterlimit="10" stroke-width=".92"/>
      <line x1="486.43" y1="304.75" x2="486.43" y2="316.14" fill="#fff" stroke="#231815" stroke-miterlimit="10" stroke-width=".92"/>
      <line x1="488.61" y1="304.75" x2="488.61" y2="315.92" fill="#fff" stroke="#231815" stroke-miterlimit="10" stroke-width=".92"/>
      <line x1="473.35" y1="304.75" x2="473.35" y2="316.14" fill="#fff" stroke="#231815" stroke-miterlimit="10" stroke-width=".92"/>
      <line x1="475.53" y1="304.75" x2="475.53" y2="315.92" fill="#fff" stroke="#231815" stroke-miterlimit="10" stroke-width=".92"/>
      <line x1="477.71" y1="304.75" x2="477.71" y2="316.14" fill="#fff" stroke="#231815" stroke-miterlimit="10" stroke-width=".92"/>
      <line x1="479.89" y1="304.75" x2="479.89" y2="315.92" fill="#fff" stroke="#231815" stroke-miterlimit="10" stroke-width=".92"/>
      <line x1="466.81" y1="304.75" x2="466.81" y2="315.92" fill="#fff" stroke="#231815" stroke-miterlimit="10" stroke-width=".92"/>
      <line x1="468.99" y1="304.75" x2="468.99" y2="316.14" fill="#fff" stroke="#231815" stroke-miterlimit="10" stroke-width=".92"/>
      <line x1="471.17" y1="304.75" x2="471.17" y2="315.92" fill="#fff" stroke="#231815" stroke-miterlimit="10" stroke-width=".92"/>
    </g>
    <g>
      <g>
        <polyline points="590.81 304.81 590.81 322.29 648.26 322.29 648.26 304.81 590.81 304.81" fill="#f19899" stroke="#283331" stroke-miterlimit="10" stroke-width=".92"/>
        <polyline id="toilet" points="590.72 287.21 590.72 304.17 648.26 304.17 648.26 287.21 590.72 287.21" fill="#54c3f1" stroke="#283331" stroke-miterlimit="10" stroke-width=".92"/>
        <g id="toilet_mark">
          <path d="M638.42,299.49c2.15,0,3.89-1.73,3.89-3.86s-1.74-3.86-3.89-3.86-3.89,1.73-3.89,3.86,1.74,3.86,3.89,3.86Z" fill="#fff"/>
          <path d="M623.95,299.49c2.15,0,3.89-1.73,3.89-3.86s-1.74-3.86-3.89-3.86-3.89,1.73-3.89,3.86,1.74,3.86,3.89,3.86Z" fill="#fff"/>
          <path d="M644.32,314.47l-5.33-12.47c-.1-.22-.32-.37-.56-.37s-.47,.15-.56,.37l-5.33,12.47c-.32,.75-.24,1.61,.21,2.29,.45,.68,1.22,1.09,2.04,1.09h7.28c.82,0,1.59-.41,2.04-1.09,.45-.68,.53-1.54,.21-2.29Z" fill="#fff"/>
          <path d="M627.59,301.63h-7.28c-.82,0-1.59,.41-2.04,1.09-.45,.68-.53,1.54-.21,2.29l5.33,12.47c.1,.22,.32,.37,.56,.37s.47-.15,.56-.37l5.33-12.47c.32-.75,.24-1.61-.21-2.29-.45-.68-1.22-1.09-2.04-1.09Z" fill="#fff"/>
        </g>
      </g>
      <g id="spiral_stair_sq">
        <rect x="590.81" y="295.98" width="22.39" height="17.66" fill="#fff" stroke="#231815" stroke-miterlimit="10" stroke-width=".92"/>
        <polygon points="598.88 302.47 598.88 307.14 605.13 307.14 605.13 302.47 602.32 302.47 598.88 302.47" fill="#fff" stroke="#231815" stroke-miterlimit="10" stroke-width=".92"/>
        <line x1="598.88" y1="302.47" x2="590.81" y2="307.14" fill="none" stroke="#231815" stroke-miterlimit="10" stroke-width=".92"/>
        <line x1="598.52" y1="304.81" x2="594.84" y2="304.81" fill="none" stroke="#231815" stroke-miterlimit="10" stroke-width=".92"/>
        <line x1="598.88" y1="307.14" x2="590.81" y2="307.14" fill="none" stroke="#231815" stroke-miterlimit="10" stroke-width=".92"/>
        <line x1="599.62" y1="313.64" x2="599.62" y2="307.14" fill="none" stroke="#231815" stroke-miterlimit="10" stroke-width=".92"/>
        <line x1="602" y1="313.64" x2="602" y2="307.14" fill="none" stroke="#231815" stroke-miterlimit="10" stroke-width=".92"/>
        <line x1="604.23" y1="313.64" x2="604.23" y2="307.48" fill="none" stroke="#231815" stroke-miterlimit="10" stroke-width=".92"/>
        <line x1="613.2" y1="306.77" x2="605.13" y2="306.77" fill="none" stroke="#231815" stroke-miterlimit="10" stroke-width=".92"/>
        <line x1="613.2" y1="304.81" x2="605.64" y2="304.81" fill="none" stroke="#231815" stroke-miterlimit="10" stroke-width=".92"/>
        <line x1="613.2" y1="302.81" x2="605.13" y2="302.81" fill="none" stroke="#231815" stroke-miterlimit="10" stroke-width=".92"/>
        <line x1="604.23" y1="295.69" x2="604.23" y2="302.47" fill="none" stroke="#231815" stroke-miterlimit="10" stroke-width=".92"/>
        <line x1="602" y1="295.69" x2="602" y2="302.47" fill="none" stroke="#231815" stroke-miterlimit="10" stroke-width=".92"/>
        <line x1="599.22" y1="295.98" x2="599.22" y2="302.47" fill="none" stroke="#231815" stroke-miterlimit="10" stroke-width=".92"/>
      </g>
    </g>
    <g id="stair_to_back_lib">
      <polygon points="59.71 42.63 43.78 25.82 43.78 94.33 59.71 94.33 59.71 42.63" fill="#fff" stroke="#231815" stroke-miterlimit="10" stroke-width=".92"/>
      <line x1="50.57" y1="33.05" x2="43.78" y2="33.05" fill="none" stroke="#231815" stroke-miterlimit="10" stroke-width=".69"/>
      <line x1="43.78" y1="29.48" x2="47.18" y2="29.48" fill="none" stroke="#231815" stroke-miterlimit="10" stroke-width=".69"/>
      <line x1="43.78" y1="36.62" x2="53.64" y2="36.62" fill="none" stroke="#231815" stroke-miterlimit="10" stroke-width=".69"/>
      <line x1="59.71" y1="43.89" x2="43.78" y2="43.89" fill="none" stroke="#231815" stroke-miterlimit="10" stroke-width=".69"/>
      <line x1="43.78" y1="40.39" x2="57.59" y2="40.39" fill="none" stroke="#231815" stroke-miterlimit="10" stroke-width=".69"/>
      <line x1="43.78" y1="47.53" x2="59.71" y2="47.53" fill="none" stroke="#231815" stroke-miterlimit="10" stroke-width=".69"/>
      <line x1="59.71" y1="51.38" x2="43.78" y2="51.38" fill="none" stroke="#231815" stroke-miterlimit="10" stroke-width=".69"/>
      <line x1="43.78" y1="55.02" x2="59.71" y2="55.02" fill="none" stroke="#231815" stroke-miterlimit="10" stroke-width=".69"/>
      <line x1="59.71" y1="79.95" x2="43.78" y2="79.95" fill="none" stroke="#231815" stroke-miterlimit="10" stroke-width=".69"/>
      <line x1="43.78" y1="83.56" x2="59.71" y2="83.56" fill="none" stroke="#231815" stroke-miterlimit="10" stroke-width=".69"/>
      <line x1="59.71" y1="87.17" x2="43.78" y2="87.17" fill="none" stroke="#231815" stroke-miterlimit="10" stroke-width=".69"/>
      <line x1="43.78" y1="90.78" x2="59.71" y2="90.78" fill="none" stroke="#231815" stroke-miterlimit="10" stroke-width=".69"/>
      <line x1="59.71" y1="65.52" x2="43.78" y2="65.52" fill="none" stroke="#231815" stroke-miterlimit="10" stroke-width=".69"/>
      <line x1="43.78" y1="69.13" x2="59.71" y2="69.13" fill="none" stroke="#231815" stroke-miterlimit="10" stroke-width=".69"/>
      <line x1="59.71" y1="72.74" x2="43.78" y2="72.74" fill="none" stroke="#231815" stroke-miterlimit="10" stroke-width=".69"/>
      <line x1="43.78" y1="76.34" x2="59.71" y2="76.34" fill="none" stroke="#231815" stroke-miterlimit="10" stroke-width=".69"/>
    </g>
    <g id="stair_tocafe">
      <rect x="97.16" y="404.04" width="31.12" height="61.41" fill="#fff" stroke="#231815" stroke-miterlimit="10" stroke-width=".92"/>
      <polygon points="108.78 417.92 108.78 444.15 116.96 444.15 116.96 417.92 113.28 417.92 108.78 417.92" fill="#fff" stroke="#231815" stroke-miterlimit="10" stroke-width=".92"/>
      <line x1="108.94" y1="419.49" x2="97.16" y2="436.55" fill="none" stroke="#231815" stroke-miterlimit="10" stroke-width=".92"/>
      <line x1="108.78" y1="426.92" x2="103.96" y2="426.92" fill="none" stroke="#231815" stroke-miterlimit="10" stroke-width=".92"/>
      <line x1="108.78" y1="442.92" x2="97.16" y2="442.92" fill="none" stroke="#231815" stroke-miterlimit="10" stroke-width=".92"/>
      <line x1="109.74" y1="465.44" x2="109.74" y2="444.15" fill="none" stroke="#231815" stroke-miterlimit="10" stroke-width=".92"/>
      <line x1="112.87" y1="465.44" x2="112.87" y2="444.15" fill="none" stroke="#231815" stroke-miterlimit="10" stroke-width=".92"/>
      <line x1="115.78" y1="465.44" x2="115.78" y2="444.15" fill="none" stroke="#231815" stroke-miterlimit="10" stroke-width=".92"/>
      <line x1="128.45" y1="442.92" x2="116.96" y2="442.92" fill="none" stroke="#231815" stroke-miterlimit="10" stroke-width=".92"/>
      <line x1="128.28" y1="436.49" x2="116.95" y2="436.49" fill="none" stroke="#231815" stroke-miterlimit="10" stroke-width=".92"/>
      <line x1="128.28" y1="429.95" x2="116.96" y2="429.95" fill="none" stroke="#231815" stroke-miterlimit="10" stroke-width=".92"/>
      <line x1="128.28" y1="423.66" x2="116.96" y2="423.66" fill="none" stroke="#231815" stroke-miterlimit="10" stroke-width=".92"/>
      <line x1="108.78" y1="438.12" x2="97.16" y2="438.12" fill="none" stroke="#231815" stroke-miterlimit="10" stroke-width=".92"/>
      <line x1="108.78" y1="433.17" x2="99.56" y2="433.17" fill="none" stroke="#231815" stroke-miterlimit="10" stroke-width=".92"/>
      <line x1="108.94" y1="417.92" x2="97.16" y2="417.92" fill="none" stroke="#231815" stroke-miterlimit="10" stroke-width=".92"/>
    </g>
    <rect id="EV" x="372.32" y="292.42" width="22.65" height="24.48" fill="#f7f8f8" stroke="#231815" stroke-miterlimit="10" stroke-width="1.83"/>
    <path d="M650.43,114.39l-8.41-4.95v3.71h-31.53v2.47h31.53v3.71l8.41-4.95Z" fill="#040000"/>
  </g>
  <g id="MNOINT-word">
    <g>
      <text transform="translate(147.52 138.11) scale(.98 1)" fill="#231815" font-family="HiraginoSans-W5-83pv-RKSJ-H, Hiragino Sans"><tspan font-size="12"><tspan x="0" y="0">応援団　</tspan></tspan><tspan font-size="12"><tspan x="0" y="21">吹奏楽団</tspan></tspan><tspan font-size="12"><tspan x="0" y="42">WILD BOARS</tspan></tspan><tspan font-size="11.08"><tspan x="0" y="62.18">軽音楽部</tspan><tspan x="44.3" y="62.18" letter-spacing="-.25em">・</tspan></tspan><tspan font-size="11.08"><tspan x="0" y="81.56" xml:space="preserve"> フォークソング研究会</tspan></tspan></text>
      <text transform="translate(266.2 138.11) scale(.98 1)" fill="#231815" font-family="HiraginoSans-W5-83pv-RKSJ-H, Hiragino Sans" font-size="12"><tspan x="0" y="0">10:30 - 12:00</tspan><tspan x="0" y="21">12:00 - 14:15</tspan><tspan x="0" y="42">14:15 - 14:45</tspan><tspan x="0" y="71.53">14:45 - 16:30</tspan></text>
    </g>
    <text transform="translate(370.5 194.98) scale(.99 1)" fill="#231815" font-family="HiraginoSans-W5-83pv-RKSJ-H, Hiragino Sans" font-size="12.92"><tspan x="0" y="0">談話室</tspan></text>
    <text transform="translate(141.76 429.86) scale(.99 1)" fill="#231815" font-family="HiraginoSans-W5-83pv-RKSJ-H, Hiragino Sans" font-size="11.08"><tspan x="0" y="0">資料作成室</tspan></text>
    <text transform="translate(122.42 102.91) scale(.99 1)" fill="#231815" font-family="HiraginoSans-W5-83pv-RKSJ-H, Hiragino Sans" font-size="29.54"><tspan x="0" y="0">生協前広場</tspan></text>
    <text transform="translate(22.57 356.47) scale(1 1.01)" fill="#231815" font-family="KozGoPr6N-Regular-83pv-RKSJ-H, Kozuka Gothic Pr6N" font-size="29.18" glyph-orientation-vertical="0deg" text-orientation="upright" writing-mode="tb"><tspan x="0" y="0">図書館</tspan></text>
    <text transform="translate(495.62 87.2) scale(.99 1)" fill="#231815" font-family="KozGoPr6N-Regular-83pv-RKSJ-H, Kozuka Gothic Pr6N"><tspan font-size="18"><tspan x="0" y="0">インフォメーション</tspan></tspan><tspan font-size="18"><tspan x="0" y="23">ギャラリー</tspan></tspan><tspan font-size="16.61"><tspan x="-8.31" y="44.78">（インフォメ</tspan><tspan x="91.37" y="44.78" letter-spacing="-.5em">）</tspan></tspan></text>
    <text transform="translate(375.58 307.48) scale(.99 1)" fill="#231815" font-family="HiraginoSans-W5-83pv-RKSJ-H, Hiragino Sans" font-size="11.08"><tspan x="0" y="0">EV</tspan></text>
    <text transform="translate(147.44 446.45) scale(.99 1)" fill="#231815" font-family="HiraginoSans-W5-83pv-RKSJ-H, Hiragino Sans" font-size="11.08"><tspan x="0" y="0">世界民謡</tspan><tspan x="5.54" y="12.92">研究会</tspan></text>
  </g>
</svg>