<?xml version="1.0" encoding="UTF-8"?>
<svg xmlns="http://www.w3.org/2000/svg" viewBox="0 0 764.99 567.02">
  <g id="base">
    <polyline id="base-2" data-name="base" points="1 .52 764.99 .52 764.99 567.02 1 567.02" fill="#dcdddd"/>
  </g>
  <g id="base_map"/>
  <g id="unavailable">
    <polyline points="684.76 104.35 546.04 104.35 546.04 320.18 451.5 320.18 451.5 350.04 463.35 350.04 463.35 376.74 386.37 376.74 386.37 415.7 1.13 414.92 1.13 471.82 585.02 471.82 585.02 155.66 684.76 155.66" fill="#c9caca" stroke="#231815" stroke-miterlimit="10"/>
    <polygon points="764.99 .52 764.99 44.24 512.1 44.24 500.72 57.2 479.42 119.15 1.13 117.46 1 .52 764.99 .52" fill="#c9caca"/>
    <rect x="207.68" y="472.37" width="38.15" height="50.88" fill="#929292" stroke="#283331" stroke-miterlimit="10" stroke-width=".92"/>
    <rect x="283.98" y="472.37" width="38.15" height="50.88" fill="#929292" stroke="#283331" stroke-miterlimit="10" stroke-width=".92"/>
    <rect x="245.83" y="472.37" width="38.15" height="50.88" fill="#929292" stroke="#283331" stroke-miterlimit="10" stroke-width=".92"/>
  </g>
  <g id="MLOC-avilable">
    <polyline id="park1f" points="153.88 104.11 153.88 426.25 386.37 426.25 386.37 377.01 463.41 377.01 463.35 350.31 451.5 350.31 451.5 320.45 546.04 320.24 546.04 104.62 473.08 104.62" fill="#d6d2e8" stroke="#231815" stroke-miterlimit="10" stroke-width="2"/>
    <rect id="shop" x="585.02" y="155.66" width="99.74" height="270.32" fill="#f7b656" stroke="#231815" stroke-miterlimit="10" stroke-width="1.57"/>
    <polyline id="cafeteria" points="73.26 425.98 1 425.98 1 102.89 153.88 102.89 153.88 425.98 109.13 425.98" fill="#f7b96f" stroke="#231815" stroke-miterlimit="10" stroke-width="2"/>
  </g>
  <g id="stairs">
    <g id="stair_to_park">
      <polygon points="545.44 104.11 569.37 155.42 471.81 155.42 471.81 104.11 545.44 104.11" fill="#ebebec" stroke="#231815" stroke-miterlimit="10" stroke-width="1.15"/>
      <line x1="559.08" y1="133.55" x2="559.08" y2="155.42" fill="none" stroke="#231815" stroke-miterlimit="10" stroke-width="1.15"/>
      <path d="M564.17,144.48v10.94" fill="none" stroke="#231815" stroke-miterlimit="10" stroke-width="1.15"/>
      <line x1="554" y1="155.42" x2="554" y2="123.66" fill="none" stroke="#231815" stroke-miterlimit="10" stroke-width="1.15"/>
      <line x1="548.63" y1="155.42" x2="548.63" y2="110.94" fill="none" stroke="#231815" stroke-miterlimit="10" stroke-width="1.15"/>
      <line x1="538.46" y1="155.42" x2="538.46" y2="104.11" fill="none" stroke="#231815" stroke-miterlimit="10" stroke-width="1.15"/>
      <line x1="532.97" y1="104.11" x2="532.97" y2="155.42" fill="none" stroke="#231815" stroke-miterlimit="10" stroke-width="1.15"/>
      <line x1="527.8" y1="155.42" x2="527.8" y2="104.11" fill="none" stroke="#231815" stroke-miterlimit="10" stroke-width="1.15"/>
      <line x1="492.29" y1="104.11" x2="492.29" y2="155.42" fill="none" stroke="#231815" stroke-miterlimit="10" stroke-width="1.15"/>
      <line x1="487.15" y1="155.42" x2="487.15" y2="104.11" fill="none" stroke="#231815" stroke-miterlimit="10" stroke-width="1.15"/>
      <line x1="482.01" y1="104.11" x2="482.01" y2="155.42" fill="none" stroke="#231815" stroke-miterlimit="10" stroke-width="1.15"/>
      <line x1="512.84" y1="104.11" x2="512.84" y2="155.42" fill="none" stroke="#231815" stroke-miterlimit="10" stroke-width="1.15"/>
      <line x1="507.7" y1="155.42" x2="507.7" y2="104.11" fill="none" stroke="#231815" stroke-miterlimit="10" stroke-width="1.15"/>
      <line x1="502.57" y1="104.11" x2="502.57" y2="155.42" fill="none" stroke="#231815" stroke-miterlimit="10" stroke-width="1.15"/>
      <line x1="497.43" y1="155.42" x2="497.43" y2="104.11" fill="none" stroke="#231815" stroke-miterlimit="10" stroke-width="1.15"/>
      <line x1="478.05" y1="104.11" x2="478.05" y2="155.42" fill="none" stroke="#231815" stroke-miterlimit="10" stroke-width="1.15"/>
    </g>
    <g id="stair_to_back_lib">
      <polygon points="22.78 70.99 1 60.96 1 101.84 22.78 101.84 22.78 70.99" fill="#fff" stroke="#231815" stroke-miterlimit="10" stroke-width=".83"/>
      <line x1="10.28" y1="65.27" x2="1" y2="65.27" fill="none" stroke="#231815" stroke-miterlimit="10" stroke-width=".62"/>
      <line x1="1" y1="67.4" x2="14.48" y2="67.4" fill="none" stroke="#231815" stroke-miterlimit="10" stroke-width=".62"/>
      <line x1="22.78" y1="71.74" x2="1" y2="71.74" fill="none" stroke="#231815" stroke-miterlimit="10" stroke-width=".62"/>
      <line x1="1" y1="69.65" x2="19.88" y2="69.65" fill="none" stroke="#231815" stroke-miterlimit="10" stroke-width=".62"/>
      <line x1="1" y1="73.91" x2="22.78" y2="73.91" fill="none" stroke="#231815" stroke-miterlimit="10" stroke-width=".62"/>
      <line x1="22.78" y1="76.21" x2="1" y2="76.21" fill="none" stroke="#231815" stroke-miterlimit="10" stroke-width=".62"/>
      <line x1="1" y1="78.38" x2="22.78" y2="78.38" fill="none" stroke="#231815" stroke-miterlimit="10" stroke-width=".62"/>
      <line x1="22.78" y1="93.26" x2="1" y2="93.26" fill="none" stroke="#231815" stroke-miterlimit="10" stroke-width=".62"/>
      <line x1="1" y1="95.41" x2="22.78" y2="95.41" fill="none" stroke="#231815" stroke-miterlimit="10" stroke-width=".62"/>
      <line x1="22.78" y1="97.56" x2="1" y2="97.56" fill="none" stroke="#231815" stroke-miterlimit="10" stroke-width=".62"/>
      <line x1="1" y1="99.72" x2="22.78" y2="99.72" fill="none" stroke="#231815" stroke-miterlimit="10" stroke-width=".62"/>
      <line x1="22.78" y1="84.65" x2="1" y2="84.65" fill="none" stroke="#231815" stroke-miterlimit="10" stroke-width=".62"/>
      <line x1="1" y1="86.8" x2="22.78" y2="86.8" fill="none" stroke="#231815" stroke-miterlimit="10" stroke-width=".62"/>
      <line x1="22.78" y1="88.95" x2="1" y2="88.95" fill="none" stroke="#231815" stroke-miterlimit="10" stroke-width=".62"/>
      <line x1="1" y1="91.11" x2="22.78" y2="91.11" fill="none" stroke="#231815" stroke-miterlimit="10" stroke-width=".62"/>
    </g>
    <g>
      <polyline points="391.17 471.93 372.23 471.93 372.23 534.94 391.17 534.94 391.17 471.93" fill="#f19899" stroke="#283331" stroke-miterlimit="10"/>
      <polyline id="toilet" points="373.08 471.83 354.71 471.83 354.71 534.94 373.08 534.94 373.08 471.83" fill="#54c3f1" stroke="#283331" stroke-miterlimit="10"/>
      <g id="toilet_mark">
        <path d="M381.01,507.01c2.35,0,4.26-1.87,4.26-4.19s-1.91-4.19-4.26-4.19-4.26,1.87-4.26,4.19,1.91,4.19,4.26,4.19Z" fill="#fff"/>
        <path d="M365.14,507.01c2.35,0,4.26-1.87,4.26-4.19s-1.91-4.19-4.26-4.19-4.26,1.87-4.26,4.19,1.91,4.19,4.26,4.19Z" fill="#fff"/>
        <path d="M387.48,523.24l-5.85-13.51c-.11-.24-.35-.4-.62-.4s-.51,.16-.62,.4l-5.85,13.51c-.35,.81-.27,1.75,.23,2.49,.5,.74,1.34,1.18,2.24,1.18h7.99c.9,0,1.74-.44,2.24-1.18,.5-.74,.58-1.67,.23-2.49Z" fill="#fff"/>
        <path d="M369.14,509.33h-7.99c-.9,0-1.74,.44-2.24,1.18-.5,.74-.58,1.67-.23,2.49l5.85,13.51c.11,.24,.35,.4,.62,.4s.51-.16,.62-.4l5.85-13.51c.35-.81,.27-1.75-.23-2.49-.5-.74-1.34-1.18-2.24-1.18Z" fill="#fff"/>
      </g>
    </g>
    <g id="stair_tocafe">
      <rect x="1.13" y="471.82" width="51.41" height="66.53" fill="#fff" stroke="#231815" stroke-miterlimit="10" stroke-width="1.23"/>
      <polygon points="20.31 486.86 20.31 515.28 33.84 515.28 33.84 486.86 27.75 486.86 20.31 486.86" fill="#fff" stroke="#231815" stroke-miterlimit="10" stroke-width="1.23"/>
      <line x1="20.44" y1="472.57" x2=".99" y2="491.06" fill="none" stroke="#231815" stroke-miterlimit="10" stroke-width="1.23"/>
      <line x1="20.18" y1="480.63" x2="12.22" y2="480.63" fill="none" stroke="#231815" stroke-miterlimit="10" stroke-width="1.23"/>
      <line x1="20.31" y1="513.95" x2="1.13" y2="513.95" fill="none" stroke="#231815" stroke-miterlimit="10" stroke-width="1.23"/>
      <line x1="21.91" y1="538.35" x2="21.91" y2="515.28" fill="none" stroke="#231815" stroke-miterlimit="10" stroke-width="1.23"/>
      <line x1="27.07" y1="538.35" x2="27.07" y2="515.28" fill="none" stroke="#231815" stroke-miterlimit="10" stroke-width="1.23"/>
      <line x1="31.88" y1="538.35" x2="31.88" y2="515.28" fill="none" stroke="#231815" stroke-miterlimit="10" stroke-width="1.23"/>
      <line x1="52.82" y1="513.95" x2="33.84" y2="513.95" fill="none" stroke="#231815" stroke-miterlimit="10" stroke-width="1.23"/>
      <line x1="52.54" y1="506.99" x2="33.81" y2="506.99" fill="none" stroke="#231815" stroke-miterlimit="10" stroke-width="1.23"/>
      <line x1="52.54" y1="499.9" x2="33.84" y2="499.9" fill="none" stroke="#231815" stroke-miterlimit="10" stroke-width="1.23"/>
      <line x1="52.52" y1="493.08" x2="33.83" y2="493.08" fill="none" stroke="#231815" stroke-miterlimit="10" stroke-width="1.23"/>
      <line x1="20.31" y1="508.75" x2="1.13" y2="508.75" fill="none" stroke="#231815" stroke-miterlimit="10" stroke-width="1.23"/>
      <line x1="20.18" y1="487.39" x2="4.96" y2="487.39" fill="none" stroke="#231815" stroke-miterlimit="10" stroke-width="1.23"/>
      <line x1="20.31" y1="491.06" x2="20.31" y2="471.6" fill="none" stroke="#231815" stroke-miterlimit="10" stroke-width="1.23"/>
    </g>
    <rect x="438.51" y="350.04" width="24.85" height="26.52" fill="#f7f8f8" stroke="#231815" stroke-miterlimit="10" stroke-width="2"/>
    <path d="M680.54,139.78l-9.22-5.36v4.02h-34.59v2.68h34.59v4.02l9.22-5.36Z" fill="#040000"/>
    <path d="M91.58,404.11l-5.36,9.22h4.02v34.59h2.68v-34.59h4.02l-5.36-9.22Z" fill="#040000"/>
    <path d="M180.12,240.77l-9.22-5.36v4.02h-34.59v2.68h34.59v4.02l9.22-5.36Z" fill="#040000"/>
    <rect x="560.18" y="471.56" width="24.85" height="26.52" fill="#f7f8f8" stroke="#231815" stroke-miterlimit="10" stroke-width="2"/>
    <path d="M606.92,392.3l-9.22-5.36v4.02h-34.59v2.68h34.59v4.02l9.22-5.36Z" fill="#040000"/>
    <path d="M563.12,208.04l9.22,5.36v-4.02h34.59v-2.68h-34.59v-4.02l-9.22,5.36Z" fill="#040000"/>
    <polyline points="485.13 104.35 500.72 57.2 512.1 44.24 764.99 44.24" fill="none" stroke="#231815" stroke-miterlimit="10" stroke-width="1.04"/>
    <line x1="764.99" y1=".52" x2="1" y2=".52" fill="none" stroke="#231815" stroke-miterlimit="10" stroke-width="1.04"/>
    <path d="M757.21,20.29l-9.22-5.36v4.02h-34.59v2.68h34.59v4.02l9.22-5.36Z" fill="#040000"/>
    <path d="M9.98,20.29l9.22,5.36v-4.02H53.79v-2.68H19.2v-4.02l-9.22,5.36Z" fill="#040000"/>
  </g>
  <g id="MNOINT-word">
    <g>
      <text transform="translate(211.52 182.8) scale(.98 1)" fill="#231815" font-family="HiraginoSans-W5-83pv-RKSJ-H, Hiragino Sans"><tspan font-size="12"><tspan x="0" y="0">応援団　</tspan></tspan><tspan font-size="12"><tspan x="0" y="21">吹奏楽団</tspan></tspan><tspan font-size="12"><tspan x="0" y="42">WILD BOARS</tspan></tspan><tspan font-size="11.08"><tspan x="0" y="62.18">軽音楽部</tspan><tspan x="44.3" y="62.18" letter-spacing="-.25em">・</tspan></tspan><tspan font-size="11.08"><tspan x="0" y="81.56" xml:space="preserve"> フォークソング研究会</tspan></tspan></text>
      <text transform="translate(330.2 182.8) scale(.98 1)" fill="#231815" font-family="HiraginoSans-W5-83pv-RKSJ-H, Hiragino Sans" font-size="12"><tspan x="0" y="0">10:30 - 12:00</tspan><tspan x="0" y="21">12:00 - 14:15</tspan><tspan x="0" y="42">14:15 - 14:45</tspan><tspan x="0" y="71.53">14:45 - 16:30</tspan></text>
    </g>
    <text transform="translate(569.09 120.91) scale(.99 1)" fill="#231815" font-family="KozGoPr6N-Regular-83pv-RKSJ-H, Kozuka Gothic Pr6N" font-size="13"><tspan x="0" y="0">インフォメーション</tspan><tspan x="0" y="23">ギャラリー</tspan></text>
    <text transform="translate(164.42 144.72)" fill="#231815" font-family="HiraginoSans-W5-83pv-RKSJ-H, Hiragino Sans" font-size="32"><tspan x="0" y="0">生協前広場</tspan></text>
    <text transform="translate(442.08 366.37)" fill="#231815" font-family="HiraginoSans-W5-83pv-RKSJ-H, Hiragino Sans" font-size="12"><tspan x="0" y="0">EV</tspan></text>
    <text transform="translate(634.64 184.18)" fill="#231815" font-family="HiraginoSans-W4-83pv-RKSJ-H, Hiragino Sans" font-size="32" glyph-orientation-vertical="0deg" text-orientation="upright" writing-mode="tb"><tspan x="0" y="0">生協購買</tspan></text>
    <text transform="translate(14.07 220.2)" fill="#231815" font-family="HiraginoSans-W5-83pv-RKSJ-H, Hiragino Sans" font-size="32"><tspan x="0" y="0">生協食堂</tspan></text>
    <text transform="translate(606.75 357.86) scale(.99 1)" fill="#231815" font-family="HiraginoSans-W4-83pv-RKSJ-H, Hiragino Sans" font-size="20"><tspan x="0" y="0" letter-spacing="-.02em">お</tspan><tspan x="19.52" y="0" letter-spacing="-.03em">弁</tspan><tspan x="39.02" y="0" letter-spacing="-.03em">当</tspan><tspan x="9.53" y="23">販売</tspan></text>
    <text transform="translate(53.44 280.69)" fill="#231815" font-family="HiraginoSans-W5-83pv-RKSJ-H, Hiragino Sans" font-size="24"><tspan x="0" y="0">開放</tspan><tspan x="-24" y="34">食事可能</tspan></text>
    <text transform="translate(562.12 486.86)" fill="#231815" font-family="HiraginoSans-W5-83pv-RKSJ-H, Hiragino Sans" font-size="9"><tspan x="0" y="0">ATM</tspan></text>
    <text transform="translate(651.89 25.23) scale(.99 1)" fill="#231815" font-family="KozGoPr6N-Regular-83pv-RKSJ-H, Kozuka Gothic Pr6N" font-size="13"><tspan x="0" y="0">南大沢駅</tspan></text>
    <text transform="translate(14.48 44.24) scale(.99 1)" fill="#231815" font-family="KozGoPr6N-Regular-83pv-RKSJ-H, Kozuka Gothic Pr6N" font-size="13"><tspan x="0" y="0">理系棟</tspan></text>
  </g>
</svg>