<?xml version="1.0" encoding="UTF-8"?>
<svg xmlns="http://www.w3.org/2000/svg" viewBox="0 0 714.99 520.42">
  <g id="base">
    <rect id="base-2" data-name="base" y=".51" width="714.46" height="519.91" fill="#dcdddd"/>
  </g>
  <g id="MLOC-unavailable">
    <rect id="infome-building1s" x="36.56" y=".51" width="419.22" height="158.87" fill="#929292" stroke="#283331" stroke-miterlimit="10"/>
    <rect id="infome-building7s" x="36.56" y="388.59" width="443.59" height="116.23" fill="#929292" stroke="#283331" stroke-miterlimit="10"/>
    <rect id="infome-halls" x="643.99" y=".51" width="70.47" height="92.6" fill="#929292" stroke="#283331" stroke-miterlimit="10" stroke-width="1.02"/>
  </g>
  <g id="MLOC-available">
    <rect id="no8s" x="59.01" y="294.65" width="65.95" height="81.47" transform="translate(427.37 243.4) rotate(90)" fill="#aaddf7" stroke="#283331" stroke-miterlimit="10" stroke-width=".92"/>
    <rect id="no7s" x="164.24" y="294.32" width="65.95" height="81.47" transform="translate(532.27 137.85) rotate(90)" fill="#aaddf7" stroke="#283331" stroke-miterlimit="10" stroke-width=".92"/>
    <rect id="no6s" x="269.93" y="294.65" width="65.95" height="81.47" transform="translate(638.28 32.48) rotate(90)" fill="#aaddf7" stroke="#283331" stroke-miterlimit="10" stroke-width=".92"/>
    <rect id="no5s" x="374.81" y="294.65" width="65.95" height="81.47" transform="translate(743.17 -72.4) rotate(90)" fill="#aaddf7" stroke="#283331" stroke-miterlimit="10" stroke-width=".92"/>
    <rect id="no4s" x="477" y="294.32" width="65.95" height="81.47" transform="translate(845.03 -174.92) rotate(90)" fill="#aaddf7" stroke="#283331" stroke-miterlimit="10" stroke-width=".92"/>
    <rect id="no3s" x="610.32" y="329.18" width="61.94" height="80.15" fill="#aaddf7" stroke="#283331" stroke-miterlimit="10" stroke-width=".88"/>
    <rect id="no2s" x="610.32" y="229.92" width="61.94" height="80.15" fill="#aaddf7" stroke="#283331" stroke-miterlimit="10" stroke-width=".88"/>
    <rect id="no1s" x="610.32" y="130.65" width="61.94" height="80.15" fill="#aaddf7" stroke="#283331" stroke-miterlimit="10" stroke-width=".88"/>
  </g>
  <g id="MNOINT-word">
    <text transform="translate(227.27 96.42)" fill="#231815" font-family="HiraginoSans-W5-83pv-RKSJ-H, Hiragino Sans" font-size="20"><tspan x="0" y="0" letter-spacing=".25em">1</tspan><tspan x="18.8" y="0">号館</tspan></text>
    <text transform="translate(230.87 434.45)" fill="#231815" font-family="HiraginoSans-W5-83pv-RKSJ-H, Hiragino Sans" font-size="20"><tspan x="0" y="0" letter-spacing=".25em">7</tspan><tspan x="18.8" y="0">号館</tspan></text>
    <text transform="translate(661.37 64.85)" fill="#231815" font-family="KozGoPr6N-Regular-83pv-RKSJ-H, Kozuka Gothic Pr6N" font-size="20"><tspan x="0" y="0">講堂</tspan></text>
    <text transform="translate(559.67 110.01)" fill="#231815" font-family="KozGoPr6N-Regular-83pv-RKSJ-H, Kozuka Gothic Pr6N" font-size="20"><tspan x="0" y="0">↑</tspan><tspan x="-10" y="20">南門</tspan></text>
    <text transform="translate(543.1 468.58)" fill="#231815" font-family="KozGoPr6N-Regular-83pv-RKSJ-H, Kozuka Gothic Pr6N" font-size="20"><tspan x="0" y="0" letter-spacing=".25em">6</tspan><tspan x="16.02" y="0">号館</tspan><tspan x="18.01" y="20">↓</tspan></text>
    <text transform="translate(29.35 212.37)" fill="#231815" font-family="KozGoPr6N-Regular-83pv-RKSJ-H, Kozuka Gothic Pr6N" font-size="24" glyph-orientation-vertical="0deg" text-orientation="upright" writing-mode="tb"><tspan x="0" y="0">学生ホール</tspan></text>
    <path d="M7.44,198.5l9.22,5.36v-4.02H51.25v-2.68H16.66v-4.02l-9.22,5.36Z" fill="#040000"/>
    <polyline points="714.99 187.89 681.37 187.89 681.37 352.09 714.99 352.09" fill="#929292" stroke="#283331" stroke-miterlimit="10"/>
    <text transform="translate(695.98 217.3)" fill="#231815" font-family="KozGoPr6N-Regular-83pv-RKSJ-H, Kozuka Gothic Pr6N" font-size="24" glyph-orientation-vertical="0deg" text-orientation="upright" writing-mode="tb"><tspan x="0" y="0">空の目門</tspan></text>
    <text transform="translate(59.98 341.24)" fill="#231815" font-family="HiraginoSans-W5-83pv-RKSJ-H, Hiragino Sans" font-size="16"><tspan x="0" y="0">自動車部</tspan></text>
    <text transform="translate(177.35 341.24)" fill="#231815" font-family="HiraginoSans-W5-83pv-RKSJ-H, Hiragino Sans" font-size="16"><tspan x="0" y="0">Cap⁵</tspan></text>
    <text transform="translate(278.9 341.24)" fill="#231815" font-family="HiraginoSans-W5-83pv-RKSJ-H, Hiragino Sans" font-size="16"><tspan x="0" y="0">漕艇部</tspan></text>
    <text transform="translate(383.78 330.72)" fill="#231815" font-family="HiraginoSans-W5-83pv-RKSJ-H, Hiragino Sans" font-size="16"><tspan x="0" y="0">準硬式</tspan><tspan x="0" y="21">野球部</tspan></text>
    <text transform="translate(485.97 341.24)" fill="#231815" font-family="HiraginoSans-W5-83pv-RKSJ-H, Hiragino Sans" font-size="16"><tspan x="0" y="0">卓球部</tspan></text>
    <text transform="translate(617.29 176.42)" fill="#231815" font-family="HiraginoSans-W5-83pv-RKSJ-H, Hiragino Sans" font-size="16"><tspan x="0" y="0">柔道部</tspan></text>
    <text transform="translate(618.99 277.13)" fill="#231815" font-family="HiraginoSans-W5-83pv-RKSJ-H, Hiragino Sans" font-size="16"><tspan x="0" y="0">剣道部</tspan></text>
    <text transform="translate(611.29 376.06)" fill="#231815" font-family="HiraginoSans-W5-83pv-RKSJ-H, Hiragino Sans" font-size="15"><tspan x="0" y="0">ヨット部</tspan></text>
  </g>
</svg>