<?xml version="1.0" encoding="UTF-8"?>
<svg xmlns="http://www.w3.org/2000/svg" viewBox="0 0 714.99 520.42">
  <g id="base">
    <rect id="base-2" data-name="base" y=".51" width="714.46" height="519.91" fill="#dcdddd"/>
  </g>
  <g id="MLOC-unavailable">
    <rect id="infome-building1f" x="36.56" y=".51" width="419.22" height="158.87" fill="#929292" stroke="#283331" stroke-miterlimit="10"/>
    <rect id="infome-building7f" x="36.56" y="388.59" width="443.59" height="116.23" fill="#929292" stroke="#283331" stroke-miterlimit="10"/>
    <rect id="infome-hallf" x="643.99" y=".51" width="70.47" height="92.6" fill="#929292" stroke="#283331" stroke-miterlimit="10" stroke-width="1.02"/>
  </g>
  <g id="MLOC-available">
    <rect id="no8f" x="59.01" y="294.65" width="65.95" height="81.47" transform="translate(427.37 243.4) rotate(90)" fill="#aaddf7" stroke="#283331" stroke-miterlimit="10" stroke-width=".92"/>
    <rect id="no7f" x="164.24" y="294.32" width="65.95" height="81.47" transform="translate(532.27 137.85) rotate(90)" fill="#aaddf7" stroke="#283331" stroke-miterlimit="10" stroke-width=".92"/>
    <rect id="no6f" x="269.93" y="294.65" width="65.95" height="81.47" transform="translate(638.28 32.48) rotate(90)" fill="#aaddf7" stroke="#283331" stroke-miterlimit="10" stroke-width=".92"/>
    <rect id="no5f" x="374.81" y="294.65" width="65.95" height="81.47" transform="translate(743.17 -72.4) rotate(90)" fill="#aaddf7" stroke="#283331" stroke-miterlimit="10" stroke-width=".92"/>
    <rect id="no4f" x="477" y="294.32" width="65.95" height="81.47" transform="translate(845.03 -174.92) rotate(90)" fill="#aaddf7" stroke="#283331" stroke-miterlimit="10" stroke-width=".92"/>
    <rect id="no3f" x="610.32" y="329.18" width="61.94" height="80.15" fill="#aaddf7" stroke="#283331" stroke-miterlimit="10" stroke-width=".88"/>
    <rect id="no2f" x="610.32" y="229.92" width="61.94" height="80.15" fill="#aaddf7" stroke="#283331" stroke-miterlimit="10" stroke-width=".88"/>
    <rect id="no1f" x="610.32" y="130.65" width="61.94" height="80.15" fill="#aaddf7" stroke="#283331" stroke-miterlimit="10" stroke-width=".88"/>
  </g>
  <g id="MNOINT-word">
    <text transform="translate(227.27 96.42)" fill="#231815" font-family="HiraginoSans-W5-83pv-RKSJ-H, Hiragino Sans" font-size="20"><tspan x="0" y="0" letter-spacing=".25em">1</tspan><tspan x="18.8" y="0">号館</tspan></text>
    <text transform="translate(230.87 434.45)" fill="#231815" font-family="HiraginoSans-W5-83pv-RKSJ-H, Hiragino Sans" font-size="20"><tspan x="0" y="0" letter-spacing=".25em">7</tspan><tspan x="18.8" y="0">号館</tspan></text>
    <text transform="translate(661.37 64.85)" fill="#231815" font-family="KozGoPr6N-Regular-83pv-RKSJ-H, Kozuka Gothic Pr6N" font-size="20"><tspan x="0" y="0">講堂</tspan></text>
    <text transform="translate(559.67 110.01)" fill="#231815" font-family="KozGoPr6N-Regular-83pv-RKSJ-H, Kozuka Gothic Pr6N" font-size="20"><tspan x="0" y="0">↑</tspan><tspan x="-10" y="20">南門</tspan></text>
    <text transform="translate(543.1 468.58)" fill="#231815" font-family="KozGoPr6N-Regular-83pv-RKSJ-H, Kozuka Gothic Pr6N" font-size="20"><tspan x="0" y="0" letter-spacing=".25em">6</tspan><tspan x="16.02" y="0">号館</tspan><tspan x="18.01" y="20">↓</tspan></text>
    <text transform="translate(29.35 212.37)" fill="#231815" font-family="KozGoPr6N-Regular-83pv-RKSJ-H, Kozuka Gothic Pr6N" font-size="24" glyph-orientation-vertical="0deg" text-orientation="upright" writing-mode="tb"><tspan x="0" y="0">学生ホール</tspan></text>
    <path d="M7.44,198.5l9.22,5.36v-4.02H51.25v-2.68H16.66v-4.02l-9.22,5.36Z" fill="#040000"/>
    <polyline points="714.99 187.89 681.37 187.89 681.37 352.09 714.99 352.09" fill="#929292" stroke="#283331" stroke-miterlimit="10"/>
    <text transform="translate(695.98 217.3)" fill="#231815" font-family="KozGoPr6N-Regular-83pv-RKSJ-H, Kozuka Gothic Pr6N" font-size="24" glyph-orientation-vertical="0deg" text-orientation="upright" writing-mode="tb"><tspan x="0" y="0">空の目門</tspan></text>
    <text transform="translate(64.65 342.3)" fill="#231815" font-family="HiraginoSans-W5-83pv-RKSJ-H, Hiragino Sans" font-size="18"><tspan x="0" y="0">体操部</tspan></text>
    <text transform="translate(173.21 330.72)" fill="#231815" font-family="HiraginoSans-W5-83pv-RKSJ-H, Hiragino Sans" font-size="16"><tspan x="0" y="0">アイス</tspan><tspan x="-16" y="21">ホッケー部</tspan></text>
    <text transform="translate(262.9 342.3)" fill="#231815" font-family="HiraginoSans-W5-83pv-RKSJ-H, Hiragino Sans" font-size="16"><tspan x="0" y="0">ラグビー部</tspan></text>
    <text transform="translate(383.78 342.3)" fill="#231815" font-family="HiraginoSans-W5-83pv-RKSJ-H, Hiragino Sans" font-size="16"><tspan x="0" y="0">水泳部</tspan></text>
    <text transform="translate(472.47 332.64)" fill="#231815" font-family="HiraginoSans-W5-83pv-RKSJ-H, Hiragino Sans" font-size="15"><tspan x="0" y="0">フライング</tspan><tspan x="0" y="19">ディスク部</tspan></text>
    <text transform="translate(618.79 176.49)" fill="#231815" font-family="HiraginoSans-W5-83pv-RKSJ-H, Hiragino Sans" font-size="15"><tspan x="0" y="0">応援団</tspan></text>
    <text transform="translate(620.49 276.36)" fill="#231815" font-family="HiraginoSans-W5-83pv-RKSJ-H, Hiragino Sans" font-size="15"><tspan x="0" y="0">山岳部</tspan></text>
    <text transform="translate(618.79 363.56)" fill="#231815" font-family="HiraginoSans-W5-83pv-RKSJ-H, Hiragino Sans" font-size="15"><tspan x="0" y="0">ソフト</tspan><tspan x="-7.5" y="19">テニス部</tspan></text>
  </g>
</svg>